{
.appVersion = "3151";
.formatVersion = 3;
axes = (
{
name = Weight;
tag = wght;
},
{
name = Width;
tag = wdth;
},
{
name = Slant;
tag = slnt;
}
);
classes = (
{
code = "zero one two three four five six seven eight nine ";
name = Num;
},
{
code = "zero.canadian one.canadian two.canadian three.canadian four.canadian five.canadian six.canadian seven.canadian eight.canadian nine.canadian 
";
name = Num_can;
},
{

glyphs = (
{
glyphname = idotless;
lastChange = "2023-01-13 15:56:33 +0000";
layers = (
{
layerId = "86DE26EB-3058-4E6D-9480-BC9D8886A6AA";
shapes = (
{
closed = 1;
nodes = (
(190,528,l),
(49,528,l),
(49,0,l),
(190,0,l)
);
}
);
width = 240;
}
);
note = dotlessi;
unicode = 305;
},
{
glyphname = "acuteFinal-canadian";
lastChange = "2023-01-13 15:56:33 +0000";
layers = (
{
layerId = "86DE26EB-3058-4E6D-9480-BC9D8886A6AA";
shapes = (
{
closed = 1;
nodes = (
(124,345,l),
(267,690,l),
(160,690,l),
(16,345,l)
);
}
);
width = 283;
}
);
metricRight = "=|";
note = uni141F;
unicode = 5151;
},
{
glyphname = "graveFinal-canadian";
kernLeft = mwestleft;
kernRight = mwestright;
lastChange = "2023-01-13 15:56:33 +0000";
layers = (
{
layerId = "86DE26EB-3058-4E6D-9480-BC9D8886A6AA";
shapes = (
{
closed = 1;
nodes = (
(267,345,l),
(124,690,l),
(16,690,l),
(160,345,l)
);
}
);
width = 283;
}
);
metricLeft = "=|acuteFinal-canadian";
metricRight = "=|acuteFinal-canadian";
note = uni1420;
unicode = 5152;
},
{
glyphname = "ringBottomhalfFinal-canadian";
kernLeft = mwestleft;
kernRight = mwestright;
lastChange = "2023-01-13 15:56:33 +0000";
layers = (
{
layerId = "86DE26EB-3058-4E6D-9480-BC9D8886A6AA";
shapes = (
{
closed = 1;
nodes = (
(266,339,o),
(319,390,o),
(319,487,cs),
(319,690,l),
(224,690,l),
(224,482,ls),
(224,443,o),
(210,423,o),
(181,423,cs),
(152,423,o),
(138,443,o),
(138,482,cs),
(138,690,l),
(43,690,l),
(43,486,ls),
(43,390,o),
(98,339,o),
(181,339,cs)
);
}
);
width = 362;
}
);
metricLeft = "ai-canadian";
metricRight = "==|ai-canadian";
note = uni1421;
unicode = 5153;
},
{
glyphname = "ringTophalfFinal-canadian";
lastChange = "2023-01-13 15:56:33 +0000";
layers = (
{
layerId = "86DE26EB-3058-4E6D-9480-BC9D8886A6AA";
shapes = (
{
closed = 1;
nodes = (
(138,345,l),
(138,554,ls),
(138,591,o),
(152,611,o),
(181,611,cs),
(210,611,o),
(224,591,o),
(224,554,cs),
(224,345,l),
(319,345,l),
(319,548,ls),
(319,644,o),
(266,696,o),
(181,696,cs),
(98,696,o),
(43,644,o),
(43,549,cs),
(43,345,l)
);
}
);
width = 362;
}
);
metricLeft = "ai-canadian";
metricRight = "==|ai-canadian";
note = uni1422;
unicode = 5154;
},
{
glyphname = "ringRighthalfFinal-canadian";
kernLeft = mwestleft;
kernRight = mwestright;
lastChange = "2023-01-13 15:56:36 +0000";
layers = (
{
layerId = "86DE26EB-3058-4E6D-9480-BC9D8886A6AA";
shapes = (
{
closed = 1;
nodes = (
(96,345,ls),
(203,345,o),
(264,412,o),
(264,517,cs),
(264,622,o),
(203,690,o),
(96,690,cs),
(42,690,l),
(42,601,l),
(87,601,ls),
(141,601,o),
(169,570,o),
(169,517,cs),
(169,463,o),
(141,434,o),
(87,434,cs),
(42,434,l),
(42,345,l)
);
}
);
width = 304;
}
);
metricLeft = "=|t-canadian";
metricWidth = "t-canadian";
note = uni1423;
unicode = 5155;
},
{
glyphname = "ringFinal-canadian";
kernLeft = mwestleft;
kernRight = mwestright;
lastChange = "2023-01-13 15:56:33 +0000";
layers = (
{
layerId = "86DE26EB-3058-4E6D-9480-BC9D8886A6AA";
shapes = (
{
closed = 1;
nodes = (
(293,383,o),
(358,450,o),
(358,540,cs),
(358,629,o),
(292,696,o),
(200,696,cs),
(106,696,o),
(40,629,o),
(40,540,cs),
(40,450,o),
(105,383,o),
(200,383,cs)
);
},
{
closed = 1;
nodes = (
(154,463,o),
(127,496,o),
(127,540,cs),
(127,583,o),
(154,615,o),
(200,615,cs),
(243,615,o),
(271,582,o),
(271,540,cs),
(271,496,o),
(243,463,o),
(200,463,cs)
);
}
);
width = 398;
}
);
note = uni1424;
unicode = 5156;
},
{
glyphname = "doubleacuteFinal-canadian";
lastChange = "2023-01-13 15:56:36 +0000";
layers = (
{
layerId = "86DE26EB-3058-4E6D-9480-BC9D8886A6AA";
shapes = (
{
closed = 1;
nodes = (
(267,690,l),
(160,690,l),
(16,345,l),
(124,345,l)
);
},
{
closed = 1;
nodes = (
(421,690,l),
(314,690,l),
(172,345,l),
(279,345,l)
);
}
);
width = 437;
}
);
metricLeft = "acuteFinal-canadian";
metricRight = "=|";
note = uni1425;
unicode = 5157;
},
{
glyphname = "doubleshortverticalstrokesFinal-canadian";
kernLeft = mwestleft;
kernRight = mwestright;
lastChange = "2023-01-13 15:56:36 +0000";
layers = (
{
layerId = "86DE26EB-3058-4E6D-9480-BC9D8886A6AA";
shapes = (
{
closed = 1;
nodes = (
(138,690,l),
(43,690,l),
(43,345,l),
(138,345,l)
);
},
{
closed = 1;
nodes = (
(273,690,l),
(179,690,l),
(179,345,l),
(273,345,l)
);
}
);
width = 316;
}
);
metricLeft = "pWestCree-canadian";
metricRight = "pWestCree-canadian";
note = uni1426;
unicode = 5158;
},
{
glyphname = "middledotFinal-canadian";
lastChange = "2023-01-13 15:56:33 +0000";
layers = (
{
layerId = "86DE26EB-3058-4E6D-9480-BC9D8886A6AA";
shapes = (
{
closed = 1;
nodes = (
(139,287,o),
(169,317,o),
(169,355,cs),
(169,392,o),
(139,422,o),
(101,422,cs),
(65,422,o),
(35,392,o),
(35,355,cs),
(35,317,o),
(65,287,o),
(101,287,cs)
);
}
);
width = 204;
}
);
note = uni1427;
unicode = 5159;
},
{
glyphname = "shorthorizontalstrokeFinal-canadian";
kernLeft = mwestleft;
kernRight = mwestright;
lastChange = "2023-01-13 15:56:33 +0000";
layers = (
{
layerId = "86DE26EB-3058-4E6D-9480-BC9D8886A6AA";
shapes = (
{
closed = 1;
nodes = (
(322,490,l),
(322,585,l),
(43,585,l),
(43,490,l)
);
}
);
width = 365;
}
);
metricRight = "=|";
note = uni1428;
unicode = 5160;
},
{
glyphname = "plusFinal-canadian";
kernLeft = mwestleft;
kernRight = mwestright;
lastChange = "2023-01-13 15:56:33 +0000";
layers = (
{
layerId = "86DE26EB-3058-4E6D-9480-BC9D8886A6AA";
shapes = (
{
closed = 1;
nodes = (
(228,393,l),
(228,498,l),
(322,498,l),
(322,587,l),
(228,587,l),
(228,690,l),
(139,690,l),
(139,587,l),
(43,587,l),
(43,498,l),
(139,498,l),
(139,393,l)
);
}
);
width = 365;
}
);
metricLeft = "shorthorizontalstrokeFinal-canadian";
metricRight = "shorthorizontalstrokeFinal-canadian";
note = uni1429;
unicode = 5161;
},
{
glyphname = "downtackFinal-canadian";
kernLeft = mwestleft;
kernRight = mwestright;
lastChange = "2023-01-13 15:56:33 +0000";
layers = (
{
layerId = "86DE26EB-3058-4E6D-9480-BC9D8886A6AA";
shapes = (
{
closed = 1;
nodes = (
(230,345,l),
(230,600,l),
(322,600,l),
(322,690,l),
(43,690,l),
(43,600,l),
(136,600,l),
(136,345,l)
);
}
);
width = 365;
}
);
metricLeft = "shorthorizontalstrokeFinal-canadian";
metricRight = "shorthorizontalstrokeFinal-canadian";
note = uni142A;
unicode = 5162;
},
{
glyphname = "thFinalWoodScree-canadian";
lastChange = "2023-01-13 15:56:33 +0000";
layers = (
{
layerId = "86DE26EB-3058-4E6D-9480-BC9D8886A6AA";
shapes = (
{
closed = 1;
nodes = (
(230,345,l),
(230,405,l),
(322,405,l),
(322,484,l),
(230,484,l),
(230,551,l),
(322,551,l),
(322,630,l),
(230,630,l),
(230,690,l),
(136,690,l),
(136,630,l),
(43,630,l),
(43,551,l),
(136,551,l),
(136,484,l),
(43,484,l),
(43,405,l),
(136,405,l),
(136,345,l)
);
}
);
width = 365;
}
);
metricLeft = "hyphen-canadian";
metricRight = "hyphen-canadian";
note = uni167E;
unicode = 5758;
},
{
glyphname = "ringSmallFinal-canadian";
kernLeft = mwestleft;
kernRight = mwestright;
lastChange = "2023-01-13 15:56:33 +0000";
layers = (
{
layerId = "86DE26EB-3058-4E6D-9480-BC9D8886A6AA";
shapes = (
{
closed = 1;
nodes = (
(203,499,o),
(251,543,o),
(251,602,cs),
(251,661,o),
(203,703,o),
(147,703,cs),
(92,703,o),
(43,662,o),
(43,602,cs),
(43,543,o),
(91,499,o),
(147,499,cs)
);
},
{
closed = 1;
nodes = (
(122,557,o),
(104,578,o),
(104,602,cs),
(104,626,o),
(122,646,o),
(148,646,cs),
(173,646,o),
(190,626,o),
(190,602,cs),
(190,578,o),
(173,557,o),
(148,557,cs)
);
}
);
width = 295;
}
);
note = g725;
unicode = 6366;
},
{
glyphname = "raiseddotFinal-canadian";
kernLeft = mwestleft;
kernRight = mwestright;
lastChange = "2023-01-13 15:56:33 +0000";
layers = (
{
layerId = "86DE26EB-3058-4E6D-9480-BC9D8886A6AA";
shapes = (
{
closed = 1;
nodes = (
(140,569,o),
(170,599,o),
(170,637,cs),
(170,673,o),
(140,703,o),
(102,703,cs),
(66,703,o),
(36,673,o),
(36,637,cs),
(36,599,o),
(66,569,o),
(102,569,cs)
);
}
);
width = 206;
}
);
note = g725;
unicode = 6367;
},
{
glyphname = "plusFinal-canadian.base";
lastChange = "2023-01-13 15:56:33 +0000";
layers = (
{
layerId = "86DE26EB-3058-4E6D-9480-BC9D8886A6AA";
shapes = (
{
closed = 1;
nodes = (
(228,0,l),
(228,105,l),
(322,105,l),
(322,194,l),
(228,194,l),
(228,297,l),
(139,297,l),
(139,194,l),
(43,194,l),
(43,105,l),
(139,105,l),
(139,0,l)
);
}
);
width = 365;
}
);
metricLeft = "shorthorizontalstrokeFinal-canadian";
metricRight = "shorthorizontalstrokeFinal-canadian";
note = uni1429;
},
{
glyphname = "e-canadian";
kernLeft = ecanleft;
kernRight = ecanright;
lastChange = "2023-01-13 15:56:33 +0000";
layers = (
{
anchors = (
{
name = middle_center_can;
pos = (308,454);
},
{
name = top_center_can;
pos = (308,690);
},
{
name = top_left_can;
pos = (119,690);
},
{
name = top_right_can;
pos = (497,690);
}
);
layerId = "86DE26EB-3058-4E6D-9480-BC9D8886A6AA";
shapes = (
{
closed = 1;
nodes = (
(327,0,l),
(596,655,l),
(596,690,l),
(18,690,l),
(18,655,l),
(287,0,l)
);
},
{
closed = 1;
nodes = (
(340,171,l),
(170,605,l),
(145,577,l),
(467,577,l),
(447,605,l),
(277,171,l)
);
}
);
width = 614;
}
);
metricRight = "=|";
note = uni1401;
unicode = 5121;
},
{
glyphname = "i-canadian";
kernLeft = icanleft;
kernRight = icanright;
lastChange = "2023-01-13 15:56:33 +0000";
layers = (
{
anchors = (
{
name = middle_center_can;
pos = (306,291);
},
{
name = top_center_can;
pos = (307,690);
},
{
name = top_left_can;
pos = (118,690);
},
{
name = top_right_can;
pos = (497,690);
}
);
layerId = "86DE26EB-3058-4E6D-9480-BC9D8886A6AA";
shapes = (
{
closed = 1;
nodes = (
(596,0,l),
(596,35,l),
(327,690,l),
(287,690,l),
(18,35,l),
(18,0,l)
);
},
{
closed = 1;
nodes = (
(338,519,l),
(274,519,l),
(445,85,l),
(465,113,l),
(144,113,l),
(167,85,l)
);
}
);
width = 614;
}
);
metricLeft = "e-canadian";
metricWidth = "e-canadian";
note = uni1403;
unicode = 5123;
},
{
glyphname = "o-canadian";
kernLeft = ocanleft;
kernRight = ocanright;
lastChange = "2023-01-13 15:56:33 +0000";
layers = (
{
anchors = (
{
name = middle_center_can;
pos = (237,345);
},
{
name = top_center_can;
pos = (293,690);
},
{
name = top_double;
pos = (390,690);
},
{
name = top_left_can;
pos = (106,690);
},
{
name = top_right_can;
pos = (489,690);
}
);
layerId = "86DE26EB-3058-4E6D-9480-BC9D8886A6AA";
shapes = (
{
closed = 1;
nodes = (
(85,0,l),
(546,323,l),
(546,367,l),
(85,690,l),
(51,690,l),
(51,0,l)
);
},
{
closed = 1;
nodes = (
(168,531,l),
(138,517,l),
(418,319,l),
(418,374,l),
(138,175,l),
(168,158,l)
);
}
);
width = 572;
}
);
metricLeft = "nunavuth-canadian";
note = uni1405;
unicode = 5125;
},
{
glyphname = "eeCarrier-canadian";
lastChange = "2023-01-13 15:56:33 +0000";
layers = (
{
layerId = "86DE26EB-3058-4E6D-9480-BC9D8886A6AA";
shapes = (
{
closed = 1;
nodes = (
(85,0,l),
(546,323,l),
(546,367,l),
(85,690,l),
(51,690,l),
(51,0,l)
);
},
{
closed = 1;
nodes = (
(158,531,l),
(138,526,l),
(418,327,l),
(418,364,l),
(138,165,l),
(158,158,l)
);
},
{
closed = 1;
nodes = (
(253,411,l),
(208,411,l),
(208,279,l),
(253,279,l)
);
}
);
width = 572;
}
);
metricLeft = "nunavuth-canadian";
metricRight = "o-canadian";
note = uni1408;
unicode = 5128;
},
{
glyphname = "a-canadian";
kernLeft = acanleft;
kernRight = acanright;
lastChange = "2023-01-13 15:56:33 +0000";
layers = (
{
anchors = (
{
name = middle_center_can;
pos = (334,345);
},
{
name = top_center_can;
pos = (249,690);
},
{
name = top_left_can;
pos = (93,690);
},
{
name = top_right_can;
pos = (460,690);
}
);
layerId = "86DE26EB-3058-4E6D-9480-BC9D8886A6AA";
shapes = (
{
closed = 1;
nodes = (
(521,0,l),
(521,690,l),
(488,690,l),
(26,367,l),
(26,323,l),
(488,0,l)
);
},
{
closed = 1;
nodes = (
(434,174,l),
(154,372,l),
(154,317,l),
(434,516,l),
(405,531,l),
(405,158,l)
);
}
);
width = 572;
}
);
metricRight = "nunavuth-canadian";
note = uni140A;
unicode = 5130;
},
{
glyphname = "ai-canadian";
lastChange = "2023-01-13 15:56:36 +0000";
layers = (
{
layerId = "86DE26EB-3058-4E6D-9480-BC9D8886A6AA";
shapes = (
{
closed = 1;
nodes = (
(217,339,o),
(246,360,o),
(271,410,c),
(243,410,l),
(267,359,o),
(298,339,o),
(347,339,cs),
(421,339,o),
(470,385,o),
(470,480,cs),
(470,690,l),
(383,690,l),
(383,483,ls),
(383,438,o),
(367,422,o),
(342,422,cs),
(316,422,o),
(300,440,o),
(300,483,cs),
(300,690,l),
(213,690,l),
(213,483,ls),
(213,439,o),
(197,422,o),
(172,422,cs),
(146,422,o),
(131,440,o),
(131,483,cs),
(131,690,l),
(43,690,l),
(43,480,ls),
(43,385,o),
(94,339,o),
(168,339,cs)
);
}
);
width = 513;
}
);
metricRight = "=|";
note = uni141C;
unicode = 5148;
},
{
glyphname = "ycreew-canadian";
lastChange = "2023-01-13 15:56:36 +0000";
layers = (
{
layerId = "86DE26EB-3058-4E6D-9480-BC9D8886A6AA";
shapes = (
{
closed = 1;
nodes = (
(290,510,o),
(320,546,o),
(320,604,cs),
(320,662,o),
(289,696,o),
(246,696,cs),
(204,696,o),
(173,662,o),
(173,604,cs),
(173,546,o),
(203,510,o),
(246,510,cs)
);
},
{
closed = 1;
nodes = (
(158,339,o),
(188,375,o),
(188,433,cs),
(188,491,o),
(157,525,o),
(115,525,cs),
(72,525,o),
(43,491,o),
(43,433,cs),
(43,375,o),
(71,339,o),
(115,339,cs)
);
},
{
closed = 1;
nodes = (
(99,384,o),
(89,399,o),
(89,433,cs),
(89,466,o),
(99,479,o),
(115,479,cs),
(131,479,o),
(142,466,o),
(142,433,cs),
(142,399,o),
(131,384,o),
(115,384,cs)
);
},
{
closed = 1;
nodes = (
(230,555,o),
(220,570,o),
(220,604,cs),
(220,637,o),
(230,650,o),
(246,650,cs),
(263,650,o),
(272,637,o),
(272,604,cs),
(272,570,o),
(263,555,o),
(246,555,cs)
);
}
);
width = 363;
}
);
metricRight = "=|";
note = uni141D;
unicode = 5149;
},
{
glyphname = "glottalstop-canadian";
lastChange = "2023-01-13 15:56:36 +0000";
layers = (
{
layerId = "86DE26EB-3058-4E6D-9480-BC9D8886A6AA";
shapes = (
{
closed = 1;
nodes = (
(325,345,l),
(325,363,l),
(191,690,l),
(170,690,l),
(36,363,l),
(36,345,l)
);
},
{
closed = 1;
nodes = (
(202,596,l),
(159,596,l),
(240,387,l),
(253,414,l),
(109,414,l),
(121,387,l)
);
}
);
width = 361;
}
);
metricRight = "=|";
note = uni141E;
unicode = 5150;
},
{
glyphname = "pe-canadian";
kernLeft = ecanleft;
kernRight = ecanright;
lastChange = "2023-01-13 15:56:33 +0000";
layers = (
{
anchors = (
{
name = middle_center_can;
pos = (308,454);
},
{
name = top_center_can;
pos = (308,690);
},
{
name = top_left_can;
pos = (119,690);
},
{
name = top_right_can;
pos = (497,690);
}
);
layerId = "86DE26EB-3058-4E6D-9480-BC9D8886A6AA";
shapes = (
{
closed = 1;
nodes = (
(327,0,l),
(596,655,l),
(596,690,l),
(470,690,l),
(264,168,l),
(355,168,l),
(149,690,l),
(18,690,l),
(18,655,l),
(287,0,l)
);
}
);
width = 614;
}
);
metricLeft = "e-canadian";
metricRight = "e-canadian";
note = uni142F;
unicode = 5167;
},
{
glyphname = "pi-canadian";
kernLeft = icanleft;
kernRight = icanright;
lastChange = "2023-01-13 15:56:33 +0000";
layers = (
{
anchors = (
{
name = middle_center_can;
pos = (307,291);
},
{
name = top_center_can;
pos = (307,690);
},
{
name = top_left_can;
pos = (118,690);
},
{
name = top_right_can;
pos = (497,690);
}
);
layerId = "86DE26EB-3058-4E6D-9480-BC9D8886A6AA";
shapes = (
{
closed = 1;
nodes = (
(147,0,l),
(353,522,l),
(261,522,l),
(468,0,l),
(596,0,l),
(596,35,l),
(327,690,l),
(287,690,l),
(18,35,l),
(18,0,l)
);
}
);
width = 614;
}
);
metricLeft = "e-canadian";
metricRight = "e-canadian";
note = uni1431;
unicode = 5169;
},
{
glyphname = "po-canadian";
kernLeft = ocanleft;
kernRight = ocanright;
lastChange = "2023-01-13 15:56:36 +0000";
layers = (
{
anchors = (
{
name = middle_center_can;
pos = (148,345);
},
{
name = top_center_can;
pos = (275,690);
},
{
name = top_double;
pos = (384,690);
},
{
name = top_left_can;
pos = (96,690);
},
{
name = top_right_can;
pos = (470,690);
}
);
layerId = "86DE26EB-3058-4E6D-9480-BC9D8886A6AA";
shapes = (
{
closed = 1;
nodes = (
(68,0,l),
(527,323,l),
(527,367,l),
(68,690,l),
(35,690,l),
(35,556,l),
(381,314,l),
(381,378,l),
(35,135,l),
(35,0,l)
);
}
);
width = 553;
}
);
metricRight = "o-canadian";
note = uni1433;
unicode = 5171;
},
{
glyphname = "pa-canadian";
kernLeft = acanleft;
kernRight = acanright;
lastChange = "2023-01-13 15:56:33 +0000";
layers = (
{
anchors = (
{
name = middle_center_can;
pos = (355,345);
},
{
name = top_center_can;
pos = (280,690);
},
{
name = top_left_can;
pos = (94,690);
},
{
name = top_right_can;
pos = (459,690);
}
);
layerId = "86DE26EB-3058-4E6D-9480-BC9D8886A6AA";
shapes = (
{
closed = 1;
nodes = (
(519,0,l),
(519,133,l),
(173,376,l),
(173,312,l),
(519,554,l),
(519,690,l),
(486,690,l),
(26,367,l),
(26,323,l),
(486,0,l)
);
}
);
width = 554;
}
);
metricRight = "=|po-canadian";
note = uni1438;
unicode = 5176;
},
{
glyphname = "p-canadian";
kernLeft = mwestleft;
kernRight = mwestright;
lastChange = "2023-01-13 15:56:33 +0000";
layers = (
{
layerId = "86DE26EB-3058-4E6D-9480-BC9D8886A6AA";
shapes = (
{
closed = 1;
nodes = (
(285,345,l),
(285,433,l),
(118,553,l),
(118,481,l),
(285,600,l),
(285,690,l),
(269,690,l),
(43,529,l),
(43,506,l),
(269,345,l)
);
}
);
width = 328;
}
);
note = uni1449;
unicode = 5193;
},
{
glyphname = "pWestCree-canadian";
kernLeft = mwestleft;
kernRight = mwestright;
lastChange = "2023-01-13 15:56:36 +0000";
layers = (
{
layerId = "86DE26EB-3058-4E6D-9480-BC9D8886A6AA";
shapes = (
{
closed = 1;
nodes = (
(138,345,l),
(138,690,l),
(43,690,l),
(43,345,l)
);
}
);
width = 181;
}
);
metricRight = "=|";
note = uni144A;
unicode = 5194;
},
{
color = 6;
glyphname = "hCarrier-canadian";
lastChange = "2023-01-13 15:56:33 +0000";
layers = (
{
layerId = "86DE26EB-3058-4E6D-9480-BC9D8886A6AA";
shapes = (
{
closed = 1;
nodes = (
(138,183,l),
(138,304,ls),
(138,334,o),
(150,353,o),
(174,353,cs),
(196,353,o),
(207,336,o),
(207,308,cs),
(207,183,l),
(300,183,l),
(300,324,ls),
(300,407,o),
(247,437,o),
(201,437,cs),
(157,437,o),
(127,412,o),
(119,381,c),
(138,362,l),
(138,527,l),
(43,527,l),
(43,183,l)
);
}
);
width = 330;
}
);
metricLeft = "pWestCree-canadian";
note = uni144B;
unicode = 5195;
},
{
glyphname = "te-canadian";
lastChange = "2023-01-13 15:56:33 +0000";
layers = (
{
anchors = (
{
name = middle_center_can;
pos = (309,345);
},
{
name = top_center_can;
pos = (309,690);
},
{
name = top_left_can;
pos = (121,690);
},
{
name = top_right_can;
pos = (499,690);
}
);
layerId = "86DE26EB-3058-4E6D-9480-BC9D8886A6AA";
shapes = (
{
closed = 1;
nodes = (
(477,-14,o),
(570,85,o),
(570,271,cs),
(570,690,l),
(428,690,l),
(428,272,ls),
(428,163,o),
(387,117,o),
(309,117,cs),
(234,117,o),
(191,166,o),
(191,272,cs),
(191,690,l),
(48,690,l),
(48,270,ls),
(48,85,o),
(145,-14,o),
(310,-14,cs)
);
}
);
width = 618;
}
);
metricRight = "=|";
note = uni144C;
unicode = 5196;
},
{
glyphname = "ti-canadian";
lastChange = "2023-01-13 15:56:33 +0000";
layers = (
{
anchors = (
{
name = middle_center_can;
pos = (309,345);
},
{
name = middle_right_can;
pos = (692,345);
},
{
name = top_center_can;
pos = (309,690);
},
{
name = top_left_can;
pos = (121,690);
},
{
name = top_right_can;
pos = (499,690);
}
);
layerId = "86DE26EB-3058-4E6D-9480-BC9D8886A6AA";
shapes = (
{
closed = 1;
nodes = (
(191,0,l),
(191,417,ls),
(191,526,o),
(232,573,o),
(310,573,cs),
(385,573,o),
(428,524,o),
(428,417,cs),
(428,0,l),
(570,0,l),
(570,419,ls),
(570,605,o),
(475,703,o),
(310,703,cs),
(149,703,o),
(48,605,o),
(48,419,cs),
(48,0,l)
);
}
);
width = 618;
}
);
metricLeft = "te-canadian";
metricRight = "te-canadian";
note = uni144E;
unicode = 5198;
},
{
glyphname = "to-canadian";
kernLeft = toleft;
lastChange = "2023-01-13 15:56:33 +0000";
layers = (
{
anchors = (
{
name = middle_center_can;
pos = (187,345);
},
{
name = middle_right_can;
pos = (599,345);
},
{
name = top_center_can;
pos = (236,690);
},
{
name = top_double;
pos = (309,690);
},
{
name = top_left_can;
pos = (98,690);
},
{
name = top_right_can;
pos = (417,690);
}
);
layerId = "86DE26EB-3058-4E6D-9480-BC9D8886A6AA";
shapes = (
{
closed = 1;
nodes = (
(148,0,ls),
(357,0,o),
(478,116,o),
(478,346,cs),
(478,576,o),
(357,690,o),
(146,690,cs),
(37,690,l),
(37,560,l),
(146,560,ls),
(267,560,o),
(336,497,o),
(336,346,cs),
(336,194,o),
(267,129,o),
(148,129,cs),
(37,129,l),
(37,0,l)
);
}
);
width = 522;
}
);
note = uni1450;
unicode = 5200;
},
{
glyphname = "ta-canadian";
kernRight = taright;
lastChange = "2023-01-13 15:56:36 +0000";
layers = (
{
anchors = (
{
name = middle_center_can;
pos = (336,345);
},
{
name = top_center_can;
pos = (288,690);
},
{
name = top_left_can;
pos = (106,690);
},
{
name = top_right_can;
pos = (425,690);
}
);
layerId = "86DE26EB-3058-4E6D-9480-BC9D8886A6AA";
shapes = (
{
closed = 1;
nodes = (
(486,0,l),
(486,129,l),
(377,129,ls),
(257,129,o),
(187,192,o),
(187,344,cs),
(187,496,o),
(257,560,o),
(376,560,cs),
(486,560,l),
(486,690,l),
(376,690,ls),
(165,690,o),
(44,574,o),
(44,344,cs),
(44,115,o),
(165,0,o),
(377,0,cs)
);
}
);
width = 523;
}
);
metricLeft = "=|to-canadian";
metricRight = "=|to-canadian";
note = uni1455;
unicode = 5205;
},
{
glyphname = "t-canadian";
kernLeft = mwestleft;
kernRight = mwestright;
lastChange = "2023-01-13 15:56:33 +0000";
layers = (
{
layerId = "86DE26EB-3058-4E6D-9480-BC9D8886A6AA";
shapes = (
{
closed = 1;
nodes = (
(262,345,l),
(262,434,l),
(215,434,ls),
(162,434,o),
(134,463,o),
(134,517,cs),
(134,570,o),
(162,601,o),
(215,601,cs),
(262,601,l),
(262,690,l),
(207,690,ls),
(99,690,o),
(40,622,o),
(40,517,cs),
(40,412,o),
(99,345,o),
(207,345,cs)
);
}
);
width = 304;
}
);
note = uni1466;
unicode = 5222;
},
{
glyphname = "ke-canadian";
lastChange = "2023-01-13 15:56:33 +0000";
layers = (
{
anchors = (
{
name = middle_center_can;
pos = (256,441);
},
{
name = top_center_can;
pos = (251,690);
},
{
name = top_left_can;
pos = (108,690);
},
{
name = top_right_can;
pos = (392,690);
}
);
layerId = "86DE26EB-3058-4E6D-9480-BC9D8886A6AA";
shapes = (
{
closed = 1;
nodes = (
(463,0,l),
(463,440,ls),
(463,608,o),
(389,703,o),
(255,703,cs),
(121,703,o),
(39,605,o),
(39,441,cs),
(39,287,o),
(116,186,o),
(231,186,cs),
(284,186,o),
(324,218,o),
(333,253,c),
(321,274,l),
(321,0,l)
);
},
{
closed = 1;
nodes = (
(208,307,o),
(178,348,o),
(178,445,cs),
(178,543,o),
(205,583,o),
(250,583,cs),
(296,583,o),
(324,544,o),
(324,445,cs),
(324,347,o),
(294,307,o),
(250,307,cs)
);
}
);
width = 511;
}
);
metricRight = "te-canadian";
note = uni146B;
unicode = 5227;
},
{
glyphname = "ki-canadian";
lastChange = "2023-01-13 15:56:33 +0000";
layers = (
{
anchors = (
{
name = middle_center_can;
pos = (266,441);
},
{
name = top_center_can;
pos = (261,690);
},
{
name = top_left_can;
pos = (120,690);
},
{
name = top_right_can;
pos = (404,690);
}
);
layerId = "86DE26EB-3058-4E6D-9480-BC9D8886A6AA";
shapes = (
{
closed = 1;
nodes = (
(191,0,l),
(191,274,l),
(179,253,l),
(187,218,o),
(227,186,o),
(281,186,cs),
(396,186,o),
(473,288,o),
(473,442,cs),
(473,605,o),
(391,703,o),
(261,703,cs),
(123,703,o),
(48,602,o),
(48,440,cs),
(48,0,l)
);
},
{
closed = 1;
nodes = (
(218,307,o),
(188,347,o),
(188,445,cs),
(188,544,o),
(215,583,o),
(261,583,cs),
(306,583,o),
(333,543,o),
(333,445,cs),
(333,348,o),
(304,307,o),
(261,307,cs)
);
}
);
width = 512;
}
);
metricLeft = "te-canadian";
metricRight = "=|ke-canadian";
note = uni146D;
unicode = 5229;
},
{
glyphname = "ko-canadian";
lastChange = "2023-01-13 15:56:33 +0000";
layers = (
{
anchors = (
{
name = middle_center_can;
pos = (256,298);
},
{
name = top_center_can;
pos = (251,690);
},
{
name = top_double;
pos = (392,690);
},
{
name = top_left_can;
pos = (108,690);
},
{
name = top_right_can;
pos = (392,690);
}
);
layerId = "86DE26EB-3058-4E6D-9480-BC9D8886A6AA";
shapes = (
{
closed = 1;
nodes = (
(387,-14,o),
(463,82,o),
(463,249,cs),
(463,690,l),
(321,690,l),
(321,415,l),
(333,437,l),
(324,471,o),
(284,503,o),
(231,503,cs),
(116,503,o),
(39,402,o),
(39,242,cs),
(39,85,o),
(117,-14,o),
(253,-14,cs)
);
},
{
closed = 1;
nodes = (
(205,106,o),
(178,147,o),
(178,244,cs),
(178,342,o),
(208,383,o),
(250,383,cs),
(294,383,o),
(324,343,o),
(324,244,cs),
(324,146,o),
(296,106,o),
(250,106,cs)
);
}
);
width = 511;
}
);
metricLeft = "ke-canadian";
metricRight = "te-canadian";
note = uni146F;
unicode = 5231;
},
{
glyphname = "ka-canadian";
lastChange = "2023-01-13 15:56:33 +0000";
layers = (
{
anchors = (
{
name = middle_center_can;
pos = (266,302);
},
{
name = top_center_can;
pos = (261,690);
},
{
name = top_left_can;
pos = (120,690);
},
{
name = top_right_can;
pos = (404,690);
}
);
layerId = "86DE26EB-3058-4E6D-9480-BC9D8886A6AA";
shapes = (
{
closed = 1;
nodes = (
(390,-14,o),
(473,85,o),
(473,248,cs),
(473,402,o),
(396,503,o),
(282,503,cs),
(228,503,o),
(188,471,o),
(179,437,c),
(191,415,l),
(191,690,l),
(48,690,l),
(48,249,ls),
(48,82,o),
(122,-14,o),
(257,-14,cs)
);
},
{
closed = 1;
nodes = (
(215,106,o),
(188,146,o),
(188,244,cs),
(188,343,o),
(218,383,o),
(261,383,cs),
(304,383,o),
(333,342,o),
(333,244,cs),
(333,147,o),
(306,106,o),
(261,106,cs)
);
}
);
width = 512;
}
);
metricLeft = "te-canadian";
metricRight = "==|ke-canadian";
note = uni1472;
unicode = 5234;
},
{
glyphname = "k-canadian";
kernLeft = mwestleft;
kernRight = mwestright;
lastChange = "2023-01-13 15:56:33 +0000";
layers = (
{
layerId = "86DE26EB-3058-4E6D-9480-BC9D8886A6AA";
shapes = (
{
closed = 1;
nodes = (
(230,339,o),
(283,383,o),
(283,475,cs),
(283,555,o),
(241,601,o),
(185,601,cs),
(150,601,o),
(123,579,o),
(118,546,c),
(138,546,l),
(138,690,l),
(43,690,l),
(43,470,ls),
(43,390,o),
(87,339,o),
(165,339,cs)
);
},
{
closed = 1;
nodes = (
(144,408,o),
(130,423,o),
(130,469,cs),
(130,516,o),
(145,532,o),
(164,532,cs),
(184,532,o),
(199,517,o),
(199,469,cs),
(199,423,o),
(184,408,o),
(164,408,cs)
);
}
);
width = 317;
}
);
note = uni1483;
unicode = 5251;
},
{
glyphname = "kw-canadian";
kernLeft = mwestleft;
kernRight = mwestright;
lastChange = "2023-01-13 15:56:36 +0000";
layers = (
{
layerId = "86DE26EB-3058-4E6D-9480-BC9D8886A6AA";
shapes = (
{
closed = 1;
nodes = (
(229,339,o),
(273,390,o),
(273,470,cs),
(273,690,l),
(179,690,l),
(179,546,l),
(199,546,l),
(193,579,o),
(167,601,o),
(131,601,cs),
(76,601,o),
(34,555,o),
(34,475,cs),
(34,383,o),
(86,339,o),
(152,339,cs)
);
},
{
closed = 1;
nodes = (
(133,408,o),
(118,423,o),
(118,469,cs),
(118,517,o),
(133,532,o),
(153,532,cs),
(171,532,o),
(186,516,o),
(186,469,cs),
(186,423,o),
(172,408,o),
(153,408,cs)
);
}
);
width = 316;
}
);
metricLeft = "=|k-canadian";
metricRight = "=|k-canadian";
note = uni1484;
unicode = 5252;
},
{
glyphname = "ce-canadian";
kernLeft = celeft;
lastChange = "2023-01-13 15:56:33 +0000";
layers = (
{
anchors = (
{
name = middle_center_can;
pos = (250,371);
},
{
name = top_center_can;
pos = (247,690);
},
{
name = top_left_can;
pos = (107,690);
},
{
name = top_right_can;
pos = (384,690);
}
);
layerId = "86DE26EB-3058-4E6D-9480-BC9D8886A6AA";
shapes = (
{
closed = 1;
nodes = (
(454,0,l),
(454,451,ls),
(454,610,o),
(382,703,o),
(247,703,cs),
(116,703,o),
(36,615,o),
(36,452,cs),
(36,382,l),
(177,382,l),
(177,477,ls),
(177,544,o),
(200,580,o),
(245,580,cs),
(288,580,o),
(312,546,o),
(312,475,cs),
(312,0,l)
);
}
);
width = 502;
}
);
metricRight = "te-canadian";
note = uni1489;
unicode = 5257;
},
{
glyphname = "ci-canadian";
kernRight = ciright;
lastChange = "2023-01-13 15:56:36 +0000";
layers = (
{
anchors = (
{
name = middle_center_can;
pos = (262,371);
},
{
name = top_center_can;
pos = (260,690);
},
{
name = top_left_can;
pos = (121,690);
},
{
name = top_right_can;
pos = (397,690);
}
);
layerId = "86DE26EB-3058-4E6D-9480-BC9D8886A6AA";
shapes = (
{
closed = 1;
nodes = (
(191,0,l),
(191,475,ls),
(191,546,o),
(215,580,o),
(259,580,cs),
(303,580,o),
(327,544,o),
(327,477,cs),
(327,382,l),
(468,382,l),
(468,452,ls),
(468,615,o),
(388,703,o),
(260,703,cs),
(121,703,o),
(48,609,o),
(48,451,cs),
(48,0,l)
);
}
);
width = 504;
}
);
metricLeft = "te-canadian";
metricRight = "=|ce-canadian";
note = uni148B;
unicode = 5259;
},
{
glyphname = "co-canadian";
kernLeft = coleft;
lastChange = "2023-01-13 15:56:33 +0000";
layers = (
{
anchors = (
{
name = middle_center_can;
pos = (250,371);
},
{
name = top_center_can;
pos = (246,690);
},
{
name = top_double;
pos = (384,690);
},
{
name = top_left_can;
pos = (107,690);
},
{
name = top_right_can;
pos = (384,690);
}
);
layerId = "86DE26EB-3058-4E6D-9480-BC9D8886A6AA";
shapes = (
{
closed = 1;
nodes = (
(382,-14,o),
(454,80,o),
(454,239,cs),
(454,690,l),
(312,690,l),
(312,214,ls),
(312,144,o),
(288,110,o),
(245,110,cs),
(200,110,o),
(177,146,o),
(177,213,cs),
(177,308,l),
(36,308,l),
(36,238,ls),
(36,74,o),
(114,-14,o),
(249,-14,cs)
);
}
);
width = 502;
}
);
metricLeft = "ce-canadian";
metricRight = "te-canadian";
note = uni148D;
unicode = 5261;
},
{
glyphname = "ca-canadian";
kernRight = caright;
lastChange = "2023-01-13 15:56:36 +0000";
layers = (
{
anchors = (
{
name = middle_center_can;
pos = (262,371);
},
{
name = top_center_can;
pos = (260,690);
},
{
name = top_left_can;
pos = (121,690);
},
{
name = top_right_can;
pos = (397,690);
}
);
layerId = "86DE26EB-3058-4E6D-9480-BC9D8886A6AA";
shapes = (
{
closed = 1;
nodes = (
(388,-14,o),
(468,74,o),
(468,238,cs),
(468,308,l),
(327,308,l),
(327,213,ls),
(327,146,o),
(303,110,o),
(258,110,cs),
(215,110,o),
(191,144,o),
(191,215,cs),
(191,690,l),
(48,690,l),
(48,239,ls),
(48,80,o),
(121,-14,o),
(257,-14,cs)
);
}
);
width = 504;
}
);
metricLeft = "te-canadian";
metricRight = "=|ce-canadian";
note = uni1490;
unicode = 5264;
},
{
glyphname = "c-canadian";
kernLeft = mwestleft;
kernRight = mwestright;
lastChange = "2023-01-13 15:56:33 +0000";
layers = (
{
layerId = "86DE26EB-3058-4E6D-9480-BC9D8886A6AA";
shapes = (
{
closed = 1;
nodes = (
(239,339,o),
(285,385,o),
(285,467,cs),
(285,490,l),
(198,490,l),
(198,452,ls),
(198,428,o),
(185,412,o),
(167,412,cs),
(147,412,o),
(138,427,o),
(138,454,cs),
(138,690,l),
(43,690,l),
(43,470,ls),
(43,384,o),
(86,339,o),
(165,339,cs)
);
}
);
width = 308;
}
);
note = uni14A1;
unicode = 5281;
},
{
glyphname = "thSayisi-canadian";
lastChange = "2023-01-13 15:56:33 +0000";
layers = (
{
layerId = "86DE26EB-3058-4E6D-9480-BC9D8886A6AA";
shapes = (
{
closed = 1;
nodes = (
(222,339,o),
(265,384,o),
(265,470,cs),
(265,690,l),
(170,690,l),
(170,454,ls),
(170,427,o),
(161,412,o),
(141,412,cs),
(122,412,o),
(110,428,o),
(110,452,cs),
(110,490,l),
(23,490,l),
(23,467,ls),
(23,385,o),
(70,339,o),
(147,339,cs)
);
}
);
width = 308;
}
);
metricLeft = "=|c-canadian";
metricRight = "=|c-canadian";
note = uni14A2;
unicode = 5282;
},
{
glyphname = "me-canadian";
kernLeft = meleft;
lastChange = "2023-01-13 15:56:33 +0000";
layers = (
{
anchors = (
{
name = middle_center_can;
pos = (154,345);
},
{
name = top_center_can;
pos = (228,690);
},
{
name = top_left_can;
pos = (101,690);
},
{
name = top_right_can;
pos = (347,690);
}
);
layerId = "86DE26EB-3058-4E6D-9480-BC9D8886A6AA";
shapes = (
{
closed = 1;
nodes = (
(418,0,l),
(418,690,l),
(31,690,l),
(31,560,l),
(275,560,l),
(275,0,l)
);
}
);
width = 469;
}
);
metricRight = "nunavuth-canadian";
note = uni14A3;
unicode = 5283;
},
{
glyphname = "mi-canadian";
kernRight = miright;
lastChange = "2023-01-13 15:56:36 +0000";
layers = (
{
anchors = (
{
name = middle_center_can;
pos = (317,345);
},
{
name = top_center_can;
pos = (245,690);
},
{
name = top_left_can;
pos = (123,690);
},
{
name = top_right_can;
pos = (368,690);
}
);
layerId = "86DE26EB-3058-4E6D-9480-BC9D8886A6AA";
shapes = (
{
closed = 1;
nodes = (
(193,0,l),
(193,560,l),
(439,560,l),
(439,690,l),
(51,690,l),
(51,0,l)
);
}
);
width = 470;
}
);
metricLeft = "nunavuth-canadian";
metricRight = "=|me-canadian";
note = uni14A5;
unicode = 5285;
},
{
glyphname = "mo-canadian";
kernLeft = moleft;
lastChange = "2023-01-13 15:56:33 +0000";
layers = (
{
anchors = (
{
name = middle_center_can;
pos = (154,345);
},
{
name = top_center_can;
pos = (228,690);
},
{
name = top_double;
pos = (348,690);
},
{
name = top_left_can;
pos = (101,690);
},
{
name = top_right_can;
pos = (347,690);
}
);
layerId = "86DE26EB-3058-4E6D-9480-BC9D8886A6AA";
shapes = (
{
closed = 1;
nodes = (
(418,0,l),
(418,690,l),
(275,690,l),
(275,129,l),
(31,129,l),
(31,0,l)
);
}
);
width = 469;
}
);
metricLeft = "me-canadian";
metricRight = "nunavuth-canadian";
note = uni14A7;
unicode = 5287;
},
{
glyphname = "ma-canadian";
kernRight = maright;
lastChange = "2023-01-13 15:56:36 +0000";
layers = (
{
anchors = (
{
name = middle_center_can;
pos = (317,345);
},
{
name = top_center_can;
pos = (245,690);
},
{
name = top_left_can;
pos = (123,690);
},
{
name = top_right_can;
pos = (367,690);
}
);
layerId = "86DE26EB-3058-4E6D-9480-BC9D8886A6AA";
shapes = (
{
closed = 1;
nodes = (
(439,0,l),
(439,129,l),
(193,129,l),
(193,690,l),
(51,690,l),
(51,0,l)
);
}
);
width = 470;
}
);
metricLeft = "nunavuth-canadian";
metricRight = "=|me-canadian";
note = uni14AA;
unicode = 5290;
},
{
glyphname = "m-canadian";
kernLeft = mwestleft;
kernRight = mwestright;
lastChange = "2023-01-13 15:56:33 +0000";
layers = (
{
layerId = "86DE26EB-3058-4E6D-9480-BC9D8886A6AA";
shapes = (
{
closed = 1;
nodes = (
(257,434,l),
(138,434,l),
(138,690,l),
(43,690,l),
(43,345,l),
(257,345,l)
);
}
);
width = 284;
}
);
metricLeft = "pWestCree-canadian";
note = uni14BB;
unicode = 5307;
},
{
glyphname = "mh-canadian";
kernLeft = mwestleft;
kernRight = mwestright;
lastChange = "2023-01-13 15:56:33 +0000";
layers = (
{
layerId = "86DE26EB-3058-4E6D-9480-BC9D8886A6AA";
shapes = (
{
closed = 1;
nodes = (
(240,345,l),
(240,690,l),
(146,690,l),
(146,434,l),
(27,434,l),
(27,345,l)
);
}
);
width = 283;
}
);
metricLeft = "=|m-canadian";
metricRight = "=|m-canadian";
note = uni14BD;
unicode = 5309;
},
{
glyphname = "mAthapascan-canadian";
lastChange = "2023-01-13 15:56:33 +0000";
layers = (
{
layerId = "86DE26EB-3058-4E6D-9480-BC9D8886A6AA";
shapes = (
{
closed = 1;
nodes = (
(264,345,l),
(264,424,l),
(136,424,l),
(139,385,l),
(213,474,ls),
(244,514,o),
(259,554,o),
(259,589,cs),
(259,647,o),
(227,696,o),
(152,696,cs),
(74,696,o),
(35,644,o),
(34,570,c),
(118,570,l),
(118,614,o),
(128,629,o),
(149,629,cs),
(166,629,o),
(175,615,o),
(175,588,cs),
(175,563,o),
(170,542,o),
(137,502,cs),
(46,395,l),
(46,345,l)
);
}
);
width = 298;
}
);
note = uni14BE;
unicode = 5310;
},
{
glyphname = "ne-canadian";
kernLeft = neleft;
lastChange = "2023-01-13 15:56:33 +0000";
layers = (
{
anchors = (
{
name = middle_center_can;
pos = (430,245);
},
{
name = top_center_can;
pos = (414,508);
},
{
name = top_left_can;
pos = (108,508);
},
{
name = top_right_can;
pos = (576,508);
}
);
layerId = "86DE26EB-3058-4E6D-9480-BC9D8886A6AA";
shapes = (
{
closed = 1;
nodes = (
(557,-14,o),
(645,72,o),
(645,238,cs),
(645,405,o),
(560,489,o),
(410,489,cs),
(37,489,l),
(37,361,l),
(273,361,l),
(263,394,l),
(232,358,o),
(215,295,o),
(215,231,cs),
(215,71,o),
(298,-14,o),
(430,-14,cs)
);
},
{
closed = 1;
nodes = (
(383,106,o),
(355,147,o),
(355,238,cs),
(355,327,o),
(383,369,o),
(430,369,cs),
(477,369,o),
(506,329,o),
(506,238,cs),
(506,147,o),
(478,106,o),
(430,106,cs)
);
}
);
width = 684;
}
);
metricRight = "=|ke-canadian";
note = uni14C0;
unicode = 5312;
},
{
glyphname = "ni-canadian";
kernRight = niright;
lastChange = "2023-01-13 15:56:33 +0000";
layers = (
{
anchors = (
{
name = middle_center_can;
pos = (256,245);
},
{
name = top_center_can;
pos = (273,508);
},
{
name = top_left_can;
pos = (108,508);
},
{
name = top_right_can;
pos = (576,508);
}
);
layerId = "86DE26EB-3058-4E6D-9480-BC9D8886A6AA";
shapes = (
{
closed = 1;
nodes = (
(385,-14,o),
(469,71,o),
(469,231,cs),
(469,295,o),
(451,358,o),
(420,394,c),
(410,361,l),
(646,361,l),
(646,489,l),
(274,489,ls),
(124,489,o),
(39,399,o),
(39,235,cs),
(39,71,o),
(126,-14,o),
(254,-14,cs)
);
},
{
closed = 1;
nodes = (
(206,106,o),
(178,147,o),
(178,239,cs),
(178,330,o),
(207,371,o),
(254,371,cs),
(301,371,o),
(329,328,o),
(329,239,cs),
(329,147,o),
(301,106,o),
(254,106,cs)
);
}
);
width = 683;
}
);
metricLeft = "ke-canadian";
metricRight = "=|ne-canadian";
note = uni14C2;
unicode = 5314;
},
{
glyphname = "no-canadian";
kernLeft = noleft;
lastChange = "2023-01-13 15:56:33 +0000";
layers = (
{
anchors = (
{
name = middle_center_can;
pos = (428,245);
},
{
name = top_center_can;
pos = (428,508);
},
{
name = top_double;
pos = (430,508);
},
{
name = top_left_can;
pos = (108,508);
},
{
name = top_right_can;
pos = (576,508);
}
);
layerId = "86DE26EB-3058-4E6D-9480-BC9D8886A6AA";
shapes = (
{
closed = 1;
nodes = (
(412,0,ls),
(560,0,o),
(645,85,o),
(645,251,cs),
(645,416,o),
(558,503,o),
(430,503,cs),
(298,503,o),
(215,416,o),
(215,258,cs),
(215,195,o),
(232,131,o),
(264,96,c),
(273,128,l),
(37,128,l),
(37,0,l)
);
},
{
closed = 1;
nodes = (
(383,119,o),
(355,161,o),
(355,250,cs),
(355,342,o),
(383,383,o),
(430,383,cs),
(478,383,o),
(506,343,o),
(506,250,cs),
(506,158,o),
(477,119,o),
(430,119,cs)
);
}
);
width = 684;
}
);
metricLeft = "ne-canadian";
metricRight = "=|ke-canadian";
note = uni14C4;
unicode = 5316;
},
{
glyphname = "na-canadian";
kernRight = naright;
lastChange = "2023-01-13 15:56:33 +0000";
layers = (
{
anchors = (
{
name = middle_center_can;
pos = (256,245);
},
{
name = top_center_can;
pos = (255,508);
},
{
name = top_double;
pos = (412,508);
},
{
name = top_left_can;
pos = (108,508);
},
{
name = top_right_can;
pos = (576,508);
}
);
layerId = "86DE26EB-3058-4E6D-9480-BC9D8886A6AA";
shapes = (
{
closed = 1;
nodes = (
(646,0,l),
(646,128,l),
(410,128,l),
(420,95,l),
(451,130,o),
(469,194,o),
(469,258,cs),
(469,417,o),
(385,503,o),
(254,503,cs),
(126,503,o),
(39,416,o),
(39,251,cs),
(39,86,o),
(123,0,o),
(273,0,cs)
);
},
{
closed = 1;
nodes = (
(207,119,o),
(178,158,o),
(178,250,cs),
(178,343,o),
(206,383,o),
(254,383,cs),
(301,383,o),
(329,342,o),
(329,250,cs),
(329,161,o),
(301,119,o),
(254,119,cs)
);
}
);
width = 683;
}
);
metricLeft = "ke-canadian";
metricRight = "=|ne-canadian";
note = uni14C7;
unicode = 5319;
},
{
glyphname = "n-canadian";
kernLeft = mwestleft;
kernRight = mwestright;
lastChange = "2023-01-13 15:56:33 +0000";
layers = (
{
layerId = "86DE26EB-3058-4E6D-9480-BC9D8886A6AA";
shapes = (
{
closed = 1;
nodes = (
(364,434,l),
(364,524,l),
(234,524,l),
(239,482,l),
(255,494,o),
(269,528,o),
(269,570,cs),
(269,647,o),
(227,696,o),
(152,696,cs),
(77,696,o),
(34,645,o),
(34,565,cs),
(34,486,o),
(77,434,o),
(156,434,cs)
);
},
{
closed = 1;
nodes = (
(130,502,o),
(117,521,o),
(117,565,cs),
(117,610,o),
(130,627,o),
(152,627,cs),
(173,627,o),
(185,608,o),
(185,564,cs),
(185,522,o),
(173,502,o),
(152,502,cs)
);
}
);
width = 392;
}
);
metricLeft = "=|k-canadian";
note = uni14D0;
unicode = 5328;
},
{
glyphname = "nh-canadian";
kernLeft = mwestleft;
kernRight = mwestright;
lastChange = "2023-01-13 15:56:33 +0000";
layers = (
{
layerId = "86DE26EB-3058-4E6D-9480-BC9D8886A6AA";
shapes = (
{
closed = 1;
nodes = (
(236,434,ls),
(314,434,o),
(358,486,o),
(358,565,cs),
(358,645,o),
(315,696,o),
(241,696,cs),
(164,696,o),
(124,647,o),
(124,570,cs),
(124,528,o),
(137,494,o),
(154,482,c),
(158,524,l),
(28,524,l),
(28,434,l)
);
},
{
closed = 1;
nodes = (
(219,502,o),
(207,522,o),
(207,564,cs),
(207,608,o),
(219,627,o),
(241,627,cs),
(262,627,o),
(274,610,o),
(274,565,cs),
(274,521,o),
(262,502,o),
(241,502,cs)
);
}
);
width = 392;
}
);
metricLeft = "=|n-canadian";
metricRight = "=|n-canadian";
note = uni14D2;
unicode = 5330;
},
{
glyphname = "le-canadian";
kernLeft = neleft;
lastChange = "2023-01-13 15:56:33 +0000";
layers = (
{
anchors = (
{
name = middle_center_can;
pos = (429,245);
},
{
name = top_center_can;
pos = (416,508);
},
{
name = top_left_can;
pos = (108,508);
},
{
name = top_right_can;
pos = (576,508);
}
);
layerId = "86DE26EB-3058-4E6D-9480-BC9D8886A6AA";
shapes = (
{
closed = 1;
nodes = (
(399,0,ls),
(551,0,o),
(645,85,o),
(645,244,cs),
(645,404,o),
(555,489,o),
(399,489,cs),
(37,489,l),
(37,360,l),
(391,360,ls),
(464,360,o),
(504,322,o),
(504,242,cs),
(504,164,o),
(464,125,o),
(387,125,cs),
(364,125,l),
(364,0,l)
);
}
);
width = 684;
}
);
metricLeft = "ne-canadian";
metricRight = "=|ke-canadian";
note = uni14D3;
unicode = 5331;
},
{
glyphname = "li-canadian";
kernRight = niright;
lastChange = "2023-01-13 15:56:33 +0000";
layers = (
{
anchors = (
{
name = middle_center_can;
pos = (256,245);
},
{
name = top_center_can;
pos = (273,508);
},
{
name = top_left_can;
pos = (109,508);
},
{
name = top_right_can;
pos = (576,508);
}
);
layerId = "86DE26EB-3058-4E6D-9480-BC9D8886A6AA";
shapes = (
{
closed = 1;
nodes = (
(320,0,l),
(320,125,l),
(297,125,ls),
(219,125,o),
(180,164,o),
(180,242,cs),
(180,321,o),
(218,360,o),
(293,360,cs),
(646,360,l),
(646,489,l),
(285,489,ls),
(135,489,o),
(39,404,o),
(39,244,cs),
(39,85,o),
(133,0,o),
(285,0,cs)
);
}
);
width = 683;
}
);
metricLeft = "ke-canadian";
metricRight = "=|ne-canadian";
note = uni14D5;
unicode = 5333;
},
{
glyphname = "lo-canadian";
kernLeft = noleft;
lastChange = "2023-01-13 15:56:33 +0000";
layers = (
{
anchors = (
{
name = middle_center_can;
pos = (428,245);
},
{
name = top_center_can;
pos = (428,508);
},
{
name = top_double;
pos = (400,508);
},
{
name = top_left_can;
pos = (108,508);
},
{
name = top_right_can;
pos = (576,508);
}
);
layerId = "86DE26EB-3058-4E6D-9480-BC9D8886A6AA";
shapes = (
{
closed = 1;
nodes = (
(399,0,ls),
(549,0,o),
(645,85,o),
(645,244,cs),
(645,405,o),
(551,489,o),
(400,489,cs),
(364,489,l),
(364,364,l),
(387,364,ls),
(465,364,o),
(504,326,o),
(504,247,cs),
(504,168,o),
(465,128,o),
(391,128,cs),
(37,128,l),
(37,0,l)
);
}
);
width = 684;
}
);
metricLeft = "ne-canadian";
metricRight = "=|ke-canadian";
note = uni14D7;
unicode = 5335;
},
{
glyphname = "la-canadian";
kernRight = naright;
lastChange = "2023-01-13 15:56:33 +0000";
layers = (
{
anchors = (
{
name = middle_center_can;
pos = (256,245);
},
{
name = top_center_can;
pos = (255,508);
},
{
name = top_left_can;
pos = (109,508);
},
{
name = top_right_can;
pos = (576,508);
}
);
layerId = "86DE26EB-3058-4E6D-9480-BC9D8886A6AA";
shapes = (
{
closed = 1;
nodes = (
(646,0,l),
(646,128,l),
(293,128,ls),
(219,128,o),
(180,168,o),
(180,246,cs),
(180,325,o),
(219,364,o),
(296,364,cs),
(320,364,l),
(320,489,l),
(284,489,ls),
(132,489,o),
(39,403,o),
(39,244,cs),
(39,85,o),
(135,0,o),
(285,0,cs)
);
}
);
width = 683;
}
);
metricLeft = "ke-canadian";
metricRight = "=|ne-canadian";
note = uni14DA;
unicode = 5338;
},
{
glyphname = "l-canadian";
kernLeft = mwestleft;
kernRight = mwestright;
lastChange = "2023-01-13 15:56:33 +0000";
layers = (
{
layerId = "86DE26EB-3058-4E6D-9480-BC9D8886A6AA";
shapes = (
{
closed = 1;
nodes = (
(351,345,l),
(351,434,l),
(216,434,ls),
(162,434,o),
(133,463,o),
(133,517,cs),
(133,571,o),
(162,602,o),
(212,602,cs),
(219,602,l),
(219,690,l),
(205,690,ls),
(100,690,o),
(40,622,o),
(40,517,cs),
(40,412,o),
(100,345,o),
(207,345,cs)
);
}
);
width = 378;
}
);
metricLeft = "t-canadian";
metricRight = "m-canadian";
note = uni14EA;
unicode = 5354;
},
{
glyphname = "lWestCree-canadian";
kernLeft = mwestleft;
kernRight = mwestright;
lastChange = "2023-01-13 15:56:36 +0000";
layers = (
{
layerId = "86DE26EB-3058-4E6D-9480-BC9D8886A6AA";
shapes = (
{
closed = 1;
nodes = (
(246,345,l),
(246,409,l),
(109,476,l),
(109,429,l),
(246,497,l),
(246,538,l),
(109,608,l),
(109,558,l),
(246,625,l),
(246,690,l),
(231,690,l),
(43,598,l),
(43,567,l),
(182,499,l),
(182,534,l),
(43,467,l),
(43,436,l),
(231,345,l)
);
}
);
width = 289;
}
);
metricRight = "=|";
note = uni14EB;
unicode = 5355;
},
{
glyphname = "mediall-canadian";
lastChange = "2023-01-13 15:56:36 +0000";
layers = (
{
layerId = "86DE26EB-3058-4E6D-9480-BC9D8886A6AA";
shapes = (
{
closed = 1;
nodes = (
(469,-14,l),
(469,93,l),
(174,238,l),
(174,174,l),
(469,316,l),
(469,374,l),
(174,516,l),
(174,452,l),
(469,597,l),
(469,703,l),
(437,703,l),
(47,513,l),
(47,462,l),
(343,319,l),
(343,371,l),
(47,228,l),
(47,177,l),
(437,-14,l)
);
}
);
width = 516;
}
);
metricRight = "=|";
note = uni14EC;
unicode = 5356;
},
{
glyphname = "se-canadian";
kernRight = seright;
lastChange = "2023-01-13 15:56:33 +0000";
layers = (
{
anchors = (
{
name = top_left_can;
pos = (123,690);
},
{
name = top_right_can;
pos = (350,690);
}
);
layerId = "86DE26EB-3058-4E6D-9480-BC9D8886A6AA";
shapes = (
{
closed = 1;
nodes = (
(420,0,l),
(420,359,l),
(384,359,ls),
(257,359,o),
(193,409,o),
(193,571,cs),
(193,690,l),
(51,690,l),
(51,561,ls),
(51,340,o),
(158,232,o),
(354,232,cs),
(386,232,l),
(277,276,l),
(277,0,l)
);
}
);
width = 472;
}
);
note = uni14ED;
unicode = 5357;
},
{
glyphname = "si-canadian";
kernLeft = sileft;
lastChange = "2023-01-13 15:56:33 +0000";
layers = (
{
anchors = (
{
name = top_left_can;
pos = (124,690);
},
{
name = top_right_can;
pos = (350,690);
}
);
layerId = "86DE26EB-3058-4E6D-9480-BC9D8886A6AA";
shapes = (
{
closed = 1;
nodes = (
(194,0,l),
(194,276,l),
(86,232,l),
(119,232,ls),
(314,232,o),
(421,340,o),
(421,561,cs),
(421,690,l),
(278,690,l),
(278,571,ls),
(278,409,o),
(215,359,o),
(89,359,cs),
(52,359,l),
(52,0,l)
);
}
);
width = 472;
}
);
metricLeft = "=|se-canadian";
metricRight = "=|se-canadian";
note = uni14EF;
unicode = 5359;
},
{
glyphname = "so-canadian";
kernRight = soright;
lastChange = "2023-01-13 15:56:33 +0000";
layers = (
{
anchors = (
{
name = top_double;
pos = (350,690);
},
{
name = top_left_can;
pos = (123,690);
},
{
name = top_right_can;
pos = (349,690);
}
);
layerId = "86DE26EB-3058-4E6D-9480-BC9D8886A6AA";
shapes = (
{
closed = 1;
nodes = (
(193,0,l),
(193,119,ls),
(193,281,o),
(257,330,o),
(384,330,cs),
(420,330,l),
(420,690,l),
(277,690,l),
(277,413,l),
(386,458,l),
(354,458,ls),
(158,458,o),
(51,350,o),
(51,128,cs),
(51,0,l)
);
}
);
width = 472;
}
);
metricLeft = "se-canadian";
metricRight = "se-canadian";
note = uni14F1;
unicode = 5361;
},
{
glyphname = "sa-canadian";
kernLeft = saleft;
kernRight = saright;
lastChange = "2023-01-13 15:56:33 +0000";
layers = (
{
anchors = (
{
name = top_left_can;
pos = (124,690);
},
{
name = top_right_can;
pos = (350,690);
}
);
layerId = "86DE26EB-3058-4E6D-9480-BC9D8886A6AA";
shapes = (
{
closed = 1;
nodes = (
(421,0,l),
(421,128,ls),
(421,350,o),
(314,458,o),
(119,458,cs),
(86,458,l),
(194,413,l),
(194,690,l),
(52,690,l),
(52,330,l),
(89,330,ls),
(215,330,o),
(278,281,o),
(278,119,cs),
(278,0,l)
);
}
);
width = 472;
}
);
metricLeft = "=|se-canadian";
metricRight = "=|se-canadian";
note = uni14F4;
unicode = 5364;
},
{
glyphname = "s-canadian";
kernLeft = mwestleft;
kernRight = mwestright;
lastChange = "2023-01-13 15:56:33 +0000";
layers = (
{
layerId = "86DE26EB-3058-4E6D-9480-BC9D8886A6AA";
shapes = (
{
closed = 1;
nodes = (
(259,345,l),
(259,416,ls),
(259,526,o),
(201,584,o),
(112,584,cs),
(75,584,l),
(138,549,l),
(138,690,l),
(43,690,l),
(43,511,l),
(72,511,ls),
(136,511,o),
(164,482,o),
(164,412,cs),
(164,345,l)
);
}
);
width = 302;
}
);
metricRight = "=|";
note = uni1505;
unicode = 5381;
},
{
color = 6;
glyphname = "sAthapascan-canadian";
lastChange = "2023-01-13 15:56:33 +0000";
layers = (
{
layerId = "86DE26EB-3058-4E6D-9480-BC9D8886A6AA";
shapes = (
{
closed = 1;
nodes = (
(244,177,o),
(289,221,o),
(289,280,cs),
(289,323,o),
(267,355,o),
(215,376,cs),
(164,395,ls),
(142,405,o),
(133,414,o),
(133,433,cs),
(133,453,o),
(145,465,o),
(167,465,cs),
(188,465,o),
(203,456,o),
(203,418,c),
(288,418,l),
(288,494,o),
(242,533,o),
(167,533,cs),
(96,533,o),
(47,491,o),
(47,431,cs),
(47,386,o),
(70,352,o),
(118,333,cs),
(170,314,ls),
(193,304,o),
(204,294,o),
(204,275,cs),
(204,255,o),
(189,245,o),
(169,245,cs),
(143,245,o),
(128,257,o),
(128,293,c),
(43,293,l),
(43,217,o),
(90,177,o),
(167,177,cs)
);
}
);
width = 332;
}
);
metricRight = "=|";
note = uni1506;
unicode = 5382;
},
{
glyphname = "sw-canadian";
kernLeft = mwestleft;
kernRight = mwestright;
lastChange = "2023-01-13 15:56:33 +0000";
layers = (
{
layerId = "86DE26EB-3058-4E6D-9480-BC9D8886A6AA";
shapes = (
{
closed = 1;
nodes = (
(138,345,l),
(138,412,ls),
(138,482,o),
(166,511,o),
(230,511,cs),
(259,511,l),
(259,690,l),
(164,690,l),
(164,549,l),
(227,584,l),
(190,584,ls),
(101,584,o),
(43,526,o),
(43,416,cs),
(43,345,l)
);
}
);
width = 302;
}
);
metricLeft = "=|s-canadian";
metricRight = "=|s-canadian";
note = uni1507;
unicode = 5383;
},
{
glyphname = "sBlackfoot-canadian";
lastChange = "2023-01-13 15:56:33 +0000";
layers = (
{
layerId = "86DE26EB-3058-4E6D-9480-BC9D8886A6AA";
shapes = (
{
closed = 1;
nodes = (
(266,345,l),
(266,434,l),
(195,434,ls),
(153,434,o),
(138,450,o),
(138,497,cs),
(138,690,l),
(43,690,l),
(43,481,ls),
(43,392,o),
(91,345,o),
(179,345,c)
);
}
);
width = 293;
}
);
metricLeft = "ai-canadian";
metricRight = "m-canadian";
note = uni1508;
unicode = 5384;
},
{
glyphname = "moosecreesk-canadian";
kernLeft = mwestleft;
kernRight = mwestright;
lastChange = "2023-01-13 15:56:33 +0000";
layers = (
{
layerId = "86DE26EB-3058-4E6D-9480-BC9D8886A6AA";
shapes = (
{
closed = 1;
nodes = (
(232,217,o),
(283,265,o),
(283,373,cs),
(283,513,o),
(223,585,o),
(112,585,cs),
(91,585,l),
(138,550,l),
(138,690,l),
(44,690,l),
(44,512,l),
(80,512,ls),
(161,512,o),
(182,487,o),
(188,429,c),
(212,426,l),
(204,452,o),
(183,476,o),
(151,476,cs),
(86,476,o),
(44,426,o),
(44,349,cs),
(44,261,o),
(99,217,o),
(162,217,cs)
);
},
{
closed = 1;
nodes = (
(143,285,o),
(128,302,o),
(128,348,cs),
(128,394,o),
(144,412,o),
(163,412,cs),
(183,412,o),
(197,394,o),
(197,348,cs),
(197,301,o),
(184,285,o),
(163,285,cs)
);
}
);
width = 327;
}
);
metricRight = "=|";
note = uni1509;
unicode = 5385;
},
{
glyphname = "skwNaskapi-canadian";
kernLeft = mwestleft;
kernRight = mwestright;
lastChange = "2023-01-13 15:56:33 +0000";
layers = (
{
layerId = "86DE26EB-3058-4E6D-9480-BC9D8886A6AA";
shapes = (
{
closed = 1;
nodes = (
(228,217,o),
(282,261,o),
(282,349,cs),
(282,426,o),
(241,476,o),
(177,476,cs),
(145,476,o),
(123,452,o),
(116,426,c),
(139,429,l),
(146,487,o),
(166,512,o),
(247,512,cs),
(283,512,l),
(283,690,l),
(188,690,l),
(188,550,l),
(236,585,l),
(215,585,ls),
(104,585,o),
(44,513,o),
(44,373,cs),
(44,265,o),
(96,217,o),
(165,217,cs)
);
},
{
closed = 1;
nodes = (
(144,285,o),
(130,301,o),
(130,348,cs),
(130,394,o),
(145,412,o),
(164,412,cs),
(184,412,o),
(199,394,o),
(199,348,cs),
(199,302,o),
(184,285,o),
(164,285,cs)
);
}
);
width = 327;
}
);
metricLeft = "=|moosecreesk-canadian";
metricRight = "=|moosecreesk-canadian";
note = uni150A;
unicode = 5386;
},
{
glyphname = "swNaskapi-canadian";
lastChange = "2023-01-13 15:56:36 +0000";
layers = (
{
layerId = "86DE26EB-3058-4E6D-9480-BC9D8886A6AA";
shapes = (
{
closed = 1;
nodes = (
(276,188,l),
(276,244,ls),
(276,348,o),
(218,411,o),
(130,411,cs),
(95,411,l),
(147,376,l),
(147,501,l),
(53,501,l),
(53,337,l),
(96,337,ls),
(154,337,o),
(182,309,o),
(182,241,cs),
(182,188,l)
);
},
{
closed = 1;
nodes = (
(267,14,o),
(296,44,o),
(296,82,cs),
(296,120,o),
(266,150,o),
(229,150,cs),
(192,150,o),
(162,120,o),
(162,82,cs),
(162,44,o),
(191,14,o),
(229,14,cs)
);
},
{
closed = 1;
nodes = (
(136,540,o),
(167,570,o),
(167,608,cs),
(167,645,o),
(137,677,o),
(99,677,cs),
(63,677,o),
(33,645,o),
(33,608,cs),
(33,570,o),
(63,540,o),
(99,540,cs)
);
}
);
width = 329;
}
);
metricRight = "=|";
note = uni150B;
unicode = 5387;
},
{
glyphname = "spwaNaskapi-canadian";
lastChange = "2023-01-13 15:56:33 +0000";
layers = (
{
layerId = "86DE26EB-3058-4E6D-9480-BC9D8886A6AA";
shapes = (
{
closed = 1;
nodes = (
(519,0,l),
(519,133,l),
(173,376,l),
(173,312,l),
(519,554,l),
(519,690,l),
(486,690,l),
(26,367,l),
(26,323,l),
(486,0,l)
);
},
{
closed = 1;
nodes = (
(145,505,o),
(176,535,o),
(176,573,cs),
(176,611,o),
(145,641,o),
(108,641,cs),
(71,641,o),
(42,611,o),
(42,573,cs),
(42,535,o),
(71,505,o),
(108,505,cs)
);
},
{
closed = 1;
nodes = (
(316,614,l),
(316,668,ls),
(316,748,o),
(276,793,o),
(198,793,cs),
(168,793,l),
(236,763,l),
(236,866,l),
(146,866,l),
(146,725,l),
(166,725,ls),
(201,725,o),
(226,708,o),
(226,658,cs),
(226,614,l)
);
},
{
closed = 1;
nodes = (
(447,713,o),
(478,744,o),
(478,781,cs),
(478,818,o),
(447,849,o),
(412,849,cs),
(375,849,o),
(345,818,o),
(345,781,cs),
(345,744,o),
(375,713,o),
(412,713,cs)
);
}
);
width = 554;
}
);
metricRight = "pa-canadian";
metricWidth = "pa-canadian";
note = uni150C;
unicode = 5388;
},
{
glyphname = "she-canadian";
kernRight = caright;
lastChange = "2023-01-13 15:56:33 +0000";
layers = (
{
anchors = (
{
name = top_left_can;
pos = (246,690);
},
{
name = top_right_can;
pos = (610,690);
}
);
layerId = "86DE26EB-3058-4E6D-9480-BC9D8886A6AA";
shapes = (
{
closed = 1;
nodes = (
(634,-14,o),
(712,72,o),
(712,240,cs),
(712,308,l),
(571,308,l),
(571,215,ls),
(571,144,o),
(550,110,o),
(512,110,cs),
(472,110,o),
(453,142,o),
(449,218,cs),
(440,474,ls),
(434,617,o),
(377,703,o),
(245,703,cs),
(116,703,o),
(37,617,o),
(37,450,cs),
(37,382,l),
(178,382,l),
(178,475,ls),
(178,546,o),
(200,580,o),
(238,580,cs),
(277,580,o),
(297,548,o),
(299,472,cs),
(310,215,ls),
(316,72,o),
(371,-14,o),
(505,-14,cs)
);
}
);
width = 749;
}
);
metricRight = "=|";
note = uni1510;
unicode = 5392;
},
{
glyphname = "shi-canadian";
kernLeft = coleft;
lastChange = "2023-01-13 15:56:33 +0000";
layers = (
{
anchors = (
{
name = top_left_can;
pos = (141,690);
},
{
name = top_right_can;
pos = (504,690);
}
);
layerId = "86DE26EB-3058-4E6D-9480-BC9D8886A6AA";
shapes = (
{
closed = 1;
nodes = (
(378,-14,o),
(434,72,o),
(440,215,cs),
(449,472,ls),
(453,548,o),
(472,580,o),
(512,580,cs),
(549,580,o),
(571,546,o),
(571,475,cs),
(571,382,l),
(712,382,l),
(712,450,ls),
(712,617,o),
(634,703,o),
(504,703,cs),
(372,703,o),
(316,617,o),
(310,474,cs),
(299,218,ls),
(297,142,o),
(277,110,o),
(237,110,cs),
(200,110,o),
(178,144,o),
(178,215,cs),
(178,308,l),
(37,308,l),
(37,240,ls),
(37,72,o),
(115,-14,o),
(243,-14,cs)
);
}
);
width = 749;
}
);
metricLeft = "she-canadian";
metricRight = "she-canadian";
note = uni1511;
unicode = 5393;
},
{
glyphname = "sho-canadian";
lastChange = "2023-01-13 15:56:33 +0000";
layers = (
{
anchors = (
{
name = top_center_can;
pos = (384,508);
},
{
name = top_left_can;
pos = (247,508);
},
{
name = top_right_can;
pos = (523,508);
}
);
layerId = "86DE26EB-3058-4E6D-9480-BC9D8886A6AA";
shapes = (
{
closed = 1;
nodes = (
(319,108,l),
(231,106,o),
(179,137,o),
(179,193,cs),
(179,232,o),
(201,255,o),
(239,255,cs),
(324,255,o),
(407,107,o),
(553,107,cs),
(662,107,o),
(730,183,o),
(730,290,cs),
(730,424,o),
(625,506,o),
(454,503,c),
(450,381,l),
(539,383,o),
(591,353,o),
(591,296,cs),
(591,257,o),
(568,234,o),
(530,234,cs),
(445,234,o),
(362,383,o),
(216,383,cs),
(108,383,o),
(39,306,o),
(39,199,cs),
(39,66,o),
(144,-16,o),
(315,-14,c)
);
}
);
width = 769;
}
);
metricLeft = "ke-canadian";
metricRight = "=|ke-canadian";
note = uni1513;
unicode = 5395;
},
{
glyphname = "sha-canadian";
lastChange = "2023-01-13 15:56:33 +0000";
layers = (
{
anchors = (
{
name = top_center_can;
pos = (385,508);
},
{
name = top_left_can;
pos = (247,508);
},
{
name = top_right_can;
pos = (523,508);
}
);
layerId = "86DE26EB-3058-4E6D-9480-BC9D8886A6AA";
shapes = (
{
closed = 1;
nodes = (
(625,-17,o),
(730,66,o),
(730,198,cs),
(730,306,o),
(662,383,o),
(553,383,cs),
(407,383,o),
(324,234,o),
(239,234,cs),
(201,234,o),
(179,257,o),
(179,296,cs),
(179,353,o),
(231,384,o),
(319,381,c),
(315,503,l),
(144,506,o),
(39,424,o),
(39,291,cs),
(39,183,o),
(107,107,o),
(216,107,cs),
(362,107,o),
(445,255,o),
(530,255,cs),
(568,255,o),
(591,232,o),
(591,193,cs),
(591,137,o),
(539,105,o),
(450,108,c),
(454,-14,l)
);
}
);
width = 769;
}
);
metricLeft = "ke-canadian";
metricRight = "=|ke-canadian";
note = uni1515;
unicode = 5397;
},
{
glyphname = "sh-canadian";
kernLeft = mwestleft;
kernRight = mwestright;
lastChange = "2023-01-13 15:56:36 +0000";
layers = (
{
layerId = "86DE26EB-3058-4E6D-9480-BC9D8886A6AA";
shapes = (
{
closed = 1;
nodes = (
(469,285,o),
(552,343,o),
(552,443,cs),
(552,529,o),
(497,587,o),
(413,587,cs),
(312,587,o),
(251,491,o),
(187,491,cs),
(154,491,o),
(137,509,o),
(137,541,cs),
(137,584,o),
(177,611,o),
(249,611,c),
(246,698,l),
(123,698,o),
(40,641,o),
(40,540,cs),
(40,455,o),
(95,397,o),
(178,397,cs),
(279,397,o),
(340,494,o),
(404,494,cs),
(438,494,o),
(454,475,o),
(454,442,cs),
(454,399,o),
(414,373,o),
(342,373,c),
(345,285,l)
);
}
);
width = 592;
}
);
metricLeft = "t-canadian";
metricRight = "=|";
note = uni1525;
unicode = 5413;
},
{
glyphname = "ye-canadian";
kernLeft = yeleft;
lastChange = "2023-01-13 15:56:33 +0000";
layers = (
{
anchors = (
{
name = middle_right_can;
pos = (559,345);
},
{
name = top_left_can;
pos = (97,690);
},
{
name = top_right_can;
pos = (371,690);
}
);
layerId = "86DE26EB-3058-4E6D-9480-BC9D8886A6AA";
shapes = (
{
closed = 1;
nodes = (
(441,0,l),
(441,345,l),
(208,345,l),
(216,300,l),
(466,622,l),
(364,701,l),
(26,258,l),
(26,221,l),
(299,221,l),
(299,0,l)
);
}
);
width = 493;
}
);
note = uni1526;
unicode = 5414;
},
{
glyphname = "yi-canadian";
kernRight = yiright;
lastChange = "2023-01-13 15:56:33 +0000";
layers = (
{
anchors = (
{
name = top_left_can;
pos = (123,690);
},
{
name = top_right_can;
pos = (396,690);
}
);
layerId = "86DE26EB-3058-4E6D-9480-BC9D8886A6AA";
shapes = (
{
closed = 1;
nodes = (
(193,0,l),
(193,221,l),
(467,221,l),
(467,258,l),
(128,701,l),
(27,622,l),
(276,300,l),
(285,345,l),
(51,345,l),
(51,0,l)
);
}
);
width = 493;
}
);
metricRight = "=|ye-canadian";
metricWidth = "ye-canadian";
note = uni1528;
unicode = 5416;
},
{
glyphname = "yo-canadian";
kernLeft = yoleft;
lastChange = "2023-01-13 15:56:33 +0000";
layers = (
{
anchors = (
{
name = middle_right_can;
pos = (559,345);
},
{
name = top_double;
pos = (371,690);
},
{
name = top_left_can;
pos = (97,690);
},
{
name = top_right_can;
pos = (371,690);
}
);
layerId = "86DE26EB-3058-4E6D-9480-BC9D8886A6AA";
shapes = (
{
closed = 1;
nodes = (
(466,68,l),
(216,389,l),
(208,345,l),
(441,345,l),
(441,690,l),
(299,690,l),
(299,469,l),
(26,469,l),
(26,432,l),
(364,-12,l)
);
}
);
width = 493;
}
);
metricLeft = "ye-canadian";
metricWidth = "ye-canadian";
note = uni152A;
unicode = 5418;
},
{
glyphname = "ya-canadian";
kernRight = yaright;
lastChange = "2023-01-13 15:56:33 +0000";
layers = (
{
anchors = (
{
name = top_left_can;
pos = (123,690);
},
{
name = top_right_can;
pos = (396,690);
}
);
layerId = "86DE26EB-3058-4E6D-9480-BC9D8886A6AA";
shapes = (
{
closed = 1;
nodes = (
(467,432,l),
(467,469,l),
(193,469,l),
(193,690,l),
(51,690,l),
(51,345,l),
(285,345,l),
(276,389,l),
(27,68,l),
(128,-12,l)
);
}
);
width = 493;
}
);
metricRight = "=|ye-canadian";
metricWidth = "ye-canadian";
note = uni152D;
unicode = 5421;
},
{
glyphname = "y-canadian";
kernLeft = mwestleft;
kernRight = mwestright;
lastChange = "2023-01-13 15:56:33 +0000";
layers = (
{
layerId = "86DE26EB-3058-4E6D-9480-BC9D8886A6AA";
shapes = (
{
closed = 1;
nodes = (
(271,554,l),
(271,580,l),
(142,580,l),
(142,690,l),
(48,690,l),
(48,501,l),
(172,501,l),
(171,558,l),
(43,384,l),
(113,336,l)
);
}
);
width = 292;
}
);
note = uni153E;
unicode = 5438;
},
{
glyphname = "biblecreey-canadian";
lastChange = "2023-01-13 15:56:33 +0000";
layers = (
{
layerId = "86DE26EB-3058-4E6D-9480-BC9D8886A6AA";
shapes = (
{
closed = 1;
nodes = (
(168,592,l),
(119,592,l),
(196,345,l),
(252,345,l),
(330,592,l),
(280,592,l),
(330,345,l),
(414,345,l),
(414,367,l),
(348,690,l),
(279,690,l),
(196,426,l),
(252,426,l),
(169,690,l),
(100,690,l),
(34,367,l),
(34,345,l),
(119,345,l)
);
}
);
width = 448;
}
);
metricRight = "=|";
note = uni153F;
unicode = 5439;
},
{
glyphname = "yWestCree-canadian";
lastChange = "2023-01-13 15:56:33 +0000";
layers = (
{
layerId = "86DE26EB-3058-4E6D-9480-BC9D8886A6AA";
shapes = (
{
closed = 1;
nodes = (
(228,204,l),
(228,309,l),
(322,309,l),
(322,398,l),
(228,398,l),
(228,500,l),
(139,500,l),
(139,398,l),
(43,398,l),
(43,309,l),
(139,309,l),
(139,204,l)
);
}
);
width = 365;
}
);
metricLeft = "shorthorizontalstrokeFinal-canadian";
metricRight = "shorthorizontalstrokeFinal-canadian";
note = uni1540;
unicode = 5440;
},
{
glyphname = "re-canadian";
kernRight = niright;
lastChange = "2023-01-13 15:56:33 +0000";
layers = (
{
anchors = (
{
name = top_center_can;
pos = (263,508);
},
{
name = top_left_can;
pos = (121,508);
},
{
name = top_right_can;
pos = (611,508);
}
);
layerId = "86DE26EB-3058-4E6D-9480-BC9D8886A6AA";
shapes = (
{
closed = 1;
nodes = (
(399,-14,o),
(472,80,o),
(472,234,cs),
(472,361,l),
(682,361,l),
(682,489,l),
(334,489,l),
(334,213,ls),
(334,143,o),
(308,110,o),
(263,110,cs),
(216,110,o),
(191,145,o),
(191,213,cs),
(191,489,l),
(48,489,l),
(48,234,ls),
(48,72,o),
(129,-14,o),
(263,-14,cs)
);
}
);
width = 719;
}
);
metricRight = "=|ne-canadian";
note = uni1542;
unicode = 5442;
},
{
glyphname = "reRCree-canadian";
kernLeft = neleft;
lastChange = "2023-01-13 15:56:36 +0000";
layers = (
{
anchors = (
{
name = top_center_can;
pos = (457,508);
},
{
name = top_left_can;
pos = (107,508);
},
{
name = top_right_can;
pos = (600,508);
}
);
layerId = "86DE26EB-3058-4E6D-9480-BC9D8886A6AA";
shapes = (
{
closed = 1;
nodes = (
(590,-14,o),
(670,72,o),
(670,234,cs),
(670,489,l),
(528,489,l),
(528,213,ls),
(528,145,o),
(503,110,o),
(456,110,cs),
(411,110,o),
(385,142,o),
(385,213,cs),
(385,489,l),
(37,489,l),
(37,361,l),
(246,361,l),
(246,233,ls),
(246,80,o),
(321,-14,o),
(457,-14,cs)
);
}
);
width = 718;
}
);
metricLeft = "ne-canadian";
metricRight = "=|re-canadian";
note = uni1543;
unicode = 5443;
},
{
glyphname = "leWestCree-canadian";
kernLeft = noleft;
lastChange = "2023-01-13 15:56:36 +0000";
layers = (
{
anchors = (
{
name = top_center_can;
pos = (457,508);
},
{
name = top_left_can;
pos = (107,508);
},
{
name = top_right_can;
pos = (600,508);
}
);
layerId = "86DE26EB-3058-4E6D-9480-BC9D8886A6AA";
shapes = (
{
closed = 1;
nodes = (
(385,0,l),
(385,274,ls),
(385,346,o),
(411,379,o),
(457,379,cs),
(503,379,o),
(528,345,o),
(528,276,cs),
(528,0,l),
(670,0,l),
(670,255,ls),
(670,416,o),
(591,503,o),
(457,503,cs),
(322,503,o),
(246,410,o),
(246,254,cs),
(246,128,l),
(37,128,l),
(37,0,l)
);
}
);
width = 718;
}
);
metricLeft = "ne-canadian";
metricRight = "=|re-canadian";
note = uni1544;
unicode = 5444;
},
{
glyphname = "ri-canadian";
kernRight = naright;
lastChange = "2023-01-13 15:56:33 +0000";
layers = (
{
anchors = (
{
name = top_center_can;
pos = (263,508);
},
{
name = top_left_can;
pos = (121,508);
},
{
name = top_right_can;
pos = (611,508);
}
);
layerId = "86DE26EB-3058-4E6D-9480-BC9D8886A6AA";
shapes = (
{
closed = 1;
nodes = (
(191,0,l),
(191,276,ls),
(191,345,o),
(216,379,o),
(263,379,cs),
(308,379,o),
(334,347,o),
(334,276,cs),
(334,0,l),
(682,0,l),
(682,128,l),
(472,128,l),
(472,256,ls),
(472,410,o),
(400,503,o),
(263,503,cs),
(129,503,o),
(48,416,o),
(48,254,cs),
(48,0,l)
);
}
);
width = 719;
}
);
metricLeft = "re-canadian";
metricRight = "=|ne-canadian";
note = uni1546;
unicode = 5446;
},
{
glyphname = "ro-canadian";
lastChange = "2023-01-13 15:56:33 +0000";
layers = (
{
anchors = (
{
name = top_center_can;
pos = (209,690);
}
);
layerId = "86DE26EB-3058-4E6D-9480-BC9D8886A6AA";
shapes = (
{
closed = 1;
nodes = (
(193,1,l),
(193,258,l),
(157,221,l),
(213,221,ls),
(350,221,o),
(438,314,o),
(438,453,cs),
(438,602,o),
(355,690,o),
(193,690,cs),
(51,690,l),
(51,563,l),
(179,563,ls),
(258,563,o),
(296,523,o),
(296,454,cs),
(296,386,o),
(258,346,o),
(179,346,cs),
(51,346,l),
(51,1,l)
);
}
);
width = 473;
}
);
metricLeft = "nunavuth-canadian";
note = uni1548;
unicode = 5448;
},
{
glyphname = "loWestCree-canadian";
lastChange = "2023-01-13 15:56:33 +0000";
layers = (
{
anchors = (
{
name = top_center_can;
pos = (209,690);
},
{
name = top_left_can;
pos = (123,690);
}
);
layerId = "86DE26EB-3058-4E6D-9480-BC9D8886A6AA";
shapes = (
{
closed = 1;
nodes = (
(193,1,ls),
(355,1,o),
(438,89,o),
(438,237,cs),
(438,377,o),
(350,469,o),
(213,469,cs),
(157,469,l),
(193,433,l),
(193,690,l),
(51,690,l),
(51,345,l),
(179,345,ls),
(258,345,o),
(296,304,o),
(296,236,cs),
(296,168,o),
(258,128,o),
(179,128,cs),
(51,128,l),
(51,1,l)
);
}
);
width = 473;
}
);
metricLeft = "nunavuth-canadian";
metricRight = "ro-canadian";
note = uni154A;
unicode = 5450;
},
{
glyphname = "ra-canadian";
lastChange = "2023-01-13 15:56:36 +0000";
layers = (
{
anchors = (
{
name = top_center_can;
pos = (263,690);
},
{
name = top_right_can;
pos = (350,690);
}
);
layerId = "86DE26EB-3058-4E6D-9480-BC9D8886A6AA";
shapes = (
{
closed = 1;
nodes = (
(421,1,l),
(421,346,l),
(293,346,ls),
(214,346,o),
(177,386,o),
(177,454,cs),
(177,523,o),
(214,563,o),
(293,563,cs),
(421,563,l),
(421,690,l),
(279,690,ls),
(118,690,o),
(35,602,o),
(35,453,cs),
(35,314,o),
(122,221,o),
(259,221,cs),
(315,221,l),
(278,258,l),
(278,1,l)
);
}
);
width = 472;
}
);
metricLeft = "=|ro-canadian";
metricRight = "nunavuth-canadian";
note = uni154B;
unicode = 5451;
},
{
glyphname = "laWestCree-canadian";
lastChange = "2023-01-13 15:56:36 +0000";
layers = (
{
anchors = (
{
name = top_center_can;
pos = (350,690);
}
);
layerId = "86DE26EB-3058-4E6D-9480-BC9D8886A6AA";
shapes = (
{
closed = 1;
nodes = (
(421,1,l),
(421,128,l),
(293,128,ls),
(214,128,o),
(177,168,o),
(177,236,cs),
(177,304,o),
(214,345,o),
(293,345,cs),
(421,345,l),
(421,690,l),
(278,690,l),
(278,433,l),
(315,469,l),
(259,469,ls),
(122,469,o),
(35,377,o),
(35,237,cs),
(35,89,o),
(118,1,o),
(279,1,cs)
);
}
);
width = 472;
}
);
metricLeft = "=|ro-canadian";
metricRight = "nunavuth-canadian";
note = uni154D;
unicode = 5453;
},
{
glyphname = "r-canadian";
kernLeft = mwestleft;
kernRight = mwestright;
lastChange = "2023-01-13 15:56:33 +0000";
layers = (
{
layerId = "86DE26EB-3058-4E6D-9480-BC9D8886A6AA";
shapes = (
{
closed = 1;
nodes = (
(234,345,l),
(234,526,l),
(174,526,ls),
(141,526,o),
(124,541,o),
(124,570,cs),
(124,598,o),
(142,613,o),
(175,613,cs),
(234,613,l),
(234,690,l),
(169,690,ls),
(82,690,o),
(34,645,o),
(34,570,cs),
(34,499,o),
(81,452,o),
(159,452,cs),
(187,452,l),
(140,474,l),
(140,345,l)
);
}
);
width = 277;
}
);
metricLeft = "=|k-canadian";
note = uni1550;
unicode = 5456;
},
{
glyphname = "rWestCree-canadian";
kernLeft = mwestleft;
kernRight = mwestright;
lastChange = "2023-01-13 15:56:36 +0000";
layers = (
{
layerId = "86DE26EB-3058-4E6D-9480-BC9D8886A6AA";
shapes = (
{
closed = 1;
nodes = (
(59,345,l),
(246,436,l),
(246,467,l),
(108,534,l),
(108,499,l),
(246,567,l),
(246,598,l),
(59,690,l),
(43,690,l),
(43,625,l),
(180,558,l),
(180,608,l),
(43,538,l),
(43,497,l),
(180,429,l),
(180,476,l),
(43,409,l),
(43,345,l)
);
}
);
width = 289;
}
);
metricLeft = "=|lWestCree-canadian";
metricRight = "=|lWestCree-canadian";
note = uni1551;
unicode = 5457;
},
{
glyphname = "rMedial-canadian";
lastChange = "2023-01-13 15:56:33 +0000";
layers = (
{
layerId = "86DE26EB-3058-4E6D-9480-BC9D8886A6AA";
shapes = (
{
closed = 1;
nodes = (
(80,-14,l),
(486,177,l),
(486,222,l),
(188,364,l),
(188,325,l),
(486,468,l),
(486,513,l),
(80,703,l),
(47,703,l),
(47,600,l),
(358,454,l),
(358,520,l),
(47,378,l),
(47,312,l),
(358,170,l),
(358,236,l),
(47,91,l),
(47,-14,l)
);
}
);
width = 533;
}
);
metricLeft = "mediall-canadian";
metricRight = "mediall-canadian";
note = uni1552;
unicode = 5458;
},
{
glyphname = "fe-canadian";
kernLeft = ecanleft;
kernRight = ecanright;
lastChange = "2023-01-13 15:56:33 +0000";
layers = (
{
layerId = "86DE26EB-3058-4E6D-9480-BC9D8886A6AA";
shapes = (
{
closed = 1;
nodes = (
(342,0,l),
(650,655,l),
(650,690,l),
(536,690,l),
(298,163,l),
(332,163,l),
(242,350,l),
(157,348,l),
(178,324,o),
(202,311,o),
(235,311,cs),
(311,311,o),
(382,389,o),
(382,509,cs),
(382,621,o),
(327,703,o),
(224,703,cs),
(123,703,o),
(67,621,o),
(67,518,cs),
(67,459,o),
(81,410,o),
(114,349,cs),
(300,0,l)
);
},
{
closed = 1;
nodes = (
(195,408,o),
(178,441,o),
(178,514,cs),
(178,580,o),
(197,604,o),
(225,604,cs),
(253,604,o),
(271,581,o),
(271,507,cs),
(271,435,o),
(253,408,o),
(225,408,cs)
);
}
);
width = 668;
}
);
metricRight = "e-canadian";
note = uni1553;
unicode = 5459;
},
{
glyphname = "fi-canadian";
kernLeft = icanleft;
kernRight = icanright;
lastChange = "2023-01-13 15:56:33 +0000";
layers = (
{
anchors = (
{
name = top_center_can;
pos = (323,690);
},
{
name = top_left_can;
pos = (126,690);
},
{
name = top_right_can;
pos = (533,690);
}
);
layerId = "86DE26EB-3058-4E6D-9480-BC9D8886A6AA";
shapes = (
{
closed = 1;
nodes = (
(327,-14,o),
(382,69,o),
(382,181,cs),
(382,300,o),
(311,379,o),
(235,379,cs),
(202,379,o),
(178,366,o),
(157,342,c),
(242,340,l),
(332,526,l),
(298,526,l),
(536,0,l),
(650,0,l),
(650,35,l),
(342,690,l),
(300,690,l),
(114,340,ls),
(81,280,o),
(67,231,o),
(67,172,cs),
(67,69,o),
(123,-14,o),
(224,-14,cs)
);
},
{
closed = 1;
nodes = (
(197,86,o),
(178,110,o),
(178,176,cs),
(178,248,o),
(195,282,o),
(225,282,cs),
(253,282,o),
(271,255,o),
(271,183,cs),
(271,109,o),
(253,86,o),
(225,86,cs)
);
}
);
width = 668;
}
);
metricLeft = "fe-canadian";
metricRight = "e-canadian";
note = uni1555;
unicode = 5461;
},
{
glyphname = "fo-canadian";
kernLeft = ocanleft;
kernRight = ocanright;
lastChange = "2023-01-13 15:56:33 +0000";
layers = (
{
anchors = (
{
name = top_center_can;
pos = (194,690);
}
);
layerId = "86DE26EB-3058-4E6D-9480-BC9D8886A6AA";
shapes = (
{
closed = 1;
nodes = (
(99,0,l),
(546,323,l),
(546,367,l),
(311,644,ls),
(273,690,o),
(232,703,o),
(189,703,cs),
(93,703,o),
(36,624,o),
(36,503,cs),
(36,388,o),
(98,308,o),
(191,308,cs),
(282,308,o),
(341,389,o),
(341,503,cs),
(341,535,o),
(332,577,o),
(323,603,c),
(276,516,l),
(419,348,l),
(419,376,l),
(65,120,l),
(65,0,l)
);
},
{
closed = 1;
nodes = (
(165,408,o),
(147,432,o),
(147,506,cs),
(147,580,o),
(165,604,o),
(194,604,cs),
(222,604,o),
(241,581,o),
(241,507,cs),
(241,435,o),
(222,408,o),
(194,408,cs)
);
}
);
width = 572;
}
);
metricRight = "o-canadian";
note = uni1557;
unicode = 5463;
},
{
glyphname = "fa-canadian";
kernLeft = acanleft;
kernRight = acanright;
lastChange = "2023-01-13 15:56:33 +0000";
layers = (
{
anchors = (
{
name = top_center_can;
pos = (380,690);
}
);
layerId = "86DE26EB-3058-4E6D-9480-BC9D8886A6AA";
shapes = (
{
closed = 1;
nodes = (
(507,0,l),
(507,120,l),
(153,375,l),
(153,349,l),
(296,517,l),
(249,603,l),
(240,577,o),
(231,535,o),
(231,503,cs),
(231,389,o),
(290,308,o),
(381,308,cs),
(474,308,o),
(536,388,o),
(536,503,cs),
(536,624,o),
(479,703,o),
(383,703,cs),
(340,703,o),
(298,690,o),
(261,644,cs),
(26,367,l),
(26,323,l),
(473,0,l)
);
},
{
closed = 1;
nodes = (
(350,408,o),
(331,434,o),
(331,507,cs),
(331,581,o),
(350,604,o),
(378,604,cs),
(407,604,o),
(425,580,o),
(425,506,cs),
(425,432,o),
(407,408,o),
(378,408,cs)
);
}
);
width = 572;
}
);
metricRight = "=|fo-canadian";
note = uni1559;
unicode = 5465;
},
{
glyphname = "f-canadian";
kernLeft = mwestleft;
kernRight = mwestright;
lastChange = "2023-01-13 15:56:33 +0000";
layers = (
{
layerId = "86DE26EB-3058-4E6D-9480-BC9D8886A6AA";
shapes = (
{
closed = 1;
nodes = (
(275,345,l),
(275,404,l),
(100,530,l),
(100,520,l),
(167,600,l),
(149,645,l),
(144,631,o),
(140,610,o),
(140,589,cs),
(140,530,o),
(173,497,o),
(215,497,cs),
(259,497,o),
(289,530,o),
(289,596,cs),
(289,669,o),
(251,696,o),
(212,696,cs),
(193,696,o),
(170,686,o),
(152,665,cs),
(34,527,l),
(34,504,l),
(259,345,l)
);
},
{
closed = 1;
nodes = (
(198,547,o),
(189,560,o),
(189,594,cs),
(189,632,o),
(198,645,o),
(213,645,cs),
(226,645,o),
(235,633,o),
(235,594,cs),
(235,560,o),
(228,547,o),
(213,547,cs)
);
}
);
width = 327;
}
);
note = uni155D;
unicode = 5469;
},
{
glyphname = "the-canadian";
lastChange = "2023-01-13 15:56:33 +0000";
layers = (
{
anchors = (
{
name = middle_right_can;
pos = (699,345);
},
{
name = top_center_can;
pos = (313,690);
},
{
name = top_left_can;
pos = (118,690);
},
{
name = top_right_can;
pos = (507,690);
}
);
layerId = "86DE26EB-3058-4E6D-9480-BC9D8886A6AA";
shapes = (
{
closed = 1;
nodes = (
(481,-14,o),
(579,85,o),
(579,271,cs),
(579,690,l),
(436,690,l),
(436,269,ls),
(436,164,o),
(394,116,o),
(313,116,cs),
(235,116,o),
(189,166,o),
(189,271,cs),
(189,404,l),
(128,358,l),
(144,327,o),
(177,305,o),
(212,305,cs),
(303,305,o),
(364,384,o),
(364,504,cs),
(364,622,o),
(311,703,o),
(210,703,cs),
(103,703,o),
(48,623,o),
(48,461,cs),
(48,309,ls),
(48,91,o),
(142,-14,o),
(313,-14,cs)
);
},
{
closed = 1;
nodes = (
(179,406,o),
(159,430,o),
(159,504,cs),
(159,580,o),
(179,604,o),
(207,604,cs),
(235,604,o),
(253,580,o),
(253,506,cs),
(253,433,o),
(236,406,o),
(208,406,cs)
);
}
);
width = 627;
}
);
metricLeft = "te-canadian";
metricRight = "te-canadian";
note = uni155E;
unicode = 5470;
},
{
glyphname = "theNCree-canadian";
lastChange = "2023-01-13 15:56:33 +0000";
layers = (
{
layerId = "86DE26EB-3058-4E6D-9480-BC9D8886A6AA";
shapes = (
{
closed = 1;
nodes = (
(485,-14,o),
(579,85,o),
(579,298,cs),
(579,461,ls),
(579,623,o),
(524,703,o),
(417,703,cs),
(316,703,o),
(263,622,o),
(263,504,cs),
(263,384,o),
(324,305,o),
(415,305,cs),
(450,305,o),
(483,327,o),
(499,358,c),
(438,404,l),
(438,269,ls),
(438,162,o),
(393,113,o),
(314,113,cs),
(233,113,o),
(191,162,o),
(191,266,cs),
(191,690,l),
(48,690,l),
(48,270,ls),
(48,85,o),
(145,-14,o),
(314,-14,cs)
);
},
{
closed = 1;
nodes = (
(391,406,o),
(374,433,o),
(374,506,cs),
(374,580,o),
(391,604,o),
(420,604,cs),
(448,604,o),
(468,580,o),
(468,504,cs),
(468,430,o),
(448,406,o),
(419,406,cs)
);
}
);
width = 627;
}
);
metricLeft = "te-canadian";
metricRight = "te-canadian";
note = uni155F;
unicode = 5471;
},
{
glyphname = "thi-canadian";
lastChange = "2023-01-13 15:56:33 +0000";
layers = (
{
anchors = (
{
name = top_center_can;
pos = (309,690);
}
);
layerId = "86DE26EB-3058-4E6D-9480-BC9D8886A6AA";
shapes = (
{
closed = 1;
nodes = (
(311,-14,o),
(364,68,o),
(364,185,cs),
(364,305,o),
(303,384,o),
(212,384,cs),
(177,384,o),
(144,362,o),
(128,331,c),
(189,286,l),
(189,421,ls),
(189,527,o),
(234,577,o),
(313,577,cs),
(394,577,o),
(436,527,o),
(436,424,cs),
(436,0,l),
(579,0,l),
(579,419,ls),
(579,605,o),
(482,703,o),
(313,703,cs),
(142,703,o),
(48,605,o),
(48,391,cs),
(48,229,ls),
(48,67,o),
(103,-14,o),
(210,-14,cs)
);
},
{
closed = 1;
nodes = (
(179,86,o),
(159,110,o),
(159,185,cs),
(159,260,o),
(179,284,o),
(208,284,cs),
(236,284,o),
(253,257,o),
(253,184,cs),
(253,110,o),
(235,86,o),
(207,86,cs)
);
}
);
width = 627;
}
);
metricLeft = "te-canadian";
metricRight = "te-canadian";
note = uni1560;
unicode = 5472;
},
{
glyphname = "thiNCree-canadian";
lastChange = "2023-01-13 15:56:33 +0000";
layers = (
{
anchors = (
{
name = top_center_can;
pos = (309,690);
}
);
layerId = "86DE26EB-3058-4E6D-9480-BC9D8886A6AA";
shapes = (
{
closed = 1;
nodes = (
(524,-14,o),
(579,67,o),
(579,229,cs),
(579,391,ls),
(579,605,o),
(485,703,o),
(314,703,cs),
(145,703,o),
(48,605,o),
(48,419,cs),
(48,0,l),
(191,0,l),
(191,424,ls),
(191,527,o),
(233,577,o),
(314,577,cs),
(393,577,o),
(438,527,o),
(438,421,cs),
(438,286,l),
(499,331,l),
(483,362,o),
(450,384,o),
(415,384,cs),
(324,384,o),
(263,305,o),
(263,185,cs),
(263,68,o),
(316,-14,o),
(417,-14,cs)
);
},
{
closed = 1;
nodes = (
(391,86,o),
(374,110,o),
(374,184,cs),
(374,257,o),
(391,284,o),
(419,284,cs),
(448,284,o),
(468,260,o),
(468,185,cs),
(468,110,o),
(448,86,o),
(420,86,cs)
);
}
);
width = 627;
}
);
metricLeft = "te-canadian";
metricRight = "te-canadian";
note = uni1561;
unicode = 5473;
},
{
glyphname = "tho-canadian";
lastChange = "2023-01-13 15:56:33 +0000";
layers = (
{
anchors = (
{
name = top_center_can;
pos = (254,690);
}
);
layerId = "86DE26EB-3058-4E6D-9480-BC9D8886A6AA";
shapes = (
{
closed = 1;
nodes = (
(212,0,ls),
(416,0,o),
(530,116,o),
(530,354,cs),
(530,570,o),
(421,703,o),
(260,703,cs),
(122,703,o),
(39,611,o),
(39,480,cs),
(39,355,o),
(99,279,o),
(193,279,cs),
(290,279,o),
(341,354,o),
(341,459,cs),
(341,560,o),
(304,639,o),
(222,646,c),
(193,604,l),
(204,611,o),
(222,613,o),
(237,613,cs),
(334,613,o),
(392,512,o),
(392,363,cs),
(392,195,o),
(331,129,o),
(205,129,cs),
(68,129,l),
(68,0,l)
);
},
{
closed = 1;
nodes = (
(169,379,o),
(150,404,o),
(150,484,cs),
(150,564,o),
(171,590,o),
(198,590,cs),
(225,590,o),
(243,565,o),
(243,485,cs),
(243,407,o),
(226,379,o),
(197,379,cs)
);
}
);
width = 574;
}
);
metricRight = "to-canadian";
note = uni1564;
unicode = 5476;
},
{
glyphname = "tha-canadian";
lastChange = "2023-01-13 15:56:36 +0000";
layers = (
{
anchors = (
{
name = top_center_can;
pos = (325,690);
}
);
layerId = "86DE26EB-3058-4E6D-9480-BC9D8886A6AA";
shapes = (
{
closed = 1;
nodes = (
(508,0,l),
(508,129,l),
(370,129,ls),
(244,129,o),
(184,195,o),
(184,363,cs),
(184,512,o),
(241,613,o),
(339,613,cs),
(353,613,o),
(372,611,o),
(382,604,c),
(353,646,l),
(271,639,o),
(234,560,o),
(234,459,cs),
(234,354,o),
(286,279,o),
(383,279,cs),
(476,279,o),
(536,355,o),
(536,480,cs),
(536,611,o),
(453,703,o),
(316,703,cs),
(155,703,o),
(44,570,o),
(44,354,cs),
(44,122,o),
(154,0,o),
(364,0,cs)
);
},
{
closed = 1;
nodes = (
(350,379,o),
(331,407,o),
(331,485,cs),
(331,565,o),
(351,590,o),
(378,590,cs),
(405,590,o),
(425,564,o),
(425,484,cs),
(425,404,o),
(407,379,o),
(378,379,cs)
);
}
);
width = 575;
}
);
metricLeft = "=|theCarrier-canadian";
metricRight = "=|tho-canadian";
note = uni1566;
unicode = 5478;
},
{
glyphname = "th-canadian";
kernLeft = mwestleft;
kernRight = mwestright;
lastChange = "2023-01-13 15:56:33 +0000";
layers = (
{
layerId = "86DE26EB-3058-4E6D-9480-BC9D8886A6AA";
shapes = (
{
closed = 1;
nodes = (
(270,345,l),
(270,423,l),
(212,423,ls),
(150,423,o),
(118,455,o),
(118,525,cs),
(118,594,o),
(148,639,o),
(197,639,cs),
(203,639,o),
(210,639,o),
(214,637,c),
(191,661,l),
(158,657,o),
(135,621,o),
(135,579,cs),
(135,514,o),
(166,480,o),
(209,480,cs),
(253,480,o),
(284,515,o),
(284,581,cs),
(284,658,o),
(240,696,o),
(180,696,cs),
(99,696,o),
(40,633,o),
(40,518,cs),
(40,410,o),
(96,345,o),
(205,345,cs)
);
},
{
closed = 1;
nodes = (
(193,529,o),
(185,543,o),
(185,577,cs),
(185,614,o),
(193,628,o),
(207,628,cs),
(221,628,o),
(230,615,o),
(230,577,cs),
(230,543,o),
(222,529,o),
(208,529,cs)
);
}
);
width = 323;
}
);
metricLeft = "t-canadian";
note = uni156A;
unicode = 5482;
},
{
glyphname = "tthe-canadian";
lastChange = "2023-01-13 15:56:33 +0000";
layers = (
{
anchors = (
{
name = middle_right_can;
pos = (692,345);
},
{
name = top_center_can;
pos = (309,690);
},
{
name = top_left_can;
pos = (121,690);
},
{
name = top_right_can;
pos = (499,690);
}
);
layerId = "86DE26EB-3058-4E6D-9480-BC9D8886A6AA";
shapes = (
{
closed = 1;
nodes = (
(477,-14,o),
(570,85,o),
(570,271,cs),
(570,690,l),
(438,690,l),
(438,270,ls),
(438,163,o),
(387,117,o),
(309,117,cs),
(234,117,o),
(182,166,o),
(182,270,cs),
(182,690,l),
(48,690,l),
(48,270,ls),
(48,85,o),
(145,-14,o),
(310,-14,cs)
);
},
{
closed = 1;
nodes = (
(362,382,l),
(362,690,l),
(256,690,l),
(256,382,l)
);
}
);
width = 618;
}
);
metricLeft = "te-canadian";
metricRight = "te-canadian";
note = uni156B;
unicode = 5483;
},
{
glyphname = "tthi-canadian";
lastChange = "2023-01-13 15:56:33 +0000";
layers = (
{
layerId = "86DE26EB-3058-4E6D-9480-BC9D8886A6AA";
shapes = (
{
closed = 1;
nodes = (
(182,0,l),
(182,420,ls),
(182,526,o),
(232,573,o),
(310,573,cs),
(385,573,o),
(438,524,o),
(438,420,cs),
(438,0,l),
(570,0,l),
(570,419,ls),
(570,605,o),
(474,703,o),
(310,703,cs),
(143,703,o),
(48,605,o),
(48,419,cs),
(48,0,l)
);
},
{
closed = 1;
nodes = (
(362,0,l),
(362,308,l),
(256,308,l),
(256,0,l)
);
}
);
width = 618;
}
);
metricLeft = "te-canadian";
metricRight = "te-canadian";
note = uni156C;
unicode = 5484;
},
{
glyphname = "ttho-canadian";
lastChange = "2023-01-13 15:56:36 +0000";
layers = (
{
anchors = (
{
name = top_center_can;
pos = (270,690);
},
{
name = top_left_can;
pos = (120,690);
},
{
name = top_right_can;
pos = (420,690);
}
);
layerId = "86DE26EB-3058-4E6D-9480-BC9D8886A6AA";
shapes = (
{
closed = 1;
nodes = (
(159,0,ls),
(370,0,o),
(490,116,o),
(490,346,cs),
(490,576,o),
(370,690,o),
(157,690,cs),
(48,690,l),
(48,560,l),
(158,560,ls),
(278,560,o),
(347,497,o),
(347,346,cs),
(347,194,o),
(278,129,o),
(159,129,cs),
(48,129,l),
(48,0,l)
);
},
{
closed = 1;
nodes = (
(240,287,l),
(240,405,l),
(48,405,l),
(48,287,l)
);
}
);
width = 534;
}
);
metricRight = "to-canadian";
note = uni156D;
unicode = 5485;
},
{
glyphname = "ttha-canadian";
lastChange = "2023-01-13 15:56:36 +0000";
layers = (
{
anchors = (
{
name = top_center_can;
pos = (266,690);
},
{
name = top_left_can;
pos = (116,690);
},
{
name = top_right_can;
pos = (416,690);
}
);
layerId = "86DE26EB-3058-4E6D-9480-BC9D8886A6AA";
shapes = (
{
closed = 1;
nodes = (
(486,0,l),
(486,129,l),
(377,129,ls),
(257,129,o),
(187,193,o),
(187,345,cs),
(187,497,o),
(257,560,o),
(376,560,cs),
(486,560,l),
(486,690,l),
(376,690,ls),
(165,690,o),
(44,575,o),
(44,345,cs),
(44,116,o),
(165,0,o),
(377,0,cs)
);
},
{
closed = 1;
nodes = (
(486,287,l),
(486,405,l),
(296,405,l),
(296,287,l)
);
}
);
width = 534;
}
);
metricLeft = "=|to-canadian";
metricRight = "=|ttho-canadian";
note = uni156E;
unicode = 5486;
},
{
glyphname = "tth-canadian";
lastChange = "2023-01-13 15:56:33 +0000";
layers = (
{
layerId = "86DE26EB-3058-4E6D-9480-BC9D8886A6AA";
shapes = (
{
closed = 1;
nodes = (
(559,479,l),
(525,479,l),
(606,360,l),
(669,408,l),
(586,524,l),
(576,491,l),
(699,538,l),
(672,609,l),
(551,560,l),
(582,541,l),
(582,690,l),
(502,690,l),
(502,541,l),
(533,560,l),
(412,609,l),
(384,538,l),
(508,491,l),
(497,524,l),
(414,408,l),
(479,360,l)
);
},
{
closed = 1;
nodes = (
(206,479,l),
(170,479,l),
(252,360,l),
(317,408,l),
(232,524,l),
(222,491,l),
(346,538,l),
(318,609,l),
(197,560,l),
(228,541,l),
(228,690,l),
(148,690,l),
(148,541,l),
(180,560,l),
(58,609,l),
(31,538,l),
(155,491,l),
(143,524,l),
(60,408,l),
(124,360,l)
);
}
);
width = 730;
}
);
metricRight = "=|";
note = uni156F;
unicode = 5487;
},
{
glyphname = "tye-canadian";
lastChange = "2023-01-13 15:56:33 +0000";
layers = (
{
layerId = "86DE26EB-3058-4E6D-9480-BC9D8886A6AA";
shapes = (
{
closed = 1;
nodes = (
(477,-14,o),
(570,85,o),
(570,271,cs),
(570,690,l),
(438,690,l),
(438,279,ls),
(438,163,o),
(387,117,o),
(309,117,cs),
(234,117,o),
(182,166,o),
(182,279,cs),
(182,690,l),
(48,690,l),
(48,270,ls),
(48,85,o),
(145,-14,o),
(310,-14,cs)
);
},
{
closed = 1;
nodes = (
(368,411,o),
(399,449,o),
(399,509,cs),
(399,690,l),
(339,690,l),
(339,512,ls),
(339,486,o),
(328,473,o),
(309,473,cs),
(291,473,o),
(280,486,o),
(280,512,cs),
(280,690,l),
(220,690,l),
(220,509,ls),
(220,448,o),
(252,411,o),
(310,411,cs)
);
}
);
width = 618;
}
);
metricLeft = "te-canadian";
metricRight = "te-canadian";
note = uni1570;
unicode = 5488;
},
{
glyphname = "tyi-canadian";
lastChange = "2023-01-13 15:56:33 +0000";
layers = (
{
layerId = "86DE26EB-3058-4E6D-9480-BC9D8886A6AA";
shapes = (
{
closed = 1;
nodes = (
(182,0,l),
(182,411,ls),
(182,526,o),
(232,573,o),
(310,573,cs),
(385,573,o),
(438,524,o),
(438,411,cs),
(438,0,l),
(570,0,l),
(570,419,ls),
(570,605,o),
(474,703,o),
(310,703,cs),
(143,703,o),
(48,605,o),
(48,419,cs),
(48,0,l)
);
},
{
closed = 1;
nodes = (
(280,0,l),
(280,177,ls),
(280,204,o),
(291,216,o),
(310,216,cs),
(328,216,o),
(339,204,o),
(339,177,cs),
(339,0,l),
(399,0,l),
(399,181,ls),
(399,242,o),
(367,279,o),
(309,279,cs),
(251,279,o),
(220,241,o),
(220,181,cs),
(220,0,l)
);
}
);
width = 618;
}
);
metricLeft = "te-canadian";
metricRight = "te-canadian";
note = uni1571;
unicode = 5489;
},
{
glyphname = "tyo-canadian";
lastChange = "2023-01-13 15:56:36 +0000";
layers = (
{
layerId = "86DE26EB-3058-4E6D-9480-BC9D8886A6AA";
shapes = (
{
closed = 1;
nodes = (
(161,0,ls),
(366,0,o),
(493,116,o),
(493,346,cs),
(493,576,o),
(366,690,o),
(160,690,cs),
(51,690,l),
(51,563,l),
(148,563,ls),
(279,563,o),
(351,499,o),
(351,346,cs),
(351,192,o),
(279,127,o),
(150,127,cs),
(51,127,l),
(51,0,l)
);
},
{
closed = 1;
nodes = (
(114,215,ls),
(193,215,o),
(242,261,o),
(242,345,cs),
(242,430,o),
(193,474,o),
(114,474,cs),
(51,474,l),
(51,403,l),
(103,403,ls),
(147,403,o),
(165,384,o),
(165,345,cs),
(165,306,o),
(147,287,o),
(103,287,cs),
(51,287,l),
(51,215,l)
);
}
);
width = 537;
}
);
metricLeft = "nunavuth-canadian";
metricRight = "theCarrier-canadian";
note = uni1572;
unicode = 5490;
},
{
glyphname = "tya-canadian";
lastChange = "2023-01-13 15:56:36 +0000";
layers = (
{
layerId = "86DE26EB-3058-4E6D-9480-BC9D8886A6AA";
shapes = (
{
closed = 1;
nodes = (
(486,0,l),
(486,127,l),
(389,127,ls),
(258,127,o),
(187,191,o),
(187,345,cs),
(187,498,o),
(258,563,o),
(388,563,cs),
(486,563,l),
(486,690,l),
(376,690,ls),
(172,690,o),
(44,575,o),
(44,345,cs),
(44,116,o),
(172,0,o),
(377,0,cs)
);
},
{
closed = 1;
nodes = (
(486,215,l),
(486,287,l),
(435,287,ls),
(390,287,o),
(373,306,o),
(373,345,cs),
(373,384,o),
(390,403,o),
(434,403,cs),
(486,403,l),
(486,474,l),
(423,474,ls),
(344,474,o),
(297,429,o),
(297,345,cs),
(297,260,o),
(344,215,o),
(423,215,cs)
);
}
);
width = 537;
}
);
metricLeft = "=|theCarrier-canadian";
metricRight = "nunavuth-canadian";
note = uni1573;
unicode = 5491;
},
{
glyphname = "heNunavik-canadian";
lastChange = "2023-01-13 15:56:33 +0000";
layers = (
{
layerId = "86DE26EB-3058-4E6D-9480-BC9D8886A6AA";
shapes = (
{
closed = 1;
nodes = (
(447,0,l),
(652,199,l),
(568,289,l),
(373,100,l),
(463,94,l),
(463,440,ls),
(463,608,o),
(389,703,o),
(255,703,cs),
(121,703,o),
(39,605,o),
(39,441,cs),
(39,287,o),
(116,186,o),
(231,186,cs),
(284,186,o),
(324,218,o),
(333,253,c),
(322,274,l),
(322,0,l)
);
},
{
closed = 1;
nodes = (
(208,307,o),
(178,348,o),
(178,445,cs),
(178,543,o),
(205,583,o),
(250,583,cs),
(296,583,o),
(324,544,o),
(324,445,cs),
(324,347,o),
(294,307,o),
(250,307,cs)
);
}
);
width = 668;
}
);
metricLeft = "ke-canadian";
note = uni1574;
unicode = 5492;
},
{
glyphname = "hiNunavik-canadian";
lastChange = "2023-01-13 15:56:36 +0000";
layers = (
{
anchors = (
{
name = top_center_can;
pos = (414,690);
}
);
layerId = "86DE26EB-3058-4E6D-9480-BC9D8886A6AA";
shapes = (
{
closed = 1;
nodes = (
(347,0,l),
(347,274,l),
(335,253,l),
(345,218,o),
(385,186,o),
(438,186,cs),
(553,186,o),
(630,288,o),
(630,441,cs),
(630,605,o),
(548,703,o),
(414,703,cs),
(280,703,o),
(206,608,o),
(206,440,cs),
(206,97,l),
(296,100,l),
(100,289,l),
(16,199,l),
(221,0,l)
);
},
{
closed = 1;
nodes = (
(375,307,o),
(345,347,o),
(345,445,cs),
(345,544,o),
(373,583,o),
(417,583,cs),
(464,583,o),
(491,543,o),
(491,445,cs),
(491,348,o),
(461,307,o),
(417,307,cs)
);
}
);
width = 669;
}
);
metricLeft = "=|heNunavik-canadian";
metricRight = "=|ke-canadian";
note = uni1575;
unicode = 5493;
},
{
glyphname = "hoNunavik-canadian";
lastChange = "2023-01-13 15:56:33 +0000";
layers = (
{
anchors = (
{
name = top_center_can;
pos = (249,690);
},
{
name = top_right_can;
pos = (392,690);
}
);
layerId = "86DE26EB-3058-4E6D-9480-BC9D8886A6AA";
shapes = (
{
closed = 1;
nodes = (
(389,-14,o),
(463,82,o),
(463,249,cs),
(463,596,l),
(373,589,l),
(568,401,l),
(652,491,l),
(447,690,l),
(322,690,l),
(322,415,l),
(333,437,l),
(324,471,o),
(284,503,o),
(231,503,cs),
(116,503,o),
(39,402,o),
(39,247,cs),
(39,85,o),
(120,-14,o),
(254,-14,cs)
);
},
{
closed = 1;
nodes = (
(205,106,o),
(178,147,o),
(178,244,cs),
(178,342,o),
(208,383,o),
(250,383,cs),
(294,383,o),
(324,343,o),
(324,244,cs),
(324,146,o),
(296,106,o),
(250,106,cs)
);
}
);
width = 668;
}
);
metricLeft = "ke-canadian";
metricRight = "heNunavik-canadian";
note = uni1577;
unicode = 5495;
},
{
glyphname = "haNunavik-canadian";
lastChange = "2023-01-13 15:56:36 +0000";
layers = (
{
anchors = (
{
name = top_center_can;
pos = (419,690);
},
{
name = top_left_can;
pos = (276,690);
}
);
layerId = "86DE26EB-3058-4E6D-9480-BC9D8886A6AA";
shapes = (
{
closed = 1;
nodes = (
(548,-14,o),
(630,85,o),
(630,248,cs),
(630,402,o),
(553,503,o),
(439,503,cs),
(385,503,o),
(346,471,o),
(335,437,c),
(347,415,l),
(347,690,l),
(221,690,l),
(16,491,l),
(100,401,l),
(296,589,l),
(206,593,l),
(206,249,ls),
(206,82,o),
(279,-14,o),
(413,-14,cs)
);
},
{
closed = 1;
nodes = (
(373,106,o),
(345,146,o),
(345,244,cs),
(345,343,o),
(375,383,o),
(417,383,cs),
(461,383,o),
(491,342,o),
(491,244,cs),
(491,147,o),
(464,106,o),
(417,106,cs)
);
}
);
width = 669;
}
);
metricLeft = "=|heNunavik-canadian";
metricRight = "=|ke-canadian";
note = uni1579;
unicode = 5497;
},
{
glyphname = "hNunavik-canadian";
kernLeft = mwestleft;
kernRight = mwestright;
lastChange = "2023-01-13 15:56:33 +0000";
layers = (
{
layerId = "86DE26EB-3058-4E6D-9480-BC9D8886A6AA";
shapes = (
{
closed = 1;
nodes = (
(305,339,o),
(357,383,o),
(357,475,cs),
(357,555,o),
(315,601,o),
(260,601,cs),
(224,601,o),
(198,579,o),
(192,546,c),
(213,546,l),
(213,690,l),
(126,690,l),
(24,590,l),
(71,543,l),
(172,643,l),
(118,643,l),
(118,470,ls),
(118,390,o),
(162,339,o),
(241,339,cs)
);
},
{
closed = 1;
nodes = (
(219,408,o),
(205,423,o),
(205,469,cs),
(205,516,o),
(220,532,o),
(240,532,cs),
(258,532,o),
(274,517,o),
(274,469,cs),
(274,423,o),
(259,408,o),
(240,408,cs)
);
}
);
width = 391;
}
);
metricRight = "k-canadian";
note = uni157B;
unicode = 5499;
},
{
color = 4;
glyphname = "nunavuth-canadian";
lastChange = "2023-01-13 15:56:33 +0000";
layers = (
{
layerId = "86DE26EB-3058-4E6D-9480-BC9D8886A6AA";
shapes = (
{
closed = 1;
nodes = (
(193,293,l),
(406,293,l),
(406,0,l),
(548,0,l),
(548,690,l),
(406,690,l),
(406,419,l),
(193,419,l),
(193,690,l),
(51,690,l),
(51,0,l),
(193,0,l)
);
}
);
width = 599;
}
);
metricRight = "=|";
note = uni157C;
unicode = 5500;
},
{
glyphname = "tlhe-canadian";
lastChange = "2023-01-13 15:56:36 +0000";
layers = (
{
anchors = (
{
name = top_center_can;
pos = (264,690);
}
);
layerId = "86DE26EB-3058-4E6D-9480-BC9D8886A6AA";
shapes = (
{
closed = 1;
nodes = (
(196,0,l),
(297,266,l),
(192,225,l),
(206,220,o),
(223,218,o),
(240,218,cs),
(300,218,o),
(340,254,o),
(346,286,c),
(335,327,l),
(335,0,l),
(475,0,l),
(475,457,ls),
(475,611,o),
(401,703,o),
(265,703,cs),
(127,703,o),
(45,607,o),
(45,457,cs),
(45,358,o),
(83,285,o),
(144,250,c),
(48,0,l)
);
},
{
closed = 1;
nodes = (
(215,338,o),
(185,375,o),
(185,461,cs),
(185,547,o),
(213,583,o),
(261,583,cs),
(307,583,o),
(336,547,o),
(336,461,cs),
(336,375,o),
(305,338,o),
(261,338,cs)
);
}
);
width = 523;
}
);
metricRight = "te-canadian";
note = uni1586;
unicode = 5510;
},
{
glyphname = "tlhi-canadian";
lastChange = "2023-01-13 15:56:36 +0000";
layers = (
{
layerId = "86DE26EB-3058-4E6D-9480-BC9D8886A6AA";
shapes = (
{
closed = 1;
nodes = (
(189,0,l),
(189,327,l),
(178,288,l),
(182,256,o),
(222,218,o),
(284,218,c),
(227,266,l),
(327,0,l),
(476,0,l),
(381,250,l),
(441,285,o),
(479,358,o),
(479,457,cs),
(479,607,o),
(398,703,o),
(260,703,cs),
(123,703,o),
(48,611,o),
(48,457,cs),
(48,0,l)
);
},
{
closed = 1;
nodes = (
(219,338,o),
(188,375,o),
(188,461,cs),
(188,547,o),
(217,583,o),
(264,583,cs),
(311,583,o),
(340,547,o),
(340,461,cs),
(340,375,o),
(309,338,o),
(264,338,cs)
);
}
);
width = 524;
}
);
metricLeft = "te-canadian";
metricRight = "=|tlhe-canadian";
note = uni1587;
unicode = 5511;
},
{
glyphname = "tlho-canadian";
lastChange = "2023-01-13 15:56:36 +0000";
layers = (
{
anchors = (
{
name = top_center_can;
pos = (269,690);
}
);
layerId = "86DE26EB-3058-4E6D-9480-BC9D8886A6AA";
shapes = (
{
closed = 1;
nodes = (
(401,-14,o),
(475,78,o),
(475,233,cs),
(475,690,l),
(335,690,l),
(335,362,l),
(347,402,l),
(343,434,o),
(302,471,o),
(240,471,c),
(297,424,l),
(196,690,l),
(48,690,l),
(144,440,l),
(83,405,o),
(45,331,o),
(45,233,cs),
(45,83,o),
(127,-14,o),
(265,-14,cs)
);
},
{
closed = 1;
nodes = (
(213,106,o),
(185,143,o),
(185,229,cs),
(185,315,o),
(215,352,o),
(261,352,cs),
(305,352,o),
(336,315,o),
(336,229,cs),
(336,143,o),
(307,106,o),
(261,106,cs)
);
}
);
width = 523;
}
);
metricLeft = "tlhe-canadian";
metricRight = "te-canadian";
note = uni1588;
unicode = 5512;
},
{
glyphname = "tlha-canadian";
lastChange = "2023-01-13 15:56:33 +0000";
layers = (
{
layerId = "86DE26EB-3058-4E6D-9480-BC9D8886A6AA";
shapes = (
{
closed = 1;
nodes = (
(398,-14,o),
(479,83,o),
(479,233,cs),
(479,331,o),
(441,405,o),
(381,440,c),
(476,690,l),
(327,690,l),
(227,424,l),
(332,465,l),
(318,469,o),
(301,471,o),
(284,471,cs),
(222,471,o),
(182,434,o),
(178,402,c),
(189,362,l),
(189,690,l),
(48,690,l),
(48,233,ls),
(48,78,o),
(123,-14,o),
(260,-14,cs)
);
},
{
closed = 1;
nodes = (
(217,106,o),
(188,143,o),
(188,229,cs),
(188,315,o),
(219,352,o),
(264,352,cs),
(309,352,o),
(340,315,o),
(340,229,cs),
(340,143,o),
(311,106,o),
(264,106,cs)
);
}
);
width = 525;
}
);
metricLeft = "te-canadian";
note = uni1589;
unicode = 5513;
},
{
glyphname = "reWestCree-canadian";
lastChange = "2023-01-13 15:56:33 +0000";
layers = (
{
layerId = "86DE26EB-3058-4E6D-9480-BC9D8886A6AA";
shapes = (
{
closed = 1;
nodes = (
(438,0,l),
(642,199,l),
(558,289,l),
(363,100,l),
(453,94,l),
(453,451,ls),
(453,610,o),
(382,703,o),
(247,703,cs),
(116,703,o),
(36,615,o),
(36,452,cs),
(36,382,l),
(177,382,l),
(177,477,ls),
(177,544,o),
(200,580,o),
(245,580,cs),
(288,580,o),
(312,546,o),
(312,475,cs),
(312,0,l)
);
}
);
width = 658;
}
);
metricLeft = "ce-canadian";
metricRight = "heNunavik-canadian";
note = uni158A;
unicode = 5514;
},
{
glyphname = "riWestCree-canadian";
lastChange = "2023-01-13 15:56:36 +0000";
layers = (
{
layerId = "86DE26EB-3058-4E6D-9480-BC9D8886A6AA";
shapes = (
{
closed = 1;
nodes = (
(347,0,l),
(347,475,ls),
(347,546,o),
(371,580,o),
(414,580,cs),
(459,580,o),
(482,544,o),
(482,477,cs),
(482,382,l),
(623,382,l),
(623,452,ls),
(623,615,o),
(544,703,o),
(413,703,cs),
(277,703,o),
(206,609,o),
(206,451,cs),
(206,94,l),
(296,100,l),
(100,289,l),
(16,199,l),
(221,0,l)
);
}
);
width = 659;
}
);
metricLeft = "=|heNunavik-canadian";
metricRight = "=|ce-canadian";
note = uni158B;
unicode = 5515;
},
{
glyphname = "roWestCree-canadian";
lastChange = "2023-01-13 15:56:33 +0000";
layers = (
{
layerId = "86DE26EB-3058-4E6D-9480-BC9D8886A6AA";
shapes = (
{
closed = 1;
nodes = (
(382,-14,o),
(453,80,o),
(453,239,cs),
(453,596,l),
(363,589,l),
(558,401,l),
(642,491,l),
(438,690,l),
(312,690,l),
(312,214,ls),
(312,144,o),
(288,110,o),
(245,110,cs),
(200,110,o),
(177,146,o),
(177,213,cs),
(177,308,l),
(36,308,l),
(36,238,ls),
(36,74,o),
(114,-14,o),
(247,-14,cs)
);
}
);
width = 658;
}
);
metricLeft = "ce-canadian";
metricRight = "heNunavik-canadian";
note = uni158C;
unicode = 5516;
},
{
glyphname = "raWestCree-canadian";
lastChange = "2023-01-13 15:56:36 +0000";
layers = (
{
layerId = "86DE26EB-3058-4E6D-9480-BC9D8886A6AA";
shapes = (
{
closed = 1;
nodes = (
(544,-14,o),
(623,74,o),
(623,238,cs),
(623,308,l),
(482,308,l),
(482,213,ls),
(482,146,o),
(459,110,o),
(413,110,cs),
(371,110,o),
(347,144,o),
(347,214,cs),
(347,690,l),
(221,690,l),
(16,491,l),
(100,401,l),
(296,589,l),
(206,596,l),
(206,239,ls),
(206,80,o),
(276,-14,o),
(413,-14,cs)
);
}
);
width = 659;
}
);
metricLeft = "=|heNunavik-canadian";
metricRight = "=|ce-canadian";
note = uni158D;
unicode = 5517;
},
{
glyphname = "ng-canadian";
kernLeft = mwestleft;
kernRight = mwestright;
lastChange = "2023-01-13 15:56:33 +0000";
layers = (
{
layerId = "86DE26EB-3058-4E6D-9480-BC9D8886A6AA";
shapes = (
{
closed = 1;
nodes = (
(463,217,o),
(508,262,o),
(508,343,cs),
(508,368,l),
(421,368,l),
(421,334,ls),
(421,304,o),
(410,291,o),
(389,291,cs),
(370,291,o),
(360,304,o),
(360,335,cs),
(360,524,l),
(238,524,l),
(240,483,l),
(255,495,o),
(269,529,o),
(269,570,cs),
(269,647,o),
(227,696,o),
(152,696,cs),
(77,696,o),
(34,645,o),
(34,565,cs),
(34,486,o),
(77,434,o),
(156,434,cs),
(286,434,l),
(267,457,l),
(267,347,ls),
(267,263,o),
(309,217,o),
(388,217,cs)
);
},
{
closed = 1;
nodes = (
(130,502,o),
(117,521,o),
(117,565,cs),
(117,610,o),
(130,627,o),
(152,627,cs),
(173,627,o),
(185,608,o),
(185,564,cs),
(185,522,o),
(173,502,o),
(152,502,cs)
);
}
);
width = 531;
}
);
metricLeft = "n-canadian";
metricRight = "c-canadian";
note = uni1595;
unicode = 5525;
},
{
glyphname = "nng-canadian";
kernLeft = mwestleft;
kernRight = mwestright;
lastChange = "2023-01-13 15:56:33 +0000";
layers = (
{
layerId = "86DE26EB-3058-4E6D-9480-BC9D8886A6AA";
shapes = (
{
closed = 1;
nodes = (
(724,217,o),
(770,262,o),
(770,343,cs),
(770,368,l),
(682,368,l),
(682,334,ls),
(682,304,o),
(670,291,o),
(651,291,cs),
(632,291,o),
(622,304,o),
(622,335,cs),
(622,524,l),
(503,524,l),
(503,483,l),
(519,495,o),
(532,529,o),
(532,570,cs),
(532,650,o),
(491,696,o),
(415,696,cs),
(341,696,o),
(298,645,o),
(298,566,cs),
(298,527,o),
(311,492,o),
(327,480,c),
(327,524,l),
(239,524,l),
(240,483,l),
(255,495,o),
(269,529,o),
(269,570,cs),
(269,647,o),
(227,696,o),
(152,696,cs),
(77,696,o),
(34,645,o),
(34,565,cs),
(34,486,o),
(77,434,o),
(156,434,cs),
(528,434,l),
(528,347,ls),
(528,263,o),
(571,217,o),
(650,217,cs)
);
},
{
closed = 1;
nodes = (
(130,502,o),
(117,521,o),
(117,565,cs),
(117,610,o),
(130,627,o),
(152,627,cs),
(173,627,o),
(185,608,o),
(185,564,cs),
(185,522,o),
(173,502,o),
(152,502,cs)
);
},
{
closed = 1;
nodes = (
(394,502,o),
(381,521,o),
(381,565,cs),
(381,610,o),
(394,627,o),
(415,627,cs),
(437,627,o),
(449,608,o),
(449,564,cs),
(449,522,o),
(437,502,o),
(415,502,cs)
);
}
);
width = 793;
}
);
metricLeft = "n-canadian";
metricRight = "c-canadian";
note = uni1596;
unicode = 5526;
},
{
glyphname = "sheSayisi-canadian";
lastChange = "2023-01-13 15:56:36 +0000";
layers = (
{
anchors = (
{
name = middle_right_can;
pos = (592,345);
},
{
name = top_center_can;
pos = (260,690);
}
);
layerId = "86DE26EB-3058-4E6D-9480-BC9D8886A6AA";
shapes = (
{
closed = 1;
nodes = (
(472,0,l),
(472,446,ls),
(472,608,o),
(400,703,o),
(260,703,cs),
(122,703,o),
(39,604,o),
(39,432,cs),
(39,266,o),
(102,187,o),
(185,187,cs),
(269,187,o),
(308,250,o),
(300,413,c),
(244,413,l),
(248,321,o),
(234,303,o),
(214,303,cs),
(190,303,o),
(175,328,o),
(175,436,cs),
(175,543,o),
(204,583,o),
(255,583,cs),
(304,583,o),
(329,544,o),
(329,437,cs),
(329,0,l)
);
}
);
width = 520;
}
);
metricLeft = "ke-canadian";
metricRight = "te-canadian";
note = uni1597;
unicode = 5527;
},
{
glyphname = "shiSayisi-canadian";
lastChange = "2023-01-13 15:56:33 +0000";
layers = (
{
layerId = "86DE26EB-3058-4E6D-9480-BC9D8886A6AA";
shapes = (
{
closed = 1;
nodes = (
(191,0,l),
(191,437,ls),
(191,544,o),
(217,583,o),
(267,583,cs),
(318,583,o),
(347,543,o),
(347,436,cs),
(347,329,o),
(330,303,o),
(306,303,cs),
(287,303,o),
(273,321,o),
(277,413,c),
(220,413,l),
(213,250,o),
(252,187,o),
(336,187,cs),
(418,187,o),
(482,266,o),
(482,432,cs),
(482,604,o),
(400,703,o),
(263,703,cs),
(122,703,o),
(48,608,o),
(48,446,cs),
(48,0,l)
);
}
);
width = 521;
}
);
metricLeft = "te-canadian";
metricRight = "=|ke-canadian";
note = uni1598;
unicode = 5528;
},
{
glyphname = "shoSayisi-canadian";
lastChange = "2023-01-13 15:56:36 +0000";
layers = (
{
anchors = (
{
name = top_center_can;
pos = (255,690);
},
{
name = top_left_can;
pos = (106,690);
},
{
name = top_right_can;
pos = (402,690);
}
);
layerId = "86DE26EB-3058-4E6D-9480-BC9D8886A6AA";
shapes = (
{
closed = 1;
nodes = (
(399,-14,o),
(472,82,o),
(472,243,cs),
(472,690,l),
(329,690,l),
(329,253,ls),
(329,146,o),
(304,106,o),
(255,106,cs),
(204,106,o),
(175,147,o),
(175,254,cs),
(175,360,o),
(190,386,o),
(214,386,cs),
(234,386,o),
(248,369,o),
(244,276,c),
(300,276,l),
(308,440,o),
(270,502,o),
(185,502,cs),
(102,502,o),
(39,424,o),
(39,257,cs),
(39,86,o),
(121,-14,o),
(258,-14,cs)
);
}
);
width = 520;
}
);
metricLeft = "ke-canadian";
metricRight = "te-canadian";
note = uni1599;
unicode = 5529;
},
{
glyphname = "shaSayisi-canadian";
lastChange = "2023-01-13 15:56:33 +0000";
layers = (
{
layerId = "86DE26EB-3058-4E6D-9480-BC9D8886A6AA";
shapes = (
{
closed = 1;
nodes = (
(399,-14,o),
(482,86,o),
(482,258,cs),
(482,424,o),
(419,502,o),
(337,502,cs),
(253,502,o),
(213,440,o),
(220,276,c),
(277,276,l),
(273,369,o),
(287,386,o),
(306,386,cs),
(330,386,o),
(347,361,o),
(347,254,cs),
(347,147,o),
(317,106,o),
(266,106,cs),
(216,106,o),
(191,146,o),
(191,253,cs),
(191,690,l),
(48,690,l),
(48,243,ls),
(48,82,o),
(121,-14,o),
(261,-14,cs)
);
}
);
width = 521;
}
);
metricLeft = "te-canadian";
metricRight = "=|ke-canadian";
note = uni159A;
unicode = 5530;
},
{
glyphname = "theWoodScree-canadian";
lastChange = "2023-01-13 15:56:33 +0000";
layers = (
{
layerId = "86DE26EB-3058-4E6D-9480-BC9D8886A6AA";
shapes = (
{
closed = 1;
nodes = (
(562,-14,o),
(650,72,o),
(650,238,cs),
(650,405,o),
(565,489,o),
(414,489,cs),
(42,489,l),
(42,372,l),
(278,372,l),
(268,394,l),
(237,358,o),
(220,295,o),
(220,231,cs),
(220,71,o),
(303,-14,o),
(435,-14,cs)
);
},
{
closed = 1;
nodes = (
(387,106,o),
(359,147,o),
(359,239,cs),
(359,328,o),
(387,371,o),
(435,371,cs),
(482,371,o),
(511,330,o),
(511,239,cs),
(511,147,o),
(482,106,o),
(435,106,cs)
);
},
{
closed = 1;
nodes = (
(640,573,l),
(640,690,l),
(42,690,l),
(42,573,l)
);
}
);
width = 692;
}
);
note = uni159B;
unicode = 5531;
},
{
glyphname = "thiWoodScree-canadian";
kernRight = niright;
lastChange = "2023-01-13 15:56:33 +0000";
layers = (
{
layerId = "86DE26EB-3058-4E6D-9480-BC9D8886A6AA";
shapes = (
{
closed = 1;
nodes = (
(389,-14,o),
(472,71,o),
(472,231,cs),
(472,295,o),
(455,358,o),
(424,394,c),
(413,372,l),
(650,372,l),
(650,489,l),
(278,489,ls),
(127,489,o),
(42,403,o),
(42,238,cs),
(42,72,o),
(129,-14,o),
(257,-14,cs)
);
},
{
closed = 1;
nodes = (
(210,106,o),
(182,147,o),
(182,239,cs),
(182,330,o),
(210,371,o),
(257,371,cs),
(304,371,o),
(332,328,o),
(332,239,cs),
(332,147,o),
(305,106,o),
(257,106,cs)
);
},
{
closed = 1;
nodes = (
(650,573,l),
(650,690,l),
(52,690,l),
(52,573,l)
);
}
);
width = 692;
}
);
metricLeft = "theWoodScree-canadian";
metricRight = "theWoodScree-canadian";
note = uni159C;
unicode = 5532;
},
{
glyphname = "thoWoodScree-canadian";
lastChange = "2023-01-13 15:56:33 +0000";
layers = (
{
layerId = "86DE26EB-3058-4E6D-9480-BC9D8886A6AA";
shapes = (
{
closed = 1;
nodes = (
(416,0,ls),
(565,0,o),
(650,85,o),
(650,251,cs),
(650,416,o),
(563,503,o),
(435,503,cs),
(303,503,o),
(220,416,o),
(220,258,cs),
(220,195,o),
(237,131,o),
(268,96,c),
(278,117,l),
(42,117,l),
(42,0,l)
);
},
{
closed = 1;
nodes = (
(387,119,o),
(359,161,o),
(359,250,cs),
(359,342,o),
(387,383,o),
(435,383,cs),
(482,383,o),
(511,343,o),
(511,250,cs),
(511,158,o),
(482,119,o),
(435,119,cs)
);
},
{
closed = 1;
nodes = (
(640,573,l),
(640,690,l),
(42,690,l),
(42,573,l)
);
}
);
width = 692;
}
);
metricLeft = "theWoodScree-canadian";
metricRight = "theWoodScree-canadian";
note = uni159D;
unicode = 5533;
},
{
glyphname = "thaWoodScree-canadian";
lastChange = "2023-01-13 15:56:33 +0000";
layers = (
{
layerId = "86DE26EB-3058-4E6D-9480-BC9D8886A6AA";
shapes = (
{
closed = 1;
nodes = (
(650,0,l),
(650,117,l),
(413,117,l),
(424,95,l),
(455,130,o),
(472,194,o),
(472,258,cs),
(472,417,o),
(389,503,o),
(257,503,cs),
(129,503,o),
(42,416,o),
(42,251,cs),
(42,86,o),
(127,0,o),
(276,0,cs)
);
},
{
closed = 1;
nodes = (
(210,119,o),
(182,158,o),
(182,250,cs),
(182,343,o),
(210,383,o),
(257,383,cs),
(305,383,o),
(332,342,o),
(332,250,cs),
(332,161,o),
(304,119,o),
(257,119,cs)
);
},
{
closed = 1;
nodes = (
(650,573,l),
(650,690,l),
(52,690,l),
(52,573,l)
);
}
);
width = 692;
}
);
metricLeft = "theWoodScree-canadian";
metricRight = "theWoodScree-canadian";
note = uni159E;
unicode = 5534;
},
{
glyphname = "thWoodScree-canadian";
lastChange = "2023-01-13 15:56:33 +0000";
layers = (
{
layerId = "86DE26EB-3058-4E6D-9480-BC9D8886A6AA";
shapes = (
{
closed = 1;
nodes = (
(374,344,l),
(374,426,l),
(243,426,l),
(248,392,l),
(265,404,o),
(278,439,o),
(278,480,cs),
(278,557,o),
(237,606,o),
(161,606,cs),
(87,606,o),
(43,555,o),
(43,475,cs),
(43,396,o),
(87,344,o),
(166,344,cs)
);
},
{
closed = 1;
nodes = (
(140,412,o),
(127,431,o),
(127,475,cs),
(127,520,o),
(140,537,o),
(161,537,cs),
(183,537,o),
(195,518,o),
(195,474,cs),
(195,432,o),
(183,412,o),
(161,412,cs)
);
},
{
closed = 1;
nodes = (
(364,647,l),
(364,729,l),
(47,729,l),
(47,647,l)
);
}
);
width = 417;
}
);
metricRight = "=|";
note = uni159F;
unicode = 5535;
},
{
glyphname = "lhi-canadian";
kernRight = niright;
lastChange = "2023-01-13 15:56:33 +0000";
layers = (
{
anchors = (
{
name = top_center_can;
pos = (361,690);
},
{
name = top_right_can;
pos = (462,690);
}
);
layerId = "86DE26EB-3058-4E6D-9480-BC9D8886A6AA";
shapes = (
{
closed = 1;
nodes = (
(320,0,l),
(320,125,l),
(297,125,ls),
(219,125,o),
(180,164,o),
(180,242,cs),
(180,321,o),
(218,360,o),
(293,360,cs),
(646,360,l),
(646,474,l),
(492,737,l),
(384,673,l),
(539,411,l),
(537,489,l),
(285,489,ls),
(135,489,o),
(39,404,o),
(39,243,cs),
(39,85,o),
(133,0,o),
(285,0,cs)
);
}
);
width = 683;
}
);
metricLeft = "ke-canadian";
metricRight = "=|ne-canadian";
note = uni15A0;
unicode = 5536;
},
{
glyphname = "lho-canadian";
kernLeft = noleft;
lastChange = "2023-01-13 15:56:33 +0000";
layers = (
{
anchors = (
{
name = top_center_can;
pos = (340,506);
},
{
name = top_right_can;
pos = (428,506);
}
);
layerId = "86DE26EB-3058-4E6D-9480-BC9D8886A6AA";
shapes = (
{
closed = 1;
nodes = (
(299,-185,l),
(145,78,l),
(146,0,l),
(399,0,ls),
(549,0,o),
(645,85,o),
(645,245,cs),
(645,405,o),
(551,489,o),
(400,489,cs),
(364,489,l),
(364,364,l),
(387,364,ls),
(465,364,o),
(504,325,o),
(504,247,cs),
(504,168,o),
(465,128,o),
(391,128,cs),
(37,128,l),
(37,14,l),
(192,-249,l)
);
}
);
width = 684;
}
);
metricLeft = "ne-canadian";
metricRight = "=|ke-canadian";
note = uni15A2;
unicode = 5538;
},
{
glyphname = "lha-canadian";
kernRight = naright;
lastChange = "2023-01-13 15:56:33 +0000";
layers = (
{
anchors = (
{
name = top_center_can;
pos = (346,506);
},
{
name = top_left_can;
pos = (257,506);
}
);
layerId = "86DE26EB-3058-4E6D-9480-BC9D8886A6AA";
shapes = (
{
closed = 1;
nodes = (
(646,14,l),
(646,128,l),
(293,128,ls),
(219,128,o),
(180,168,o),
(180,247,cs),
(180,325,o),
(219,364,o),
(296,364,cs),
(320,364,l),
(320,489,l),
(284,489,ls),
(132,489,o),
(39,404,o),
(39,244,cs),
(39,85,o),
(135,0,o),
(285,0,cs),
(537,0,l),
(539,79,l),
(384,-185,l),
(492,-249,l)
);
}
);
width = 683;
}
);
metricLeft = "ke-canadian";
metricRight = "=|ne-canadian";
note = uni15A4;
unicode = 5540;
},
{
glyphname = "lh-canadian";
kernLeft = mwestleft;
kernRight = mwestright;
lastChange = "2023-01-13 15:56:33 +0000";
layers = (
{
layerId = "86DE26EB-3058-4E6D-9480-BC9D8886A6AA";
shapes = (
{
closed = 1;
nodes = (
(362,355,l),
(362,434,l),
(214,434,ls),
(160,434,o),
(133,464,o),
(133,517,cs),
(133,571,o),
(160,602,o),
(206,602,cs),
(214,602,l),
(214,690,l),
(199,690,ls),
(97,690,o),
(40,618,o),
(40,518,cs),
(40,412,o),
(97,344,o),
(213,344,cs),
(300,344,l),
(293,397,l),
(203,250,l),
(274,207,l)
);
}
);
width = 402;
}
);
metricLeft = "t-canadian";
metricRight = "=|";
note = uni15A6;
unicode = 5542;
},
{
glyphname = "theThCree-canadian";
lastChange = "2023-01-13 15:56:33 +0000";
layers = (
{
anchors = (
{
name = top_left_can;
pos = (97,690);
},
{
name = top_right_can;
pos = (371,690);
}
);
layerId = "86DE26EB-3058-4E6D-9480-BC9D8886A6AA";
shapes = (
{
closed = 1;
nodes = (
(441,0,l),
(441,82,l),
(500,82,l),
(500,159,l),
(441,159,l),
(441,345,l),
(189,345,l),
(216,300,l),
(466,622,l),
(364,701,l),
(26,258,l),
(26,221,l),
(299,221,l),
(299,159,l),
(125,159,l),
(125,82,l),
(299,82,l),
(299,0,l)
);
}
);
width = 525;
}
);
metricLeft = "ye-canadian";
note = uni15A7;
unicode = 5543;
},
{
glyphname = "thiThCree-canadian";
kernRight = yiright;
lastChange = "2023-01-13 15:56:36 +0000";
layers = (
{
anchors = (
{
name = top_left_can;
pos = (156,690);
},
{
name = top_right_can;
pos = (430,690);
}
);
layerId = "86DE26EB-3058-4E6D-9480-BC9D8886A6AA";
shapes = (
{
closed = 1;
nodes = (
(226,0,l),
(226,82,l),
(402,82,l),
(402,159,l),
(226,159,l),
(226,221,l),
(499,221,l),
(499,258,l),
(161,701,l),
(60,622,l),
(319,288,l),
(336,345,l),
(84,345,l),
(84,159,l),
(25,159,l),
(25,82,l),
(84,82,l),
(84,0,l)
);
}
);
width = 525;
}
);
metricLeft = "=|theThCree-canadian";
metricRight = "=|ye-canadian";
note = uni15A8;
unicode = 5544;
},
{
glyphname = "thoThCree-canadian";
kernLeft = yoleft;
lastChange = "2023-01-13 15:56:33 +0000";
layers = (
{
anchors = (
{
name = top_left_can;
pos = (97,690);
},
{
name = top_right_can;
pos = (371,690);
}
);
layerId = "86DE26EB-3058-4E6D-9480-BC9D8886A6AA";
shapes = (
{
closed = 1;
nodes = (
(466,68,l),
(216,389,l),
(189,345,l),
(441,345,l),
(441,530,l),
(500,530,l),
(500,608,l),
(441,608,l),
(441,690,l),
(299,690,l),
(299,608,l),
(125,608,l),
(125,530,l),
(299,530,l),
(299,469,l),
(26,469,l),
(26,432,l),
(364,-12,l)
);
}
);
width = 525;
}
);
metricLeft = "ye-canadian";
metricRight = "theThCree-canadian";
note = uni15AA;
unicode = 5546;
},
{
glyphname = "thaThCree-canadian";
kernRight = yaright;
lastChange = "2023-01-13 15:56:36 +0000";
layers = (
{
anchors = (
{
name = top_left_can;
pos = (156,690);
},
{
name = top_right_can;
pos = (430,690);
}
);
layerId = "86DE26EB-3058-4E6D-9480-BC9D8886A6AA";
shapes = (
{
closed = 1;
nodes = (
(499,432,l),
(499,469,l),
(226,469,l),
(226,530,l),
(402,530,l),
(402,608,l),
(226,608,l),
(226,690,l),
(84,690,l),
(84,608,l),
(25,608,l),
(25,530,l),
(84,530,l),
(84,345,l),
(336,345,l),
(309,389,l),
(60,68,l),
(161,-12,l)
);
}
);
width = 525;
}
);
metricLeft = "=|theThCree-canadian";
metricRight = "=|ye-canadian";
note = uni15AC;
unicode = 5548;
},
{
glyphname = "thThCree-canadian";
kernLeft = mwestleft;
kernRight = mwestright;
lastChange = "2023-01-13 15:56:36 +0000";
layers = (
{
layerId = "86DE26EB-3058-4E6D-9480-BC9D8886A6AA";
shapes = (
{
closed = 1;
nodes = (
(285,554,l),
(285,580,l),
(156,580,l),
(156,614,l),
(235,614,l),
(235,654,l),
(156,654,l),
(156,690,l),
(63,690,l),
(63,654,l),
(32,654,l),
(32,614,l),
(63,614,l),
(63,501,l),
(208,501,l),
(185,557,l),
(57,384,l),
(127,336,l)
);
}
);
width = 306;
}
);
metricRight = "y-canadian";
note = uni15AE;
unicode = 5550;
},
{
glyphname = "bAivilik-canadian";
lastChange = "2023-01-13 15:56:33 +0000";
layers = (
{
layerId = "86DE26EB-3058-4E6D-9480-BC9D8886A6AA";
shapes = (
{
closed = 1;
nodes = (
(400,-14,o),
(477,87,o),
(477,248,cs),
(477,401,o),
(402,503,o),
(292,503,cs),
(232,503,o),
(192,471,o),
(183,437,c),
(193,405,l),
(193,690,l),
(51,690,l),
(51,0,l),
(182,0,l),
(182,74,l),
(177,59,l),
(192,18,o),
(228,-14,o),
(293,-14,cs)
);
},
{
closed = 1;
nodes = (
(220,106,o),
(192,146,o),
(192,244,cs),
(192,343,o),
(222,383,o),
(265,383,cs),
(308,383,o),
(338,342,o),
(338,244,cs),
(338,147,o),
(310,106,o),
(265,106,cs)
);
}
);
width = 516;
}
);
metricLeft = "nunavuth-canadian";
metricRight = "=|ke-canadian";
note = uni15AF;
unicode = 5551;
},
{
glyphname = "eBlackfoot-canadian";
lastChange = "2023-01-13 15:56:33 +0000";
layers = (
{
layerId = "86DE26EB-3058-4E6D-9480-BC9D8886A6AA";
shapes = (
{
closed = 1;
nodes = (
(193,0,l),
(193,400,l),
(219,364,o),
(259,344,o),
(306,344,cs),
(400,344,o),
(458,420,o),
(458,525,cs),
(458,628,o),
(400,703,o),
(306,703,cs),
(254,703,o),
(210,678,o),
(185,637,c),
(185,690,l),
(51,690,l),
(51,0,l)
);
}
);
width = 490;
}
);
metricLeft = "nunavuth-canadian";
note = uni15B0;
unicode = 5552;
},
{
glyphname = "iBlackfoot-canadian";
lastChange = "2023-01-13 15:56:33 +0000";
layers = (
{
layerId = "86DE26EB-3058-4E6D-9480-BC9D8886A6AA";
shapes = (
{
closed = 1;
nodes = (
(236,-14,o),
(280,12,o),
(303,53,c),
(303,0,l),
(439,0,l),
(439,690,l),
(296,690,l),
(296,290,l),
(270,326,o),
(231,346,o),
(184,346,cs),
(89,346,o),
(32,270,o),
(32,165,cs),
(32,62,o),
(89,-14,o),
(184,-14,cs)
);
}
);
width = 490;
}
);
metricLeft = "=|eBlackfoot-canadian";
metricRight = "nunavuth-canadian";
note = uni15B1;
unicode = 5553;
},
{
glyphname = "oBlackfoot-canadian";
lastChange = "2023-01-13 15:56:33 +0000";
layers = (
{
layerId = "86DE26EB-3058-4E6D-9480-BC9D8886A6AA";
shapes = (
{
closed = 1;
nodes = (
(400,-14,o),
(458,62,o),
(458,165,cs),
(458,270,o),
(400,346,o),
(306,346,cs),
(259,346,o),
(219,326,o),
(193,290,c),
(193,690,l),
(51,690,l),
(51,0,l),
(185,0,l),
(185,53,l),
(210,12,o),
(254,-14,o),
(306,-14,cs)
);
}
);
width = 490;
}
);
metricLeft = "nunavuth-canadian";
metricRight = "eBlackfoot-canadian";
note = uni15B2;
unicode = 5554;
},
{
glyphname = "aBlackfoot-canadian";
lastChange = "2023-01-13 15:56:33 +0000";
layers = (
{
layerId = "86DE26EB-3058-4E6D-9480-BC9D8886A6AA";
shapes = (
{
closed = 1;
nodes = (
(439,0,l),
(439,690,l),
(303,690,l),
(303,637,l),
(280,678,o),
(236,703,o),
(184,703,cs),
(89,703,o),
(32,628,o),
(32,525,cs),
(32,420,o),
(89,344,o),
(184,344,cs),
(231,344,o),
(270,364,o),
(296,400,c),
(296,0,l)
);
}
);
width = 490;
}
);
metricLeft = "=|eBlackfoot-canadian";
metricRight = "nunavuth-canadian";
note = uni15B3;
unicode = 5555;
},
{
glyphname = "weBlackfoot-canadian";
lastChange = "2023-01-13 15:56:33 +0000";
layers = (
{
layerId = "86DE26EB-3058-4E6D-9480-BC9D8886A6AA";
shapes = (
{
closed = 1;
nodes = (
(193,282,l),
(463,282,l),
(463,404,l),
(193,404,l),
(193,569,l),
(463,569,l),
(463,690,l),
(51,690,l),
(51,0,l),
(193,0,l)
);
}
);
width = 506;
}
);
metricLeft = "nunavuth-canadian";
note = uni15B4;
unicode = 5556;
},
{
glyphname = "wiBlackfoot-canadian";
lastChange = "2023-01-13 15:56:33 +0000";
layers = (
{
layerId = "86DE26EB-3058-4E6D-9480-BC9D8886A6AA";
shapes = (
{
closed = 1;
nodes = (
(456,0,l),
(456,690,l),
(313,690,l),
(313,408,l),
(43,408,l),
(43,286,l),
(313,286,l),
(313,121,l),
(43,121,l),
(43,0,l)
);
}
);
width = 507;
}
);
metricLeft = "=|weBlackfoot-canadian";
metricRight = "nunavuth-canadian";
note = uni15B5;
unicode = 5557;
},
{
glyphname = "woBlackfoot-canadian";
lastChange = "2023-01-13 15:56:33 +0000";
layers = (
{
layerId = "86DE26EB-3058-4E6D-9480-BC9D8886A6AA";
shapes = (
{
closed = 1;
nodes = (
(463,0,l),
(463,121,l),
(193,121,l),
(193,286,l),
(463,286,l),
(463,408,l),
(193,408,l),
(193,690,l),
(51,690,l),
(51,0,l)
);
}
);
width = 506;
}
);
metricLeft = "nunavuth-canadian";
metricRight = "weBlackfoot-canadian";
note = uni15B6;
unicode = 5558;
},
{
glyphname = "waBlackfoot-canadian";
lastChange = "2023-01-13 15:56:33 +0000";
layers = (
{
layerId = "86DE26EB-3058-4E6D-9480-BC9D8886A6AA";
shapes = (
{
closed = 1;
nodes = (
(456,0,l),
(456,690,l),
(43,690,l),
(43,569,l),
(313,569,l),
(313,404,l),
(43,404,l),
(43,282,l),
(313,282,l),
(313,0,l)
);
}
);
width = 507;
}
);
metricLeft = "=|weBlackfoot-canadian";
metricRight = "nunavuth-canadian";
note = uni15B7;
unicode = 5559;
},
{
glyphname = "neBlackfoot-canadian";
lastChange = "2023-01-13 15:56:33 +0000";
layers = (
{
layerId = "86DE26EB-3058-4E6D-9480-BC9D8886A6AA";
shapes = (
{
closed = 1;
nodes = (
(193,0,l),
(193,586,l),
(243,586,l),
(206,667,l),
(206,646,ls),
(206,481,o),
(279,386,o),
(414,386,cs),
(548,386,o),
(630,485,o),
(630,644,cs),
(630,690,l),
(491,690,l),
(491,629,ls),
(491,553,o),
(466,510,o),
(418,510,cs),
(370,510,o),
(345,552,o),
(345,628,cs),
(345,690,l),
(51,690,l),
(51,0,l)
);
}
);
width = 654;
}
);
metricLeft = "nunavuth-canadian";
note = uni15B8;
unicode = 5560;
},
{
glyphname = "niBlackfoot-canadian";
lastChange = "2023-01-13 15:56:33 +0000";
layers = (
{
layerId = "86DE26EB-3058-4E6D-9480-BC9D8886A6AA";
shapes = (
{
closed = 1;
nodes = (
(163,0,l),
(163,61,ls),
(163,137,o),
(188,180,o),
(237,180,cs),
(284,180,o),
(309,138,o),
(309,62,cs),
(309,0,l),
(603,0,l),
(603,690,l),
(461,690,l),
(461,103,l),
(411,103,l),
(448,23,l),
(448,43,ls),
(448,209,o),
(375,303,o),
(241,303,cs),
(106,303,o),
(24,205,o),
(24,45,cs),
(24,0,l)
);
}
);
width = 654;
}
);
metricLeft = "=|neBlackfoot-canadian";
metricRight = "nunavuth-canadian";
note = uni15B9;
unicode = 5561;
},
{
glyphname = "noBlackfoot-canadian";
lastChange = "2023-01-13 15:56:33 +0000";
layers = (
{
layerId = "86DE26EB-3058-4E6D-9480-BC9D8886A6AA";
shapes = (
{
closed = 1;
nodes = (
(345,0,l),
(345,62,ls),
(345,138,o),
(370,180,o),
(418,180,cs),
(466,180,o),
(491,137,o),
(491,61,cs),
(491,0,l),
(630,0,l),
(630,45,ls),
(630,205,o),
(548,303,o),
(414,303,cs),
(279,303,o),
(206,209,o),
(206,43,cs),
(206,23,l),
(243,103,l),
(193,103,l),
(193,690,l),
(51,690,l),
(51,0,l)
);
}
);
width = 654;
}
);
metricLeft = "nunavuth-canadian";
metricRight = "neBlackfoot-canadian";
note = uni15BA;
unicode = 5562;
},
{
glyphname = "naBlackfoot-canadian";
lastChange = "2023-01-13 15:56:33 +0000";
layers = (
{
layerId = "86DE26EB-3058-4E6D-9480-BC9D8886A6AA";
shapes = (
{
closed = 1;
nodes = (
(603,0,l),
(603,690,l),
(309,690,l),
(309,628,ls),
(309,552,o),
(284,510,o),
(237,510,cs),
(188,510,o),
(163,553,o),
(163,629,cs),
(163,690,l),
(24,690,l),
(24,644,ls),
(24,485,o),
(106,386,o),
(241,386,cs),
(375,386,o),
(448,481,o),
(448,646,cs),
(448,667,l),
(411,586,l),
(461,586,l),
(461,0,l)
);
}
);
width = 654;
}
);
metricLeft = "=|neBlackfoot-canadian";
metricRight = "nunavuth-canadian";
note = uni15BB;
unicode = 5563;
},
{
glyphname = "keBlackfoot-canadian";
lastChange = "2023-01-13 15:56:33 +0000";
layers = (
{
layerId = "86DE26EB-3058-4E6D-9480-BC9D8886A6AA";
shapes = (
{
closed = 1;
nodes = (
(193,0,l),
(193,526,l),
(148,526,l),
(273,251,l),
(332,251,l),
(534,690,l),
(392,690,l),
(262,404,l),
(315,404,l),
(185,690,l),
(51,690,l),
(51,0,l)
);
}
);
width = 543;
}
);
metricLeft = "nunavuth-canadian";
note = uni15BC;
unicode = 5564;
},
{
glyphname = "kiBlackfoot-canadian";
lastChange = "2023-01-13 15:56:33 +0000";
layers = (
{
layerId = "86DE26EB-3058-4E6D-9480-BC9D8886A6AA";
shapes = (
{
closed = 1;
nodes = (
(151,0,l),
(281,286,l),
(228,286,l),
(358,0,l),
(492,0,l),
(492,690,l),
(349,690,l),
(349,164,l),
(395,164,l),
(270,439,l),
(211,439,l),
(9,0,l)
);
}
);
width = 543;
}
);
metricLeft = "=|keBlackfoot-canadian";
metricRight = "nunavuth-canadian";
note = uni15BD;
unicode = 5565;
},
{
glyphname = "koBlackfoot-canadian";
lastChange = "2023-01-13 15:56:33 +0000";
layers = (
{
layerId = "86DE26EB-3058-4E6D-9480-BC9D8886A6AA";
shapes = (
{
closed = 1;
nodes = (
(185,0,l),
(315,286,l),
(262,286,l),
(392,0,l),
(534,0,l),
(332,439,l),
(273,439,l),
(148,164,l),
(193,164,l),
(193,690,l),
(51,690,l),
(51,0,l)
);
}
);
width = 543;
}
);
metricLeft = "nunavuth-canadian";
metricRight = "keBlackfoot-canadian";
note = uni15BE;
unicode = 5566;
},
{
glyphname = "kaBlackfoot-canadian";
lastChange = "2023-01-13 15:56:33 +0000";
layers = (
{
layerId = "86DE26EB-3058-4E6D-9480-BC9D8886A6AA";
shapes = (
{
closed = 1;
nodes = (
(492,0,l),
(492,690,l),
(358,690,l),
(228,404,l),
(281,404,l),
(151,690,l),
(9,690,l),
(211,251,l),
(270,251,l),
(395,526,l),
(349,526,l),
(349,0,l)
);
}
);
width = 543;
}
);
metricLeft = "=|keBlackfoot-canadian";
metricRight = "nunavuth-canadian";
note = uni15BF;
unicode = 5567;
},
{
color = 9;
glyphname = "heSayisi-canadian";
lastChange = "2023-01-13 15:56:33 +0000";
layers = (
{
anchors = (
{
name = top_right_can;
pos = (473,690);
}
);
layerId = "86DE26EB-3058-4E6D-9480-BC9D8886A6AA";
shapes = (
{
closed = 1;
nodes = (
(544,0,l),
(544,690,l),
(403,690,l),
(403,354,l),
(425,354,l),
(421,583,o),
(331,703,o),
(217,703,cs),
(105,703,o),
(35,613,o),
(35,440,cs),
(35,405,o),
(38,367,o),
(44,330,c),
(180,330,l),
(175,360,o),
(172,397,o),
(172,421,cs),
(172,538,o),
(205,580,o),
(252,580,cs),
(330,580,o),
(398,452,o),
(401,0,c)
);
}
);
width = 595;
}
);
metricRight = "nunavuth-canadian";
note = uni15C0;
unicode = 5568;
},
{
color = 9;
glyphname = "hiSayisi-canadian";
lastChange = "2023-01-13 15:56:33 +0000";
layers = (
{
layerId = "86DE26EB-3058-4E6D-9480-BC9D8886A6AA";
shapes = (
{
closed = 1;
nodes = (
(193,0,l),
(197,452,o),
(265,580,o),
(343,580,cs),
(390,580,o),
(423,538,o),
(423,421,cs),
(423,397,o),
(420,360,o),
(415,330,c),
(551,330,l),
(557,367,o),
(560,405,o),
(560,440,cs),
(560,613,o),
(490,703,o),
(378,703,cs),
(264,703,o),
(174,583,o),
(170,354,c),
(192,354,l),
(192,690,l),
(51,690,l),
(51,0,l)
);
}
);
width = 595;
}
);
metricLeft = "nunavuth-canadian";
metricRight = "=|heSayisi-canadian";
note = uni15C1;
unicode = 5569;
},
{
color = 9;
glyphname = "hoSayisi-canadian";
lastChange = "2023-01-13 15:56:33 +0000";
layers = (
{
anchors = (
{
name = top_center_can;
pos = (293,690);
},
{
name = top_left_can;
pos = (112,690);
},
{
name = top_right_can;
pos = (473,690);
}
);
layerId = "86DE26EB-3058-4E6D-9480-BC9D8886A6AA";
shapes = (
{
closed = 1;
nodes = (
(331,-14,o),
(421,106,o),
(425,336,c),
(403,336,l),
(403,0,l),
(544,0,l),
(544,690,l),
(401,690,l),
(398,238,o),
(330,110,o),
(252,110,cs),
(205,110,o),
(172,152,o),
(172,269,cs),
(172,293,o),
(175,329,o),
(180,359,c),
(44,359,l),
(38,323,o),
(35,285,o),
(35,250,cs),
(35,76,o),
(105,-14,o),
(217,-14,cs)
);
}
);
width = 595;
}
);
metricLeft = "heSayisi-canadian";
metricRight = "nunavuth-canadian";
note = uni15C2;
unicode = 5570;
},
{
color = 9;
glyphname = "haSayisi-canadian";
lastChange = "2023-01-13 15:56:33 +0000";
layers = (
{
layerId = "86DE26EB-3058-4E6D-9480-BC9D8886A6AA";
shapes = (
{
closed = 1;
nodes = (
(490,-14,o),
(560,76,o),
(560,250,cs),
(560,285,o),
(557,323,o),
(551,359,c),
(415,359,l),
(420,329,o),
(423,293,o),
(423,269,cs),
(423,152,o),
(390,110,o),
(343,110,cs),
(265,110,o),
(197,238,o),
(193,690,c),
(51,690,l),
(51,0,l),
(192,0,l),
(192,336,l),
(170,336,l),
(174,106,o),
(264,-14,o),
(378,-14,cs)
);
}
);
width = 595;
}
);
metricLeft = "nunavuth-canadian";
metricRight = "=|heSayisi-canadian";
note = uni15C3;
unicode = 5571;
},
{
color = 9;
glyphname = "ghuCarrier-canadian";
lastChange = "2023-01-13 15:56:33 +0000";
layers = (
{
layerId = "86DE26EB-3058-4E6D-9480-BC9D8886A6AA";
shapes = (
{
closed = 1;
nodes = (
(327,0,l),
(596,655,l),
(596,690,l),
(481,690,l),
(406,498,l),
(476,518,l),
(142,518,l),
(214,496,l),
(137,690,l),
(18,690,l),
(18,655,l),
(287,0,l)
);
},
{
closed = 1;
nodes = (
(442,413,l),
(384,427,l),
(285,176,l),
(333,176,l),
(234,431,l),
(177,413,l)
);
}
);
width = 614;
}
);
metricLeft = "e-canadian";
metricRight = "e-canadian";
note = uni15C4;
unicode = 5572;
},
{
color = 9;
glyphname = "ghoCarrier-canadian";
lastChange = "2023-01-13 15:56:33 +0000";
layers = (
{
layerId = "86DE26EB-3058-4E6D-9480-BC9D8886A6AA";
shapes = (
{
closed = 1;
nodes = (
(137,0,l),
(214,194,l),
(142,172,l),
(476,172,l),
(406,191,l),
(481,0,l),
(596,0,l),
(596,35,l),
(327,690,l),
(287,690,l),
(18,35,l),
(18,0,l)
);
},
{
closed = 1;
nodes = (
(333,514,l),
(285,514,l),
(384,263,l),
(442,276,l),
(177,276,l),
(234,259,l)
);
}
);
width = 614;
}
);
metricLeft = "e-canadian";
metricRight = "e-canadian";
note = uni15C5;
unicode = 5573;
},
{
color = 9;
glyphname = "gheCarrier-canadian";
lastChange = "2023-01-13 15:56:36 +0000";
layers = (
{
anchors = (
{
name = middle_center_can;
pos = (64,345);
}
);
layerId = "86DE26EB-3058-4E6D-9480-BC9D8886A6AA";
shapes = (
{
closed = 1;
nodes = (
(68,0,l),
(527,323,l),
(527,367,l),
(68,690,l),
(35,690,l),
(35,574,l),
(156,487,l),
(151,549,l),
(151,135,l),
(156,201,l),
(35,115,l),
(35,0,l)
);
},
{
closed = 1;
nodes = (
(248,501,l),
(227,453,l),
(429,309,l),
(429,382,l),
(227,239,l),
(248,190,l)
);
}
);
width = 553;
}
);
metricLeft = "po-canadian";
metricRight = "o-canadian";
note = uni15C6;
unicode = 5574;
},
{
color = 9;
glyphname = "ghaCarrier-canadian";
lastChange = "2023-01-13 15:56:33 +0000";
layers = (
{
layerId = "86DE26EB-3058-4E6D-9480-BC9D8886A6AA";
shapes = (
{
closed = 1;
nodes = (
(519,0,l),
(519,114,l),
(399,200,l),
(407,146,l),
(407,544,l),
(399,489,l),
(519,574,l),
(519,690,l),
(486,690,l),
(26,367,l),
(26,323,l),
(486,0,l)
);
},
{
closed = 1;
nodes = (
(329,236,l),
(126,381,l),
(126,308,l),
(329,453,l),
(308,478,l),
(308,220,l)
);
}
);
width = 554;
}
);
metricLeft = "=|o-canadian";
metricRight = "=|po-canadian";
note = uni15C9;
unicode = 5577;
},
{
color = 9;
glyphname = "ruCarrier-canadian";
lastChange = "2023-01-13 15:56:33 +0000";
layers = (
{
layerId = "86DE26EB-3058-4E6D-9480-BC9D8886A6AA";
shapes = (
{
closed = 1;
nodes = (
(327,0,l),
(596,655,l),
(596,690,l),
(482,690,l),
(449,607,l),
(478,623,l),
(138,623,l),
(172,606,l),
(139,690,l),
(18,690,l),
(18,655,l),
(287,0,l)
);
},
{
closed = 1;
nodes = (
(448,517,l),
(430,541,l),
(288,177,l),
(336,177,l),
(193,540,l),
(167,517,l)
);
}
);
width = 614;
}
);
metricLeft = "e-canadian";
metricRight = "e-canadian";
note = uni15CA;
unicode = 5578;
},
{
color = 9;
glyphname = "roCarrier-canadian";
lastChange = "2023-01-13 15:56:33 +0000";
layers = (
{
layerId = "86DE26EB-3058-4E6D-9480-BC9D8886A6AA";
shapes = (
{
closed = 1;
nodes = (
(138,0,l),
(171,83,l),
(140,67,l),
(479,67,l),
(447,84,l),
(481,0,l),
(596,0,l),
(596,35,l),
(327,690,l),
(287,690,l),
(18,35,l),
(18,0,l)
);
},
{
closed = 1;
nodes = (
(331,514,l),
(283,514,l),
(427,150,l),
(451,173,l),
(170,173,l),
(189,149,l)
);
}
);
width = 614;
}
);
metricLeft = "e-canadian";
metricRight = "e-canadian";
note = uni15CB;
unicode = 5579;
},
{
color = 9;
glyphname = "reCarrier-canadian";
lastChange = "2023-01-13 15:56:36 +0000";
layers = (
{
layerId = "86DE26EB-3058-4E6D-9480-BC9D8886A6AA";
shapes = (
{
closed = 1;
nodes = (
(69,0,l),
(527,323,l),
(527,367,l),
(69,690,l),
(35,690,l),
(35,571,l),
(100,524,l),
(86,557,l),
(86,131,l),
(100,166,l),
(35,118,l),
(35,0,l)
);
},
{
closed = 1;
nodes = (
(188,531,l),
(175,482,l),
(418,308,l),
(418,381,l),
(175,207,l),
(188,156,l)
);
}
);
width = 553;
}
);
metricLeft = "po-canadian";
metricRight = "o-canadian";
note = uni15CC;
unicode = 5580;
},
{
color = 9;
glyphname = "reeCarrier-canadian";
lastChange = "2023-01-13 15:56:36 +0000";
layers = (
{
layerId = "86DE26EB-3058-4E6D-9480-BC9D8886A6AA";
shapes = (
{
closed = 1;
nodes = (
(69,0,l),
(527,323,l),
(527,367,l),
(69,690,l),
(35,690,l),
(35,589,l),
(100,541,l),
(86,559,l),
(86,128,l),
(100,147,l),
(35,99,l),
(35,0,l)
);
},
{
closed = 1;
nodes = (
(173,534,l),
(163,508,l),
(446,308,l),
(446,381,l),
(161,179,l),
(173,157,l)
);
},
{
closed = 1;
nodes = (
(253,276,l),
(253,413,l),
(207,413,l),
(207,276,l)
);
}
);
width = 553;
}
);
metricLeft = "po-canadian";
metricRight = "o-canadian";
note = uni15CD;
unicode = 5581;
},
{
color = 9;
glyphname = "riCarrier-canadian";
lastChange = "2023-01-13 15:56:36 +0000";
layers = (
{
layerId = "86DE26EB-3058-4E6D-9480-BC9D8886A6AA";
shapes = (
{
closed = 1;
nodes = (
(69,0,l),
(527,323,l),
(527,367,l),
(69,690,l),
(35,690,l),
(35,589,l),
(100,541,l),
(86,559,l),
(86,128,l),
(100,147,l),
(35,99,l),
(35,0,l)
);
},
{
closed = 1;
nodes = (
(269,300,o),
(291,320,o),
(291,345,cs),
(291,370,o),
(269,389,o),
(245,389,cs),
(222,389,o),
(200,370,o),
(200,345,cs),
(200,320,o),
(222,300,o),
(245,300,cs)
);
},
{
closed = 1;
nodes = (
(173,534,l),
(163,508,l),
(446,308,l),
(446,381,l),
(161,179,l),
(173,157,l)
);
}
);
width = 553;
}
);
metricLeft = "po-canadian";
metricRight = "o-canadian";
note = uni15CE;
unicode = 5582;
},
{
color = 9;
glyphname = "raCarrier-canadian";
lastChange = "2023-01-13 15:56:33 +0000";
layers = (
{
layerId = "86DE26EB-3058-4E6D-9480-BC9D8886A6AA";
shapes = (
{
closed = 1;
nodes = (
(519,0,l),
(519,119,l),
(455,166,l),
(468,101,l),
(468,589,l),
(455,525,l),
(519,572,l),
(519,690,l),
(485,690,l),
(26,367,l),
(26,323,l),
(485,0,l)
);
},
{
closed = 1;
nodes = (
(381,484,l),
(366,534,l),
(366,156,l),
(381,207,l),
(135,382,l),
(135,309,l)
);
}
);
width = 554;
}
);
metricLeft = "=|o-canadian";
metricRight = "=|po-canadian";
note = uni15CF;
unicode = 5583;
},
{
color = 9;
glyphname = "wuCarrier-canadian";
lastChange = "2023-01-13 15:56:36 +0000";
layers = (
{
layerId = "86DE26EB-3058-4E6D-9480-BC9D8886A6AA";
shapes = (
{
closed = 1;
nodes = (
(335,0,l),
(611,655,l),
(611,690,l),
(504,690,l),
(345,269,l),
(373,269,l),
(373,690,l),
(268,690,l),
(268,269,l),
(297,269,l),
(132,690,l),
(18,690,l),
(18,655,l),
(295,0,l)
);
}
);
width = 629;
}
);
metricLeft = "e-canadian";
metricRight = "e-canadian";
note = uni15D0;
unicode = 5584;
},
{
color = 9;
glyphname = "woCarrier-canadian";
lastChange = "2023-01-13 15:56:36 +0000";
layers = (
{
layerId = "86DE26EB-3058-4E6D-9480-BC9D8886A6AA";
shapes = (
{
closed = 1;
nodes = (
(130,0,l),
(293,421,l),
(264,421,l),
(264,0,l),
(369,0,l),
(369,421,l),
(339,421,l),
(503,0,l),
(611,0,l),
(611,35,l),
(335,690,l),
(295,690,l),
(18,35,l),
(18,0,l)
);
}
);
width = 629;
}
);
metricLeft = "e-canadian";
metricRight = "e-canadian";
note = uni15D1;
unicode = 5585;
},
{
color = 9;
glyphname = "weCarrier-canadian";
lastChange = "2023-01-13 15:56:33 +0000";
layers = (
{
layerId = "86DE26EB-3058-4E6D-9480-BC9D8886A6AA";
shapes = (
{
closed = 1;
nodes = (
(84,0,l),
(544,323,l),
(544,367,l),
(84,690,l),
(51,690,l),
(51,575,l),
(336,378,l),
(336,398,l),
(58,398,l),
(58,292,l),
(337,292,l),
(337,311,l),
(51,114,l),
(51,0,l)
);
}
);
width = 570;
}
);
metricRight = "o-canadian";
note = uni15D2;
unicode = 5586;
},
{
color = 9;
glyphname = "weeCarrier-canadian";
lastChange = "2023-01-13 15:56:33 +0000";
layers = (
{
layerId = "86DE26EB-3058-4E6D-9480-BC9D8886A6AA";
shapes = (
{
closed = 1;
nodes = (
(84,0,l),
(544,323,l),
(544,367,l),
(84,690,l),
(51,690,l),
(51,584,l),
(391,353,l),
(402,387,l),
(185,387,l),
(185,448,l),
(112,448,l),
(112,387,l),
(51,387,l),
(51,303,l),
(112,303,l),
(112,242,l),
(185,242,l),
(185,303,l),
(402,303,l),
(391,338,l),
(51,104,l),
(51,0,l)
);
}
);
width = 570;
}
);
metricLeft = "weCarrier-canadian";
metricRight = "o-canadian";
note = uni15D3;
unicode = 5587;
},
{
color = 9;
glyphname = "wiCarrier-canadian";
lastChange = "2023-01-13 15:56:33 +0000";
layers = (
{
layerId = "86DE26EB-3058-4E6D-9480-BC9D8886A6AA";
shapes = (
{
closed = 1;
nodes = (
(84,0,l),
(544,323,l),
(544,367,l),
(84,690,l),
(51,690,l),
(51,584,l),
(391,353,l),
(402,387,l),
(241,387,l),
(227,412,o),
(201,428,o),
(171,428,cs),
(140,428,o),
(114,412,o),
(100,387,c),
(51,387,l),
(51,303,l),
(101,303,l),
(115,279,o),
(141,262,o),
(171,262,cs),
(200,262,o),
(226,279,o),
(240,303,c),
(402,303,l),
(391,338,l),
(51,104,l),
(51,0,l)
);
}
);
width = 570;
}
);
metricLeft = "weCarrier-canadian";
metricRight = "o-canadian";
note = uni15D4;
unicode = 5588;
},
{
color = 9;
glyphname = "waCarrier-canadian";
lastChange = "2023-01-13 15:56:33 +0000";
layers = (
{
layerId = "86DE26EB-3058-4E6D-9480-BC9D8886A6AA";
shapes = (
{
closed = 1;
nodes = (
(519,0,l),
(519,115,l),
(234,311,l),
(234,292,l),
(512,292,l),
(512,398,l),
(234,398,l),
(234,378,l),
(519,575,l),
(519,690,l),
(486,690,l),
(26,367,l),
(26,323,l),
(486,0,l)
);
}
);
width = 570;
}
);
metricLeft = "=|o-canadian";
metricRight = "=|weCarrier-canadian";
note = uni15D5;
unicode = 5589;
},
{
color = 9;
glyphname = "hwuCarrier-canadian";
lastChange = "2023-01-13 15:56:36 +0000";
layers = (
{
layerId = "86DE26EB-3058-4E6D-9480-BC9D8886A6AA";
shapes = (
{
closed = 1;
nodes = (
(335,0,l),
(611,655,l),
(611,690,l),
(511,690,l),
(444,527,l),
(479,536,l),
(357,536,l),
(357,690,l),
(275,690,l),
(275,536,l),
(148,536,l),
(188,529,l),
(123,690,l),
(18,690,l),
(18,655,l),
(295,0,l)
);
},
{
closed = 1;
nodes = (
(283,463,l),
(283,203,l),
(306,207,l),
(205,470,l),
(157,463,l)
);
},
{
closed = 1;
nodes = (
(351,463,l),
(470,463,l),
(429,470,l),
(327,207,l),
(351,203,l)
);
}
);
width = 629;
}
);
metricLeft = "e-canadian";
metricRight = "e-canadian";
note = uni15D6;
unicode = 5590;
},
{
color = 9;
glyphname = "hwoCarrier-canadian";
lastChange = "2023-01-13 15:56:36 +0000";
layers = (
{
layerId = "86DE26EB-3058-4E6D-9480-BC9D8886A6AA";
shapes = (
{
closed = 1;
nodes = (
(122,0,l),
(189,162,l),
(157,148,l),
(274,148,l),
(274,0,l),
(356,0,l),
(356,148,l),
(491,148,l),
(445,160,l),
(511,0,l),
(611,0,l),
(611,35,l),
(335,690,l),
(295,690,l),
(18,35,l),
(18,0,l)
);
},
{
closed = 1;
nodes = (
(301,476,l),
(282,480,l),
(282,233,l),
(186,233,l),
(204,219,l)
);
},
{
closed = 1;
nodes = (
(460,233,l),
(350,233,l),
(350,481,l),
(329,477,l),
(429,219,l)
);
}
);
width = 629;
}
);
metricLeft = "e-canadian";
metricRight = "e-canadian";
note = uni15D7;
unicode = 5591;
},
{
color = 9;
glyphname = "hweCarrier-canadian";
lastChange = "2023-01-13 15:56:33 +0000";
layers = (
{
layerId = "86DE26EB-3058-4E6D-9480-BC9D8886A6AA";
shapes = (
{
closed = 1;
nodes = (
(84,0,l),
(544,323,l),
(544,367,l),
(84,690,l),
(51,690,l),
(51,584,l),
(158,511,l),
(158,389,l),
(51,389,l),
(51,300,l),
(158,300,l),
(158,178,l),
(51,104,l),
(51,0,l)
);
},
{
closed = 1;
nodes = (
(226,310,l),
(372,310,l),
(226,213,l)
);
},
{
closed = 1;
nodes = (
(226,476,l),
(371,380,l),
(226,380,l)
);
}
);
width = 570;
}
);
metricLeft = "weCarrier-canadian";
metricRight = "o-canadian";
note = uni15D8;
unicode = 5592;
},
{
color = 9;
glyphname = "hweeCarrier-canadian";
lastChange = "2023-01-13 15:56:33 +0000";
layers = (
{
layerId = "86DE26EB-3058-4E6D-9480-BC9D8886A6AA";
shapes = (
{
closed = 1;
nodes = (
(84,0,l),
(544,323,l),
(544,367,l),
(84,690,l),
(51,690,l),
(51,590,l),
(198,490,l),
(198,383,l),
(156,383,l),
(156,445,l),
(99,445,l),
(99,383,l),
(51,383,l),
(51,308,l),
(99,308,l),
(99,244,l),
(156,244,l),
(156,308,l),
(198,308,l),
(198,198,l),
(51,98,l),
(51,0,l)
);
},
{
closed = 1;
nodes = (
(258,315,l),
(378,315,l),
(258,231,l)
);
},
{
closed = 1;
nodes = (
(258,458,l),
(377,376,l),
(258,376,l)
);
}
);
width = 570;
}
);
metricLeft = "weCarrier-canadian";
metricRight = "o-canadian";
note = uni15D9;
unicode = 5593;
},
{
color = 9;
glyphname = "hwiCarrier-canadian";
lastChange = "2023-01-13 15:56:33 +0000";
layers = (
{
layerId = "86DE26EB-3058-4E6D-9480-BC9D8886A6AA";
shapes = (
{
closed = 1;
nodes = (
(84,0,l),
(544,323,l),
(544,367,l),
(84,690,l),
(51,690,l),
(51,590,l),
(198,490,l),
(198,376,l),
(183,376,l),
(173,396,o),
(153,410,o),
(129,410,cs),
(106,410,o),
(87,395,o),
(76,376,c),
(51,376,l),
(51,315,l),
(76,315,l),
(87,295,o),
(106,280,o),
(129,280,cs),
(151,280,o),
(171,295,o),
(182,315,c),
(198,315,l),
(198,198,l),
(51,98,l),
(51,0,l)
);
},
{
closed = 1;
nodes = (
(258,315,l),
(378,315,l),
(258,231,l)
);
},
{
closed = 1;
nodes = (
(258,458,l),
(377,376,l),
(258,376,l)
);
}
);
width = 570;
}
);
metricLeft = "weCarrier-canadian";
metricRight = "o-canadian";
note = uni15DA;
unicode = 5594;
},
{
color = 9;
glyphname = "hwaCarrier-canadian";
lastChange = "2023-01-13 15:56:33 +0000";
layers = (
{
layerId = "86DE26EB-3058-4E6D-9480-BC9D8886A6AA";
shapes = (
{
closed = 1;
nodes = (
(519,0,l),
(519,104,l),
(412,178,l),
(412,300,l),
(519,300,l),
(519,389,l),
(412,389,l),
(412,511,l),
(519,584,l),
(519,690,l),
(486,690,l),
(26,367,l),
(26,323,l),
(486,0,l)
);
},
{
closed = 1;
nodes = (
(198,310,l),
(344,310,l),
(344,213,l)
);
},
{
closed = 1;
nodes = (
(344,476,l),
(344,380,l),
(199,380,l)
);
}
);
width = 570;
}
);
metricLeft = "=|o-canadian";
metricRight = "=|weCarrier-canadian";
note = uni15DB;
unicode = 5595;
},
{
color = 9;
glyphname = "thuCarrier-canadian";
lastChange = "2023-01-13 15:56:33 +0000";
layers = (
{
layerId = "86DE26EB-3058-4E6D-9480-BC9D8886A6AA";
shapes = (
{
closed = 1;
nodes = (
(477,-14,o),
(570,85,o),
(570,271,cs),
(570,690,l),
(48,690,l),
(48,270,ls),
(48,85,o),
(145,-14,o),
(310,-14,cs)
);
},
{
closed = 1;
nodes = (
(189,563,l),
(429,563,l),
(429,272,ls),
(429,163,o),
(387,117,o),
(309,117,cs),
(234,117,o),
(189,166,o),
(189,272,cs)
);
}
);
width = 618;
}
);
metricLeft = "te-canadian";
metricRight = "te-canadian";
note = uni15DC;
unicode = 5596;
},
{
color = 9;
glyphname = "thoCarrier-canadian";
lastChange = "2023-01-13 15:56:33 +0000";
layers = (
{
layerId = "86DE26EB-3058-4E6D-9480-BC9D8886A6AA";
shapes = (
{
closed = 1;
nodes = (
(570,0,l),
(570,419,ls),
(570,605,o),
(474,703,o),
(310,703,cs),
(143,703,o),
(48,605,o),
(48,419,cs),
(48,0,l)
);
},
{
closed = 1;
nodes = (
(189,417,ls),
(189,526,o),
(232,573,o),
(310,573,cs),
(385,573,o),
(429,524,o),
(429,417,cs),
(429,127,l),
(189,127,l)
);
}
);
width = 618;
}
);
metricLeft = "te-canadian";
metricRight = "te-canadian";
note = uni15DD;
unicode = 5597;
},
{
color = 9;
glyphname = "theCarrier-canadian";
lastChange = "2023-01-13 15:56:36 +0000";
layers = (
{
anchors = (
{
name = middle_center_can;
pos = (307,345);
}
);
layerId = "86DE26EB-3058-4E6D-9480-BC9D8886A6AA";
shapes = (
{
closed = 1;
nodes = (
(243,0,ls),
(453,0,o),
(574,116,o),
(574,346,cs),
(574,576,o),
(453,690,o),
(242,690,cs),
(51,690,l),
(51,0,l)
);
},
{
closed = 1;
nodes = (
(193,602,l),
(156,565,l),
(241,565,ls),
(367,565,o),
(432,500,o),
(432,346,cs),
(432,191,o),
(367,125,o),
(242,125,cs),
(156,125,l),
(193,88,l)
);
}
);
width = 618;
}
);
metricLeft = "nunavuth-canadian";
metricRight = "to-canadian";
note = uni15DE;
unicode = 5598;
},
{
color = 9;
glyphname = "thaCarrier-canadian";
lastChange = "2023-01-13 15:56:36 +0000";
layers = (
{
layerId = "86DE26EB-3058-4E6D-9480-BC9D8886A6AA";
shapes = (
{
closed = 1;
nodes = (
(568,0,l),
(568,690,l),
(376,690,ls),
(165,690,o),
(44,574,o),
(44,344,cs),
(44,114,o),
(165,0,o),
(377,0,cs)
);
},
{
closed = 1;
nodes = (
(187,498,o),
(250,565,o),
(376,565,cs),
(462,565,l),
(425,602,l),
(425,88,l),
(462,125,l),
(377,125,ls),
(250,125,o),
(187,189,o),
(187,344,cs)
);
}
);
width = 619;
}
);
metricLeft = "=|theCarrier-canadian";
metricRight = "nunavuth-canadian";
note = uni15E1;
unicode = 5601;
},
{
color = 9;
glyphname = "ttuCarrier-canadian";
lastChange = "2023-01-13 15:56:33 +0000";
layers = (
{
layerId = "86DE26EB-3058-4E6D-9480-BC9D8886A6AA";
shapes = (
{
closed = 1;
nodes = (
(477,-14,o),
(570,85,o),
(570,271,cs),
(570,690,l),
(530,690,l),
(292,515,l),
(328,515,l),
(90,690,l),
(48,690,l),
(48,270,ls),
(48,85,o),
(145,-14,o),
(310,-14,cs)
);
},
{
closed = 1;
nodes = (
(234,117,o),
(189,166,o),
(189,272,cs),
(189,577,l),
(61,573,l),
(298,398,l),
(322,398,l),
(559,573,l),
(429,577,l),
(429,272,ls),
(429,163,o),
(387,117,o),
(309,117,cs)
);
}
);
width = 618;
}
);
metricLeft = "te-canadian";
metricRight = "te-canadian";
note = uni15E2;
unicode = 5602;
},
{
color = 9;
glyphname = "ttoCarrier-canadian";
lastChange = "2023-01-13 15:56:33 +0000";
layers = (
{
layerId = "86DE26EB-3058-4E6D-9480-BC9D8886A6AA";
shapes = (
{
closed = 1;
nodes = (
(89,0,l),
(327,175,l),
(291,175,l),
(528,0,l),
(570,0,l),
(570,419,ls),
(570,605,o),
(474,703,o),
(309,703,cs),
(142,703,o),
(48,605,o),
(48,418,cs),
(48,0,l)
);
},
{
closed = 1;
nodes = (
(385,573,o),
(429,524,o),
(429,417,cs),
(429,113,l),
(558,117,l),
(321,292,l),
(298,292,l),
(60,117,l),
(189,113,l),
(189,417,ls),
(189,526,o),
(231,573,o),
(310,573,cs)
);
}
);
width = 618;
}
);
metricLeft = "te-canadian";
metricRight = "te-canadian";
note = uni15E3;
unicode = 5603;
},
{
color = 9;
glyphname = "tteCarrier-canadian";
lastChange = "2023-01-13 15:56:33 +0000";
layers = (
{
anchors = (
{
name = middle_center_can;
pos = (353,345);
}
);
layerId = "86DE26EB-3058-4E6D-9480-BC9D8886A6AA";
shapes = (
{
closed = 1;
nodes = (
(253,0,ls),
(464,0,o),
(584,116,o),
(584,346,cs),
(584,576,o),
(464,690,o),
(252,690,cs),
(46,690,l),
(46,655,l),
(150,327,l),
(150,361,l),
(46,35,l),
(46,0,l)
);
},
{
closed = 1;
nodes = (
(280,333,l),
(280,353,l),
(176,680,l),
(176,565,l),
(252,565,ls),
(379,565,o),
(441,500,o),
(441,346,cs),
(441,191,o),
(379,125,o),
(253,125,cs),
(176,125,l),
(176,7,l)
);
}
);
width = 628;
}
);
metricRight = "theCarrier-canadian";
note = uni15E4;
unicode = 5604;
},
{
color = 9;
glyphname = "ttaCarrier-canadian";
lastChange = "2023-01-13 15:56:36 +0000";
layers = (
{
layerId = "86DE26EB-3058-4E6D-9480-BC9D8886A6AA";
shapes = (
{
closed = 1;
nodes = (
(583,0,l),
(583,35,l),
(479,362,l),
(479,328,l),
(583,655,l),
(583,690,l),
(376,690,ls),
(165,690,o),
(44,574,o),
(44,344,cs),
(44,114,o),
(165,0,o),
(377,0,cs)
);
},
{
closed = 1;
nodes = (
(453,125,l),
(377,125,ls),
(250,125,o),
(187,189,o),
(187,344,cs),
(187,498,o),
(250,565,o),
(376,565,cs),
(453,565,l),
(453,683,l),
(349,356,l),
(349,337,l),
(453,10,l)
);
}
);
width = 629;
}
);
metricLeft = "=|theCarrier-canadian";
metricRight = "=|tteCarrier-canadian";
note = uni15E7;
unicode = 5607;
},
{
color = 9;
glyphname = "puCarrier-canadian";
lastChange = "2023-01-13 15:56:33 +0000";
layers = (
{
layerId = "86DE26EB-3058-4E6D-9480-BC9D8886A6AA";
shapes = (
{
closed = 1;
nodes = (
(477,-14,o),
(570,85,o),
(570,271,cs),
(570,690,l),
(428,690,l),
(428,548,l),
(191,548,l),
(191,690,l),
(48,690,l),
(48,270,ls),
(48,85,o),
(145,-14,o),
(310,-14,cs)
);
},
{
closed = 1;
nodes = (
(234,117,o),
(191,166,o),
(191,272,cs),
(191,422,l),
(428,422,l),
(428,272,ls),
(428,163,o),
(387,117,o),
(309,117,cs)
);
}
);
width = 618;
}
);
metricLeft = "te-canadian";
metricRight = "te-canadian";
note = uni15E8;
unicode = 5608;
},
{
color = 9;
glyphname = "poCarrier-canadian";
lastChange = "2023-01-13 15:56:33 +0000";
layers = (
{
layerId = "86DE26EB-3058-4E6D-9480-BC9D8886A6AA";
shapes = (
{
closed = 1;
nodes = (
(191,0,l),
(191,142,l),
(428,142,l),
(428,0,l),
(570,0,l),
(570,419,ls),
(570,605,o),
(475,703,o),
(310,703,cs),
(149,703,o),
(48,605,o),
(48,419,cs),
(48,0,l)
);
},
{
closed = 1;
nodes = (
(191,417,ls),
(191,526,o),
(232,573,o),
(310,573,cs),
(385,573,o),
(428,524,o),
(428,417,cs),
(428,268,l),
(191,268,l)
);
}
);
width = 618;
}
);
metricLeft = "te-canadian";
metricRight = "te-canadian";
note = uni15E9;
unicode = 5609;
},
{
color = 9;
glyphname = "peCarrier-canadian";
lastChange = "2023-01-13 15:56:33 +0000";
layers = (
{
anchors = (
{
name = middle_center_can;
pos = (339,345);
}
);
layerId = "86DE26EB-3058-4E6D-9480-BC9D8886A6AA";
shapes = (
{
closed = 1;
nodes = (
(252,0,ls),
(463,0,o),
(582,116,o),
(582,346,cs),
(582,576,o),
(463,690,o),
(250,690,cs),
(45,690,l),
(45,565,l),
(112,565,l),
(112,125,l),
(45,125,l),
(45,0,l)
);
},
{
closed = 1;
nodes = (
(252,602,l),
(197,565,l),
(251,565,ls),
(377,565,o),
(440,500,o),
(440,346,cs),
(440,191,o),
(377,125,o),
(252,125,cs),
(197,125,l),
(252,88,l)
);
}
);
width = 626;
}
);
metricRight = "theCarrier-canadian";
note = uni15EA;
unicode = 5610;
},
{
color = 9;
glyphname = "paCarrier-canadian";
lastChange = "2023-01-13 15:56:36 +0000";
layers = (
{
layerId = "86DE26EB-3058-4E6D-9480-BC9D8886A6AA";
shapes = (
{
closed = 1;
nodes = (
(583,0,l),
(583,125,l),
(516,125,l),
(516,565,l),
(583,565,l),
(583,690,l),
(377,690,ls),
(165,690,o),
(44,576,o),
(44,346,cs),
(44,116,o),
(165,0,o),
(376,0,cs)
);
},
{
closed = 1;
nodes = (
(431,125,l),
(376,125,ls),
(250,125,o),
(187,191,o),
(187,346,cs),
(187,500,o),
(250,565,o),
(377,565,cs),
(431,565,l),
(375,602,l),
(375,88,l)
);
}
);
width = 628;
}
);
metricLeft = "=|theCarrier-canadian";
metricRight = "=|peCarrier-canadian";
note = uni15ED;
unicode = 5613;
},
{
color = 6;
glyphname = "pCarrier-canadian";
lastChange = "2023-01-13 15:56:33 +0000";
layers = (
{
layerId = "86DE26EB-3058-4E6D-9480-BC9D8886A6AA";
shapes = (
{
closed = 1;
nodes = (
(322,183,l),
(322,272,l),
(230,272,l),
(230,527,l),
(135,527,l),
(135,272,l),
(43,272,l),
(43,183,l)
);
}
);
width = 365;
}
);
metricLeft = "shorthorizontalstrokeFinal-canadian";
metricRight = "shorthorizontalstrokeFinal-canadian";
note = uni15EE;
unicode = 5614;
},
{
color = 9;
glyphname = "guCarrier-canadian";
lastChange = "2023-01-13 15:56:36 +0000";
layers = (
{
anchors = (
{
name = top_center_can;
pos = (359,690);
}
);
layerId = "86DE26EB-3058-4E6D-9480-BC9D8886A6AA";
shapes = (
{
closed = 1;
nodes = (
(311,-14,o),
(365,29,o),
(392,118,c),
(327,118,l),
(359,27,o),
(412,-14,o),
(492,-14,cs),
(600,-14,o),
(671,59,o),
(671,185,cs),
(671,690,l),
(536,690,l),
(536,192,ls),
(536,139,o),
(517,114,o),
(482,114,cs),
(448,114,o),
(426,140,o),
(426,192,cs),
(426,690,l),
(294,690,l),
(294,192,ls),
(294,139,o),
(273,114,o),
(240,114,cs),
(204,114,o),
(184,139,o),
(184,192,cs),
(184,690,l),
(48,690,l),
(48,186,ls),
(48,60,o),
(122,-14,o),
(230,-14,cs)
);
}
);
width = 719;
}
);
metricRight = "=|";
note = uni15EF;
unicode = 5615;
},
{
color = 9;
glyphname = "goCarrier-canadian";
lastChange = "2023-01-13 15:56:36 +0000";
layers = (
{
layerId = "86DE26EB-3058-4E6D-9480-BC9D8886A6AA";
shapes = (
{
closed = 1;
nodes = (
(184,0,l),
(184,497,ls),
(184,551,o),
(203,576,o),
(238,576,cs),
(271,576,o),
(294,551,o),
(294,497,cs),
(294,0,l),
(426,0,l),
(426,497,ls),
(426,551,o),
(446,576,o),
(480,576,cs),
(516,576,o),
(536,551,o),
(536,497,cs),
(536,0,l),
(671,0,l),
(671,503,ls),
(671,630,o),
(598,703,o),
(490,703,cs),
(409,703,o),
(355,661,o),
(327,572,c),
(392,572,l),
(360,663,o),
(307,703,o),
(228,703,cs),
(119,703,o),
(48,631,o),
(48,504,cs),
(48,0,l)
);
}
);
width = 719;
}
);
metricLeft = "guCarrier-canadian";
metricRight = "guCarrier-canadian";
note = uni15F0;
unicode = 5616;
},
{
color = 9;
glyphname = "geCarrier-canadian";
lastChange = "2023-01-13 15:56:33 +0000";
layers = (
{
anchors = (
{
name = top_center_can;
pos = (313,690);
}
);
layerId = "86DE26EB-3058-4E6D-9480-BC9D8886A6AA";
shapes = (
{
closed = 1;
nodes = (
(363,0,ls),
(498,0,o),
(574,69,o),
(574,192,cs),
(574,273,o),
(527,339,o),
(457,368,c),
(457,321,l),
(530,347,o),
(574,408,o),
(574,496,cs),
(574,618,o),
(496,690,o),
(363,690,cs),
(51,690,l),
(51,574,l),
(334,574,ls),
(396,574,o),
(432,547,o),
(432,490,cs),
(432,431,o),
(396,403,o),
(335,403,cs),
(51,403,l),
(51,289,l),
(335,289,ls),
(395,289,o),
(432,260,o),
(432,201,cs),
(432,143,o),
(395,116,o),
(334,116,cs),
(51,116,l),
(51,0,l)
);
}
);
width = 622;
}
);
metricLeft = "nunavuth-canadian";
note = uni15F1;
unicode = 5617;
},
{
color = 9;
glyphname = "geeCarrier-canadian";
lastChange = "2023-01-13 15:56:33 +0000";
layers = (
{
layerId = "86DE26EB-3058-4E6D-9480-BC9D8886A6AA";
shapes = (
{
closed = 1;
nodes = (
(363,0,ls),
(498,0,o),
(574,69,o),
(574,192,cs),
(574,273,o),
(527,339,o),
(457,368,c),
(457,321,l),
(530,347,o),
(574,408,o),
(574,496,cs),
(574,618,o),
(496,690,o),
(363,690,cs),
(51,690,l),
(51,574,l),
(334,574,ls),
(396,574,o),
(432,547,o),
(432,490,cs),
(432,431,o),
(396,402,o),
(335,402,cs),
(296,402,l),
(296,478,l),
(221,478,l),
(221,402,l),
(51,402,l),
(51,290,l),
(221,290,l),
(221,213,l),
(296,213,l),
(296,290,l),
(335,290,ls),
(395,290,o),
(432,260,o),
(432,201,cs),
(432,143,o),
(395,116,o),
(334,116,cs),
(51,116,l),
(51,0,l)
);
}
);
width = 622;
}
);
metricLeft = "geCarrier-canadian";
metricRight = "geCarrier-canadian";
note = uni15F2;
unicode = 5618;
},
{
color = 9;
glyphname = "giCarrier-canadian";
lastChange = "2023-01-13 15:56:33 +0000";
layers = (
{
layerId = "86DE26EB-3058-4E6D-9480-BC9D8886A6AA";
shapes = (
{
closed = 1;
nodes = (
(363,0,ls),
(498,0,o),
(574,69,o),
(574,192,cs),
(574,272,o),
(528,337,o),
(460,366,c),
(460,323,l),
(531,349,o),
(574,409,o),
(574,496,cs),
(574,618,o),
(496,690,o),
(363,690,cs),
(51,690,l),
(51,574,l),
(334,574,ls),
(396,574,o),
(432,547,o),
(432,490,cs),
(432,431,o),
(396,402,o),
(348,402,cs),
(309,402,l),
(356,383,l),
(343,417,o),
(311,441,o),
(270,441,cs),
(239,441,o),
(211,426,o),
(194,402,c),
(51,402,l),
(51,290,l),
(193,290,l),
(210,265,o),
(238,248,o),
(270,248,cs),
(311,248,o),
(343,273,o),
(356,309,c),
(309,290,l),
(347,290,ls),
(395,290,o),
(432,260,o),
(432,201,cs),
(432,143,o),
(395,116,o),
(334,116,cs),
(51,116,l),
(51,0,l)
);
}
);
width = 622;
}
);
metricLeft = "geCarrier-canadian";
metricRight = "geCarrier-canadian";
note = uni15F3;
unicode = 5619;
},
{
color = 9;
glyphname = "gaCarrier-canadian";
lastChange = "2023-01-13 15:56:33 +0000";
layers = (
{
anchors = (
{
name = top_center_can;
pos = (325,690);
}
);
layerId = "86DE26EB-3058-4E6D-9480-BC9D8886A6AA";
shapes = (
{
closed = 1;
nodes = (
(572,0,l),
(572,116,l),
(288,116,ls),
(228,116,o),
(191,143,o),
(191,201,cs),
(191,260,o),
(228,289,o),
(288,289,cs),
(572,289,l),
(572,403,l),
(287,403,ls),
(226,403,o),
(191,431,o),
(191,490,cs),
(191,547,o),
(227,574,o),
(288,574,cs),
(572,574,l),
(572,690,l),
(260,690,ls),
(128,690,o),
(48,618,o),
(48,496,cs),
(48,408,o),
(93,347,o),
(166,321,c),
(166,369,l),
(96,339,o),
(48,273,o),
(48,192,cs),
(48,69,o),
(125,0,o),
(260,0,cs)
);
}
);
width = 623;
}
);
metricLeft = "=|geCarrier-canadian";
metricRight = "=|geCarrier-canadian";
note = uni15F4;
unicode = 5620;
},
{
color = 9;
glyphname = "khuCarrier-canadian";
lastChange = "2023-01-13 15:56:36 +0000";
layers = (
{
layerId = "86DE26EB-3058-4E6D-9480-BC9D8886A6AA";
shapes = (
{
closed = 1;
nodes = (
(311,-14,o),
(366,29,o),
(392,118,c),
(327,118,l),
(359,27,o),
(412,-14,o),
(492,-14,cs),
(601,-14,o),
(671,59,o),
(671,185,cs),
(671,690,l),
(48,690,l),
(48,186,ls),
(48,60,o),
(122,-14,o),
(230,-14,cs)
);
},
{
closed = 1;
nodes = (
(205,114,o),
(185,139,o),
(185,192,cs),
(185,567,l),
(296,567,l),
(296,192,ls),
(296,139,o),
(275,114,o),
(241,114,cs)
);
},
{
closed = 1;
nodes = (
(447,114,o),
(425,140,o),
(425,192,cs),
(425,567,l),
(535,567,l),
(535,192,ls),
(535,139,o),
(516,114,o),
(481,114,cs)
);
}
);
width = 719;
}
);
metricLeft = "guCarrier-canadian";
metricRight = "guCarrier-canadian";
note = uni15F5;
unicode = 5621;
},
{
color = 9;
glyphname = "khoCarrier-canadian";
lastChange = "2023-01-13 15:56:36 +0000";
layers = (
{
layerId = "86DE26EB-3058-4E6D-9480-BC9D8886A6AA";
shapes = (
{
closed = 1;
nodes = (
(671,0,l),
(671,503,ls),
(671,630,o),
(599,703,o),
(490,703,cs),
(410,703,o),
(355,662,o),
(327,572,c),
(392,572,l),
(361,662,o),
(308,703,o),
(228,703,cs),
(120,703,o),
(48,632,o),
(48,504,cs),
(48,0,l)
);
},
{
closed = 1;
nodes = (
(185,497,ls),
(185,551,o),
(205,576,o),
(240,576,cs),
(273,576,o),
(295,551,o),
(295,497,cs),
(295,123,l),
(185,123,l)
);
},
{
closed = 1;
nodes = (
(425,497,ls),
(425,551,o),
(445,576,o),
(480,576,cs),
(515,576,o),
(535,551,o),
(535,497,cs),
(535,123,l),
(425,123,l)
);
}
);
width = 719;
}
);
metricLeft = "guCarrier-canadian";
metricRight = "guCarrier-canadian";
note = uni15F6;
unicode = 5622;
},
{
color = 9;
glyphname = "kheCarrier-canadian";
lastChange = "2023-01-13 15:56:33 +0000";
layers = (
{
layerId = "86DE26EB-3058-4E6D-9480-BC9D8886A6AA";
shapes = (
{
closed = 1;
nodes = (
(369,0,ls),
(504,0,o),
(581,69,o),
(581,192,cs),
(581,273,o),
(533,339,o),
(463,368,c),
(463,321,l),
(536,347,o),
(581,408,o),
(581,496,cs),
(581,618,o),
(501,690,o),
(369,690,cs),
(51,690,l),
(51,0,l)
);
},
{
closed = 1;
nodes = (
(192,289,l),
(341,289,ls),
(401,289,o),
(438,260,o),
(438,201,cs),
(438,143,o),
(401,114,o),
(341,114,cs),
(192,114,l)
);
},
{
closed = 1;
nodes = (
(192,576,l),
(341,576,ls),
(402,576,o),
(438,547,o),
(438,490,cs),
(438,431,o),
(402,402,o),
(341,402,cs),
(192,402,l)
);
}
);
width = 629;
}
);
metricLeft = "nunavuth-canadian";
metricRight = "geCarrier-canadian";
note = uni15F7;
unicode = 5623;
},
{
color = 9;
glyphname = "kheeCarrier-canadian";
lastChange = "2023-01-13 15:56:33 +0000";
layers = (
{
layerId = "86DE26EB-3058-4E6D-9480-BC9D8886A6AA";
shapes = (
{
closed = 1;
nodes = (
(369,0,ls),
(504,0,o),
(581,69,o),
(581,192,cs),
(581,269,o),
(539,329,o),
(475,359,c),
(475,327,l),
(541,354,o),
(581,413,o),
(581,496,cs),
(581,618,o),
(501,690,o),
(369,690,cs),
(51,690,l),
(51,0,l)
);
},
{
closed = 1;
nodes = (
(192,290,l),
(270,290,l),
(270,211,l),
(346,211,l),
(346,324,l),
(298,290,l),
(354,290,ls),
(407,290,o),
(438,261,o),
(438,201,cs),
(438,143,o),
(401,114,o),
(341,114,cs),
(192,114,l)
);
},
{
closed = 1;
nodes = (
(346,480,l),
(270,480,l),
(270,402,l),
(192,402,l),
(192,576,l),
(341,576,ls),
(402,576,o),
(438,547,o),
(438,490,cs),
(438,431,o),
(409,402,o),
(354,402,cs),
(298,402,l),
(346,367,l)
);
}
);
width = 629;
}
);
metricLeft = "nunavuth-canadian";
metricRight = "geCarrier-canadian";
note = uni15F8;
unicode = 5624;
},
{
color = 9;
glyphname = "khiCarrier-canadian";
lastChange = "2023-01-13 15:56:33 +0000";
layers = (
{
layerId = "86DE26EB-3058-4E6D-9480-BC9D8886A6AA";
shapes = (
{
closed = 1;
nodes = (
(369,0,ls),
(504,0,o),
(581,69,o),
(581,192,cs),
(581,272,o),
(535,335,o),
(469,366,c),
(468,323,l),
(538,348,o),
(581,410,o),
(581,496,cs),
(581,618,o),
(501,690,o),
(369,690,cs),
(51,690,l),
(51,0,l)
);
},
{
closed = 1;
nodes = (
(192,296,l),
(228,296,l),
(244,268,o),
(273,248,o),
(307,248,cs),
(356,248,o),
(392,289,o),
(398,336,c),
(321,296,l),
(359,296,ls),
(407,296,o),
(438,266,o),
(438,204,cs),
(438,141,o),
(401,114,o),
(341,114,cs),
(192,114,l)
);
},
{
closed = 1;
nodes = (
(341,576,ls),
(402,576,o),
(438,549,o),
(438,486,cs),
(438,426,o),
(409,395,o),
(360,395,cs),
(321,395,l),
(398,354,l),
(392,403,o),
(356,441,o),
(307,441,cs),
(258,441,o),
(220,403,o),
(214,355,c),
(250,395,l),
(192,395,l),
(192,576,l)
);
}
);
width = 629;
}
);
metricLeft = "nunavuth-canadian";
metricRight = "geCarrier-canadian";
note = uni15F9;
unicode = 5625;
},
{
color = 9;
glyphname = "khaCarrier-canadian";
lastChange = "2023-01-13 15:56:33 +0000";
layers = (
{
layerId = "86DE26EB-3058-4E6D-9480-BC9D8886A6AA";
shapes = (
{
closed = 1;
nodes = (
(578,0,l),
(578,690,l),
(260,690,ls),
(128,690,o),
(48,618,o),
(48,496,cs),
(48,410,o),
(90,349,o),
(161,323,c),
(160,366,l),
(94,336,o),
(48,272,o),
(48,192,cs),
(48,69,o),
(125,0,o),
(260,0,cs)
);
},
{
closed = 1;
nodes = (
(228,114,o),
(191,143,o),
(191,201,cs),
(191,260,o),
(228,289,o),
(288,289,cs),
(437,289,l),
(437,114,l),
(288,114,ls)
);
},
{
closed = 1;
nodes = (
(226,402,o),
(191,431,o),
(191,490,cs),
(191,547,o),
(227,576,o),
(288,576,cs),
(437,576,l),
(437,402,l),
(287,402,ls)
);
}
);
width = 629;
}
);
metricLeft = "=|geCarrier-canadian";
metricRight = "nunavuth-canadian";
note = uni15FA;
unicode = 5626;
},
{
color = 9;
glyphname = "kkuCarrier-canadian";
lastChange = "2023-01-13 15:56:36 +0000";
layers = (
{
layerId = "86DE26EB-3058-4E6D-9480-BC9D8886A6AA";
shapes = (
{
closed = 1;
nodes = (
(311,-14,o),
(366,30,o),
(392,119,c),
(327,119,l),
(358,28,o),
(412,-14,o),
(492,-14,cs),
(600,-14,o),
(671,59,o),
(671,185,cs),
(671,690,l),
(631,690,l),
(403,550,l),
(403,418,l),
(571,520,l),
(536,539,l),
(536,192,ls),
(536,139,o),
(516,114,o),
(481,114,cs),
(447,114,o),
(425,140,o),
(425,192,cs),
(425,690,l),
(296,690,l),
(296,192,ls),
(296,139,o),
(274,114,o),
(240,114,cs),
(204,114,o),
(184,139,o),
(184,192,cs),
(184,539,l),
(150,520,l),
(313,421,l),
(313,554,l),
(89,690,l),
(48,690,l),
(48,186,ls),
(48,60,o),
(122,-14,o),
(230,-14,cs)
);
}
);
width = 719;
}
);
metricLeft = "guCarrier-canadian";
metricRight = "guCarrier-canadian";
note = uni15FB;
unicode = 5627;
},
{
color = 9;
glyphname = "kkoCarrier-canadian";
lastChange = "2023-01-13 15:56:36 +0000";
layers = (
{
layerId = "86DE26EB-3058-4E6D-9480-BC9D8886A6AA";
shapes = (
{
closed = 1;
nodes = (
(88,0,l),
(317,140,l),
(317,271,l),
(149,170,l),
(184,151,l),
(184,497,ls),
(184,551,o),
(204,576,o),
(238,576,cs),
(271,576,o),
(295,550,o),
(295,497,cs),
(295,0,l),
(424,0,l),
(424,497,ls),
(424,551,o),
(445,576,o),
(480,576,cs),
(515,576,o),
(536,551,o),
(536,497,cs),
(536,151,l),
(570,170,l),
(407,269,l),
(407,136,l),
(630,0,l),
(671,0,l),
(671,503,ls),
(671,630,o),
(598,703,o),
(490,703,cs),
(409,703,o),
(354,660,o),
(327,571,c),
(392,571,l),
(360,662,o),
(307,703,o),
(228,703,cs),
(119,703,o),
(48,631,o),
(48,504,cs),
(48,0,l)
);
}
);
width = 719;
}
);
metricLeft = "guCarrier-canadian";
metricRight = "guCarrier-canadian";
note = uni15FC;
unicode = 5628;
},
{
color = 9;
glyphname = "kkeCarrier-canadian";
lastChange = "2023-01-13 15:56:33 +0000";
layers = (
{
layerId = "86DE26EB-3058-4E6D-9480-BC9D8886A6AA";
shapes = (
{
closed = 1;
nodes = (
(383,0,ls),
(518,0,o),
(593,69,o),
(593,192,cs),
(593,272,o),
(549,335,o),
(482,366,c),
(480,323,l),
(552,348,o),
(593,410,o),
(593,496,cs),
(593,618,o),
(515,690,o),
(383,690,cs),
(48,690,l),
(48,655,l),
(128,403,l),
(59,403,l),
(59,289,l),
(128,289,l),
(48,35,l),
(48,0,l)
);
},
{
closed = 1;
nodes = (
(270,289,l),
(355,289,ls),
(414,289,o),
(451,260,o),
(451,201,cs),
(451,143,o),
(414,116,o),
(354,116,cs),
(153,116,l),
(196,55,l)
);
},
{
closed = 1;
nodes = (
(194,635,l),
(151,574,l),
(354,574,ls),
(414,574,o),
(451,547,o),
(451,490,cs),
(451,431,o),
(415,403,o),
(355,403,cs),
(269,403,l)
);
}
);
width = 641;
}
);
metricRight = "geCarrier-canadian";
note = uni15FD;
unicode = 5629;
},
{
color = 9;
glyphname = "kkeeCarrier-canadian";
lastChange = "2023-01-13 15:56:33 +0000";
layers = (
{
layerId = "86DE26EB-3058-4E6D-9480-BC9D8886A6AA";
shapes = (
{
closed = 1;
nodes = (
(383,0,ls),
(518,0,o),
(593,69,o),
(593,192,cs),
(593,272,o),
(549,335,o),
(482,366,c),
(480,323,l),
(552,348,o),
(593,410,o),
(593,496,cs),
(593,618,o),
(515,690,o),
(383,690,cs),
(48,690,l),
(48,655,l),
(128,403,l),
(59,403,l),
(59,289,l),
(128,289,l),
(48,35,l),
(48,0,l)
);
},
{
closed = 1;
nodes = (
(268,293,l),
(302,293,l),
(302,213,l),
(379,213,l),
(379,318,l),
(329,293,l),
(368,293,ls),
(420,293,o),
(451,264,o),
(451,203,cs),
(451,144,o),
(414,116,o),
(354,116,cs),
(149,116,l),
(193,55,l)
);
},
{
closed = 1;
nodes = (
(379,478,l),
(302,478,l),
(302,399,l),
(266,399,l),
(191,635,l),
(148,574,l),
(354,574,ls),
(414,574,o),
(451,546,o),
(451,488,cs),
(451,427,o),
(421,399,o),
(368,399,cs),
(329,399,l),
(379,380,l)
);
}
);
width = 641;
}
);
metricLeft = "kkeCarrier-canadian";
metricRight = "geCarrier-canadian";
note = uni15FE;
unicode = 5630;
},
{
color = 9;
glyphname = "kkiCarrier-canadian";
lastChange = "2023-01-13 15:56:33 +0000";
layers = (
{
layerId = "86DE26EB-3058-4E6D-9480-BC9D8886A6AA";
shapes = (
{
closed = 1;
nodes = (
(383,0,ls),
(518,0,o),
(593,69,o),
(593,192,cs),
(593,272,o),
(549,335,o),
(482,366,c),
(480,323,l),
(552,348,o),
(593,410,o),
(593,496,cs),
(593,618,o),
(515,690,o),
(383,690,cs),
(48,690,l),
(48,655,l),
(128,403,l),
(59,403,l),
(59,289,l),
(128,289,l),
(48,35,l),
(48,0,l)
);
},
{
closed = 1;
nodes = (
(270,298,l),
(260,298,l),
(272,269,o),
(301,248,o),
(337,248,cs),
(388,248,o),
(420,292,o),
(422,329,c),
(349,298,l),
(368,298,ls),
(420,298,o),
(451,264,o),
(451,198,cs),
(451,144,o),
(414,116,o),
(354,116,cs),
(149,116,l),
(193,55,l)
);
},
{
closed = 1;
nodes = (
(420,401,o),
(390,441,o),
(337,441,cs),
(301,441,o),
(273,422,o),
(260,392,c),
(268,392,l),
(191,635,l),
(148,574,l),
(354,574,ls),
(414,574,o),
(451,546,o),
(451,483,cs),
(451,427,o),
(421,392,o),
(368,392,cs),
(350,392,l),
(424,361,l)
);
}
);
width = 641;
}
);
metricLeft = "kkeCarrier-canadian";
metricRight = "geCarrier-canadian";
note = uni15FF;
unicode = 5631;
},
{
color = 9;
glyphname = "kkaCarrier-canadian";
lastChange = "2023-01-13 15:56:33 +0000";
layers = (
{
layerId = "86DE26EB-3058-4E6D-9480-BC9D8886A6AA";
shapes = (
{
closed = 1;
nodes = (
(593,0,l),
(593,35,l),
(514,289,l),
(582,289,l),
(582,403,l),
(514,403,l),
(593,655,l),
(593,690,l),
(260,690,ls),
(128,690,o),
(48,618,o),
(48,496,cs),
(48,410,o),
(90,349,o),
(161,323,c),
(160,366,l),
(94,336,o),
(48,272,o),
(48,192,cs),
(48,69,o),
(125,0,o),
(260,0,cs)
);
},
{
closed = 1;
nodes = (
(490,116,l),
(288,116,ls),
(228,116,o),
(191,143,o),
(191,201,cs),
(191,260,o),
(228,289,o),
(288,289,cs),
(372,289,l),
(446,55,l)
);
},
{
closed = 1;
nodes = (
(226,403,o),
(191,431,o),
(191,490,cs),
(191,547,o),
(227,574,o),
(288,574,cs),
(491,574,l),
(447,635,l),
(373,403,l),
(287,403,ls)
);
}
);
width = 641;
}
);
metricLeft = "=|geCarrier-canadian";
metricRight = "=|kkeCarrier-canadian";
note = uni1600;
unicode = 5632;
},
{
color = 6;
glyphname = "kkCarrier-canadian";
lastChange = "2023-01-13 15:56:33 +0000";
layers = (
{
layerId = "86DE26EB-3058-4E6D-9480-BC9D8886A6AA";
shapes = (
{
closed = 1;
nodes = (
(180,183,l),
(314,510,l),
(314,527,l),
(221,527,l),
(136,289,l),
(203,289,l),
(117,527,l),
(24,527,l),
(24,510,l),
(158,183,l)
);
}
);
width = 338;
}
);
note = uni1601;
unicode = 5633;
},
{
color = 9;
glyphname = "nuCarrier-canadian";
lastChange = "2023-01-13 15:56:33 +0000";
layers = (
{
layerId = "86DE26EB-3058-4E6D-9480-BC9D8886A6AA";
shapes = (
{
closed = 1;
nodes = (
(478,-14,o),
(570,84,o),
(570,265,cs),
(570,308,l),
(429,308,l),
(429,256,ls),
(429,161,o),
(387,117,o),
(311,117,cs),
(233,117,o),
(191,164,o),
(191,264,cs),
(191,690,l),
(48,690,l),
(48,270,ls),
(48,84,o),
(144,-14,o),
(311,-14,cs)
);
}
);
width = 609;
}
);
metricLeft = "te-canadian";
note = uni1602;
unicode = 5634;
},
{
color = 9;
glyphname = "noCarrier-canadian";
lastChange = "2023-01-13 15:56:36 +0000";
layers = (
{
layerId = "86DE26EB-3058-4E6D-9480-BC9D8886A6AA";
shapes = (
{
closed = 1;
nodes = (
(560,0,l),
(560,420,ls),
(560,606,o),
(465,703,o),
(298,703,cs),
(130,703,o),
(39,606,o),
(39,425,cs),
(39,382,l),
(180,382,l),
(180,434,ls),
(180,528,o),
(221,573,o),
(298,573,cs),
(377,573,o),
(418,526,o),
(418,426,cs),
(418,0,l)
);
}
);
width = 608;
}
);
metricLeft = "=|nuCarrier-canadian";
metricRight = "te-canadian";
note = uni1603;
unicode = 5635;
},
{
color = 9;
glyphname = "neCarrier-canadian";
lastChange = "2023-01-13 15:56:36 +0000";
layers = (
{
anchors = (
{
name = middle_center_can;
pos = (276,345);
}
);
layerId = "86DE26EB-3058-4E6D-9480-BC9D8886A6AA";
shapes = (
{
closed = 1;
nodes = (
(249,0,ls),
(456,0,o),
(578,116,o),
(578,346,cs),
(578,576,o),
(457,690,o),
(245,690,cs),
(33,690,l),
(33,560,l),
(245,560,ls),
(366,560,o),
(436,497,o),
(436,346,cs),
(436,194,o),
(364,129,o),
(249,129,cs),
(239,129,l),
(239,0,l)
);
}
);
width = 622;
}
);
metricRight = "theCarrier-canadian";
note = uni1604;
unicode = 5636;
},
{
color = 9;
glyphname = "naCarrier-canadian";
lastChange = "2023-01-13 15:56:36 +0000";
layers = (
{
layerId = "86DE26EB-3058-4E6D-9480-BC9D8886A6AA";
shapes = (
{
closed = 1;
nodes = (
(589,0,l),
(589,129,l),
(377,129,ls),
(257,129,o),
(187,192,o),
(187,344,cs),
(187,496,o),
(258,560,o),
(373,560,cs),
(384,560,l),
(384,690,l),
(373,690,ls),
(166,690,o),
(44,574,o),
(44,344,cs),
(44,114,o),
(165,0,o),
(377,0,cs)
);
}
);
width = 622;
}
);
metricLeft = "=|theCarrier-canadian";
metricRight = "=|neCarrier-canadian";
note = uni1607;
unicode = 5639;
},
{
color = 9;
glyphname = "muCarrier-canadian";
lastChange = "2023-01-13 15:56:36 +0000";
layers = (
{
layerId = "86DE26EB-3058-4E6D-9480-BC9D8886A6AA";
shapes = (
{
closed = 1;
nodes = (
(311,-14,o),
(365,29,o),
(392,118,c),
(327,118,l),
(359,27,o),
(412,-14,o),
(492,-14,cs),
(600,-14,o),
(671,59,o),
(671,185,cs),
(671,394,l),
(536,394,l),
(536,192,ls),
(536,139,o),
(517,114,o),
(482,114,cs),
(448,114,o),
(426,140,o),
(426,192,cs),
(426,394,l),
(294,394,l),
(294,192,ls),
(294,139,o),
(273,114,o),
(240,114,cs),
(204,114,o),
(184,139,o),
(184,192,cs),
(184,690,l),
(48,690,l),
(48,186,ls),
(48,60,o),
(122,-14,o),
(230,-14,cs)
);
}
);
width = 719;
}
);
metricLeft = "guCarrier-canadian";
metricRight = "=|";
note = uni1608;
unicode = 5640;
},
{
color = 9;
glyphname = "moCarrier-canadian";
lastChange = "2023-01-13 15:56:36 +0000";
layers = (
{
layerId = "86DE26EB-3058-4E6D-9480-BC9D8886A6AA";
shapes = (
{
closed = 1;
nodes = (
(671,0,l),
(671,503,ls),
(671,630,o),
(598,703,o),
(490,703,cs),
(409,703,o),
(355,661,o),
(327,572,c),
(392,572,l),
(360,663,o),
(307,703,o),
(228,703,cs),
(119,703,o),
(48,631,o),
(48,504,cs),
(48,296,l),
(184,296,l),
(184,497,ls),
(184,551,o),
(203,576,o),
(238,576,cs),
(271,576,o),
(294,550,o),
(294,497,cs),
(294,296,l),
(426,296,l),
(426,497,ls),
(426,551,o),
(446,576,o),
(480,576,cs),
(516,576,o),
(536,551,o),
(536,497,cs),
(536,0,l)
);
}
);
width = 719;
}
);
metricLeft = "=|muCarrier-canadian";
metricRight = "guCarrier-canadian";
note = uni1609;
unicode = 5641;
},
{
color = 9;
glyphname = "meCarrier-canadian";
lastChange = "2023-01-13 15:56:33 +0000";
layers = (
{
layerId = "86DE26EB-3058-4E6D-9480-BC9D8886A6AA";
shapes = (
{
closed = 1;
nodes = (
(366,0,ls),
(502,0,o),
(578,69,o),
(578,192,cs),
(578,273,o),
(531,339,o),
(461,368,c),
(461,321,l),
(534,347,o),
(578,408,o),
(578,496,cs),
(578,618,o),
(499,690,o),
(366,690,cs),
(33,690,l),
(33,574,l),
(338,574,ls),
(399,574,o),
(435,547,o),
(435,490,cs),
(435,431,o),
(400,403,o),
(339,403,cs),
(242,403,l),
(242,289,l),
(338,289,ls),
(398,289,o),
(435,260,o),
(435,201,cs),
(435,143,o),
(399,116,o),
(338,116,cs),
(242,116,l),
(242,0,l)
);
}
);
width = 626;
}
);
metricLeft = "neCarrier-canadian";
metricRight = "geCarrier-canadian";
note = uni160A;
unicode = 5642;
},
{
color = 9;
glyphname = "meeCarrier-canadian";
lastChange = "2023-01-13 15:56:33 +0000";
layers = (
{
layerId = "86DE26EB-3058-4E6D-9480-BC9D8886A6AA";
shapes = (
{
closed = 1;
nodes = (
(366,0,ls),
(502,0,o),
(578,69,o),
(578,192,cs),
(578,272,o),
(533,335,o),
(467,366,c),
(465,323,l),
(536,348,o),
(578,410,o),
(578,496,cs),
(578,618,o),
(499,690,o),
(366,690,cs),
(33,690,l),
(33,574,l),
(338,574,ls),
(399,574,o),
(435,546,o),
(435,488,cs),
(435,429,o),
(404,400,o),
(350,400,cs),
(325,400,l),
(325,472,l),
(242,472,l),
(242,217,l),
(325,217,l),
(325,292,l),
(348,292,ls),
(404,292,o),
(435,263,o),
(435,202,cs),
(435,144,o),
(399,116,o),
(338,116,cs),
(242,116,l),
(242,0,l)
);
}
);
width = 626;
}
);
metricLeft = "neCarrier-canadian";
metricRight = "geCarrier-canadian";
note = uni160B;
unicode = 5643;
},
{
color = 9;
glyphname = "miCarrier-canadian";
lastChange = "2023-01-13 15:56:33 +0000";
layers = (
{
layerId = "86DE26EB-3058-4E6D-9480-BC9D8886A6AA";
shapes = (
{
closed = 1;
nodes = (
(366,0,ls),
(502,0,o),
(578,69,o),
(578,192,cs),
(578,272,o),
(533,335,o),
(467,366,c),
(465,323,l),
(536,348,o),
(578,410,o),
(578,496,cs),
(578,618,o),
(499,690,o),
(366,690,cs),
(33,690,l),
(33,574,l),
(338,574,ls),
(399,574,o),
(435,546,o),
(435,488,cs),
(435,429,o),
(404,400,o),
(356,400,cs),
(302,400,l),
(382,361,l),
(375,407,o),
(338,441,o),
(289,441,cs),
(235,441,o),
(194,399,o),
(194,346,cs),
(194,291,o),
(235,248,o),
(289,248,cs),
(337,248,o),
(374,286,o),
(380,329,c),
(301,292,l),
(355,292,ls),
(404,292,o),
(435,263,o),
(435,202,cs),
(435,144,o),
(399,116,o),
(338,116,cs),
(242,116,l),
(242,0,l)
);
}
);
width = 626;
}
);
metricLeft = "neCarrier-canadian";
metricRight = "geCarrier-canadian";
note = uni160C;
unicode = 5644;
},
{
color = 9;
glyphname = "maCarrier-canadian";
lastChange = "2023-01-13 15:56:33 +0000";
layers = (
{
layerId = "86DE26EB-3058-4E6D-9480-BC9D8886A6AA";
shapes = (
{
closed = 1;
nodes = (
(593,0,l),
(593,116,l),
(288,116,ls),
(227,116,o),
(191,143,o),
(191,200,cs),
(191,259,o),
(227,287,o),
(287,287,cs),
(384,287,l),
(384,402,l),
(288,402,ls),
(228,402,o),
(191,430,o),
(191,489,cs),
(191,546,o),
(228,574,o),
(288,574,cs),
(384,574,l),
(384,690,l),
(260,690,ls),
(125,690,o),
(48,621,o),
(48,497,cs),
(48,414,o),
(95,350,o),
(166,322,c),
(166,369,l),
(93,342,o),
(48,280,o),
(48,193,cs),
(48,71,o),
(127,0,o),
(260,0,cs)
);
}
);
width = 626;
}
);
metricLeft = "=|geCarrier-canadian";
metricRight = "=|neCarrier-canadian";
note = uni160D;
unicode = 5645;
},
{
color = 9;
glyphname = "yuCarrier-canadian";
lastChange = "2023-01-13 15:56:36 +0000";
layers = (
{
layerId = "86DE26EB-3058-4E6D-9480-BC9D8886A6AA";
shapes = (
{
closed = 1;
nodes = (
(511,-14,o),
(618,126,o),
(618,383,cs),
(618,609,o),
(542,703,o),
(427,703,cs),
(323,703,o),
(257,623,o),
(257,492,cs),
(257,366,o),
(323,293,o),
(412,293,cs),
(424,293,o),
(437,295,o),
(447,298,c),
(447,408,l),
(442,407,o),
(438,406,o),
(429,406,cs),
(397,406,o),
(377,433,o),
(377,498,cs),
(377,562,o),
(393,590,o),
(423,590,cs),
(461,590,o),
(483,551,o),
(483,387,cs),
(483,185,o),
(424,117,o),
(325,117,cs),
(241,117,o),
(191,168,o),
(191,275,cs),
(191,690,l),
(48,690,l),
(48,279,ls),
(48,86,o),
(156,-14,o),
(320,-14,cs)
);
}
);
width = 666;
}
);
metricLeft = "te-canadian";
metricRight = "te-canadian";
note = uni160E;
unicode = 5646;
},
{
color = 9;
glyphname = "yoCarrier-canadian";
lastChange = "2023-01-13 15:56:36 +0000";
layers = (
{
layerId = "86DE26EB-3058-4E6D-9480-BC9D8886A6AA";
shapes = (
{
closed = 1;
nodes = (
(344,-14,o),
(410,67,o),
(410,198,cs),
(410,324,o),
(345,397,o),
(254,397,cs),
(242,397,o),
(230,395,o),
(220,391,c),
(220,282,l),
(225,283,o),
(230,284,o),
(238,284,cs),
(270,284,o),
(291,257,o),
(291,191,cs),
(291,128,o),
(273,99,o),
(243,99,cs),
(207,99,o),
(184,139,o),
(184,302,cs),
(184,505,o),
(242,573,o),
(343,573,cs),
(427,573,o),
(476,522,o),
(476,414,cs),
(476,0,l),
(618,0,l),
(618,411,ls),
(618,604,o),
(512,703,o),
(348,703,cs),
(156,703,o),
(48,564,o),
(48,307,cs),
(48,81,o),
(125,-14,o),
(241,-14,cs)
);
}
);
width = 666;
}
);
metricLeft = "te-canadian";
metricRight = "te-canadian";
note = uni160F;
unicode = 5647;
},
{
color = 9;
glyphname = "yeCarrier-canadian";
lastChange = "2023-01-13 15:56:36 +0000";
layers = (
{
layerId = "86DE26EB-3058-4E6D-9480-BC9D8886A6AA";
shapes = (
{
closed = 1;
nodes = (
(458,-14,o),
(570,122,o),
(570,335,cs),
(570,577,o),
(448,690,o),
(226,690,cs),
(46,690,l),
(46,560,l),
(229,560,ls),
(358,560,o),
(427,497,o),
(427,331,cs),
(427,186,o),
(384,106,o),
(276,106,cs),
(192,106,o),
(156,152,o),
(156,221,cs),
(156,280,o),
(174,306,o),
(203,306,cs),
(233,306,o),
(250,279,o),
(250,222,cs),
(250,203,o),
(249,190,o),
(248,179,c),
(354,179,l),
(357,195,o),
(359,212,o),
(359,233,cs),
(359,340,o),
(306,419,o),
(203,419,cs),
(99,419,o),
(36,337,o),
(36,219,cs),
(36,88,o),
(120,-14,o),
(276,-14,cs)
);
}
);
width = 614;
}
);
metricRight = "theCarrier-canadian";
note = uni1610;
unicode = 5648;
},
{
color = 9;
glyphname = "yeeCarrier-canadian";
lastChange = "2023-01-13 15:56:36 +0000";
layers = (
{
layerId = "86DE26EB-3058-4E6D-9480-BC9D8886A6AA";
shapes = (
{
closed = 1;
nodes = (
(458,-14,o),
(570,122,o),
(570,335,cs),
(570,577,o),
(448,690,o),
(226,690,cs),
(46,690,l),
(46,560,l),
(229,560,ls),
(358,560,o),
(427,497,o),
(427,331,cs),
(427,186,o),
(384,106,o),
(276,106,cs),
(192,106,o),
(156,152,o),
(156,222,cs),
(156,278,o),
(174,306,o),
(201,306,cs),
(229,306,o),
(246,278,o),
(246,227,cs),
(246,187,l),
(315,187,l),
(315,488,l),
(246,488,l),
(246,315,l),
(260,315,l),
(258,380,o),
(226,419,o),
(169,419,cs),
(94,419,o),
(36,344,o),
(36,220,cs),
(36,88,o),
(120,-14,o),
(275,-14,cs)
);
}
);
width = 614;
}
);
metricRight = "theCarrier-canadian";
metricWidth = "yeCarrier-canadian";
note = uni1611;
unicode = 5649;
},
{
color = 9;
glyphname = "yiCarrier-canadian";
lastChange = "2023-01-13 15:56:36 +0000";
layers = (
{
layerId = "86DE26EB-3058-4E6D-9480-BC9D8886A6AA";
shapes = (
{
closed = 1;
nodes = (
(458,-14,o),
(570,122,o),
(570,335,cs),
(570,577,o),
(448,690,o),
(226,690,cs),
(46,690,l),
(46,560,l),
(229,560,ls),
(358,560,o),
(427,497,o),
(427,331,cs),
(427,186,o),
(384,106,o),
(282,106,cs),
(195,106,o),
(156,154,o),
(156,221,cs),
(156,280,o),
(178,305,o),
(213,306,c),
(171,329,l),
(178,292,o),
(213,260,o),
(259,260,cs),
(310,260,o),
(347,298,o),
(347,346,cs),
(347,394,o),
(310,431,o),
(259,431,cs),
(227,431,o),
(200,415,o),
(185,393,c),
(94,384,o),
(36,315,o),
(36,208,cs),
(36,87,o),
(120,-14,o),
(276,-14,cs)
);
}
);
width = 614;
}
);
metricRight = "theCarrier-canadian";
metricWidth = "yeCarrier-canadian";
note = uni1612;
unicode = 5650;
},
{
color = 9;
glyphname = "yaCarrier-canadian";
lastChange = "2023-01-13 15:56:36 +0000";
layers = (
{
layerId = "86DE26EB-3058-4E6D-9480-BC9D8886A6AA";
shapes = (
{
closed = 1;
nodes = (
(568,0,l),
(568,129,l),
(385,129,ls),
(256,129,o),
(187,192,o),
(187,358,cs),
(187,503,o),
(230,583,o),
(340,583,cs),
(422,583,o),
(459,538,o),
(459,469,cs),
(459,410,o),
(441,384,o),
(412,384,cs),
(382,384,o),
(364,411,o),
(364,468,cs),
(364,487,o),
(365,499,o),
(366,511,c),
(261,511,l),
(257,495,o),
(255,478,o),
(255,457,cs),
(255,350,o),
(308,270,o),
(412,270,cs),
(516,270,o),
(579,353,o),
(579,470,cs),
(579,602,o),
(495,703,o),
(340,703,cs),
(157,703,o),
(44,568,o),
(44,355,cs),
(44,113,o),
(166,0,o),
(388,0,cs)
);
}
);
width = 615;
}
);
metricLeft = "=|theCarrier-canadian";
metricRight = "=|yeCarrier-canadian";
note = uni1613;
unicode = 5651;
},
{
color = 9;
glyphname = "juCarrier-canadian";
lastChange = "2023-01-13 15:56:33 +0000";
layers = (
{
layerId = "86DE26EB-3058-4E6D-9480-BC9D8886A6AA";
shapes = (
{
closed = 1;
nodes = (
(499,-14,o),
(584,87,o),
(584,220,cs),
(584,337,o),
(522,419,o),
(418,419,cs),
(314,419,o),
(261,340,o),
(261,233,cs),
(261,212,o),
(263,195,o),
(267,179,c),
(373,179,l),
(372,190,o),
(370,205,o),
(370,222,cs),
(370,278,o),
(387,306,o),
(417,306,cs),
(446,306,o),
(465,278,o),
(465,222,cs),
(465,151,o),
(428,106,o),
(343,106,cs),
(237,106,o),
(189,175,o),
(189,296,cs),
(189,497,o),
(301,560,o),
(472,560,cs),
(574,560,l),
(574,690,l),
(41,690,l),
(41,565,l),
(266,565,l),
(373,617,l),
(172,617,o),
(48,501,o),
(48,291,cs),
(48,109,o),
(156,-14,o),
(335,-14,cs)
);
}
);
width = 620;
}
);
metricRight = "=|yeCarrier-canadian";
note = uni1614;
unicode = 5652;
},
{
color = 9;
glyphname = "juSayisi-canadian";
lastChange = "2023-01-13 15:56:36 +0000";
layers = (
{
anchors = (
{
name = top_center_can;
pos = (312,690);
}
);
layerId = "86DE26EB-3058-4E6D-9480-BC9D8886A6AA";
shapes = (
{
closed = 1;
nodes = (
(464,-14,o),
(572,109,o),
(572,291,cs),
(572,501,o),
(448,617,o),
(248,617,c),
(355,565,l),
(580,565,l),
(580,690,l),
(46,690,l),
(46,560,l),
(148,560,ls),
(319,560,o),
(431,497,o),
(431,296,cs),
(431,175,o),
(384,106,o),
(277,106,cs),
(192,106,o),
(156,151,o),
(156,222,cs),
(156,278,o),
(174,306,o),
(203,306,cs),
(233,306,o),
(250,278,o),
(250,222,cs),
(250,205,o),
(249,190,o),
(248,179,c),
(354,179,l),
(357,195,o),
(359,212,o),
(359,233,cs),
(359,340,o),
(306,419,o),
(203,419,cs),
(99,419,o),
(36,337,o),
(36,220,cs),
(36,87,o),
(121,-14,o),
(285,-14,cs)
);
}
);
width = 621;
}
);
metricLeft = "yeCarrier-canadian";
metricRight = "=|juCarrier-canadian";
note = uni1615;
unicode = 5653;
},
{
color = 9;
glyphname = "joCarrier-canadian";
lastChange = "2023-01-13 15:56:36 +0000";
layers = (
{
layerId = "86DE26EB-3058-4E6D-9480-BC9D8886A6AA";
shapes = (
{
closed = 1;
nodes = (
(580,0,l),
(580,125,l),
(355,125,l),
(248,72,l),
(448,72,o),
(572,188,o),
(572,399,cs),
(572,581,o),
(464,703,o),
(285,703,cs),
(121,703,o),
(36,603,o),
(36,469,cs),
(36,353,o),
(99,270,o),
(203,270,cs),
(306,270,o),
(359,350,o),
(359,457,cs),
(359,478,o),
(357,495,o),
(354,511,c),
(248,511,l),
(249,499,o),
(250,485,o),
(250,468,cs),
(250,412,o),
(233,384,o),
(203,384,cs),
(174,384,o),
(156,412,o),
(156,468,cs),
(156,539,o),
(192,583,o),
(277,583,cs),
(384,583,o),
(431,515,o),
(431,394,cs),
(431,193,o),
(319,129,o),
(148,129,cs),
(46,129,l),
(46,0,l)
);
}
);
width = 621;
}
);
metricLeft = "yeCarrier-canadian";
metricRight = "=|juCarrier-canadian";
note = uni1616;
unicode = 5654;
},
{
color = 9;
glyphname = "jeCarrier-canadian";
lastChange = "2023-01-13 15:56:33 +0000";
layers = (
{
layerId = "86DE26EB-3058-4E6D-9480-BC9D8886A6AA";
shapes = (
{
closed = 1;
nodes = (
(545,-14,o),
(621,81,o),
(621,307,cs),
(621,565,o),
(514,703,o),
(368,703,cs),
(248,703,o),
(175,618,o),
(166,450,c),
(192,454,l),
(192,690,l),
(51,690,l),
(51,0,l),
(193,0,l),
(193,284,ls),
(193,503,o),
(254,573,o),
(343,573,cs),
(427,573,o),
(486,496,o),
(486,304,cs),
(486,139,o),
(463,99,o),
(426,99,cs),
(397,99,o),
(379,128,o),
(379,191,cs),
(379,257,o),
(400,284,o),
(433,284,cs),
(440,284,o),
(444,283,o),
(449,282,c),
(449,391,l),
(440,395,o),
(427,397,o),
(415,397,cs),
(326,397,o),
(260,324,o),
(260,198,cs),
(260,67,o),
(326,-14,o),
(429,-14,cs)
);
}
);
width = 669;
}
);
metricLeft = "nunavuth-canadian";
metricRight = "te-canadian";
note = uni1617;
unicode = 5655;
},
{
color = 9;
glyphname = "jeeCarrier-canadian";
lastChange = "2023-01-13 15:56:33 +0000";
layers = (
{
layerId = "86DE26EB-3058-4E6D-9480-BC9D8886A6AA";
shapes = (
{
closed = 1;
nodes = (
(544,-14,o),
(621,82,o),
(621,307,cs),
(621,565,o),
(514,703,o),
(368,703,cs),
(269,703,o),
(201,646,o),
(175,532,c),
(192,516,l),
(192,690,l),
(51,690,l),
(51,0,l),
(193,0,l),
(193,284,ls),
(193,503,o),
(254,573,o),
(343,573,cs),
(427,573,o),
(486,496,o),
(486,304,cs),
(486,149,o),
(457,99,o),
(401,99,cs),
(354,99,o),
(325,138,o),
(325,204,cs),
(325,253,o),
(337,287,o),
(360,303,c),
(360,230,l),
(427,230,l),
(427,449,l),
(360,449,l),
(360,375,l),
(303,354,o),
(260,291,o),
(260,191,cs),
(260,65,o),
(324,-14,o),
(428,-14,cs)
);
}
);
width = 669;
}
);
metricLeft = "nunavuth-canadian";
metricRight = "jeCarrier-canadian";
note = uni1618;
unicode = 5656;
},
{
color = 9;
glyphname = "jiCarrier-canadian";
lastChange = "2023-01-13 15:56:33 +0000";
layers = (
{
layerId = "86DE26EB-3058-4E6D-9480-BC9D8886A6AA";
shapes = (
{
closed = 1;
nodes = (
(544,-14,o),
(621,82,o),
(621,307,cs),
(621,565,o),
(514,703,o),
(368,703,cs),
(269,703,o),
(201,646,o),
(175,532,c),
(192,516,l),
(192,690,l),
(51,690,l),
(51,0,l),
(193,0,l),
(193,284,ls),
(193,503,o),
(254,573,o),
(343,573,cs),
(427,573,o),
(486,496,o),
(486,304,cs),
(486,149,o),
(457,99,o),
(401,99,cs),
(354,99,o),
(325,138,o),
(325,204,cs),
(325,233,o),
(330,252,o),
(340,265,c),
(348,259,o),
(358,255,o),
(370,255,cs),
(415,255,o),
(448,293,o),
(448,340,cs),
(448,387,o),
(415,424,o),
(370,424,cs),
(307,424,o),
(279,361,o),
(295,314,c),
(273,286,o),
(260,245,o),
(260,191,cs),
(260,65,o),
(324,-14,o),
(428,-14,cs)
);
}
);
width = 669;
}
);
metricLeft = "nunavuth-canadian";
metricRight = "jeCarrier-canadian";
note = uni1619;
unicode = 5657;
},
{
color = 9;
glyphname = "jiSayisi-canadian";
lastChange = "2023-01-13 15:56:33 +0000";
layers = (
{
layerId = "86DE26EB-3058-4E6D-9480-BC9D8886A6AA";
shapes = (
{
closed = 1;
nodes = (
(514,-14,o),
(621,125,o),
(621,383,cs),
(621,609,o),
(545,703,o),
(429,703,cs),
(326,703,o),
(260,623,o),
(260,492,cs),
(260,366,o),
(326,293,o),
(415,293,cs),
(427,293,o),
(440,295,o),
(449,298,c),
(449,408,l),
(444,407,o),
(440,406,o),
(433,406,cs),
(400,406,o),
(379,433,o),
(379,498,cs),
(379,562,o),
(396,590,o),
(426,590,cs),
(463,590,o),
(486,551,o),
(486,385,cs),
(486,194,o),
(427,117,o),
(343,117,cs),
(254,117,o),
(193,186,o),
(193,406,cs),
(193,690,l),
(51,690,l),
(51,0,l),
(192,0,l),
(192,236,l),
(166,240,l),
(175,71,o),
(248,-14,o),
(368,-14,cs)
);
}
);
width = 669;
}
);
metricLeft = "nunavuth-canadian";
metricRight = "jeCarrier-canadian";
note = uni161A;
unicode = 5658;
},
{
color = 9;
glyphname = "jaCarrier-canadian";
lastChange = "2023-01-13 15:56:33 +0000";
layers = (
{
anchors = (
{
name = top_center_can;
pos = (327,690);
}
);
layerId = "86DE26EB-3058-4E6D-9480-BC9D8886A6AA";
shapes = (
{
closed = 1;
nodes = (
(421,-14,o),
(495,71,o),
(504,240,c),
(477,236,l),
(477,0,l),
(618,0,l),
(618,690,l),
(476,690,l),
(476,406,ls),
(476,186,o),
(415,117,o),
(327,117,cs),
(242,117,o),
(184,194,o),
(184,385,cs),
(184,551,o),
(207,590,o),
(243,590,cs),
(273,590,o),
(291,562,o),
(291,498,cs),
(291,433,o),
(270,406,o),
(237,406,cs),
(230,406,o),
(225,407,o),
(220,408,c),
(220,298,l),
(230,295,o),
(242,293,o),
(254,293,cs),
(345,293,o),
(410,366,o),
(410,492,cs),
(410,623,o),
(344,703,o),
(241,703,cs),
(125,703,o),
(48,609,o),
(48,383,cs),
(48,125,o),
(156,-14,o),
(301,-14,cs)
);
}
);
width = 669;
}
);
metricLeft = "=|jeCarrier-canadian";
metricRight = "nunavuth-canadian";
note = uni161B;
unicode = 5659;
},
{
color = 9;
glyphname = "jjuCarrier-canadian";
lastChange = "2023-01-13 15:56:36 +0000";
layers = (
{
layerId = "86DE26EB-3058-4E6D-9480-BC9D8886A6AA";
shapes = (
{
closed = 1;
nodes = (
(497,-14,o),
(581,88,o),
(581,219,cs),
(581,337,o),
(518,419,o),
(414,419,cs),
(310,419,o),
(256,340,o),
(256,233,cs),
(256,213,o),
(258,195,o),
(262,179,c),
(368,179,l),
(367,190,o),
(366,206,o),
(366,222,cs),
(366,277,o),
(384,306,o),
(412,306,cs),
(441,306,o),
(460,277,o),
(460,221,cs),
(460,150,o),
(422,103,o),
(340,103,cs),
(234,103,o),
(188,173,o),
(188,301,cs),
(188,486,o),
(291,560,o),
(455,560,cs),
(570,560,l),
(570,690,l),
(443,690,ls),
(340,690,o),
(253,663,o),
(188,613,c),
(100,703,l),
(7,613,l),
(101,519,l),
(66,461,o),
(47,389,o),
(47,307,cs),
(47,111,o),
(158,-14,o),
(334,-14,cs)
);
}
);
width = 617;
}
);
metricRight = "=|yeCarrier-canadian";
note = uni161C;
unicode = 5660;
},
{
color = 9;
glyphname = "jjoCarrier-canadian";
lastChange = "2023-01-13 15:56:36 +0000";
layers = (
{
layerId = "86DE26EB-3058-4E6D-9480-BC9D8886A6AA";
shapes = (
{
closed = 1;
nodes = (
(610,76,l),
(516,171,l),
(551,229,o),
(569,300,o),
(569,383,cs),
(569,579,o),
(459,703,o),
(283,703,cs),
(122,703,o),
(36,602,o),
(36,470,cs),
(36,353,o),
(99,270,o),
(203,270,cs),
(307,270,o),
(360,350,o),
(360,457,cs),
(360,477,o),
(358,495,o),
(355,511,c),
(248,511,l),
(249,499,o),
(251,484,o),
(251,468,cs),
(251,412,o),
(233,384,o),
(204,384,cs),
(175,384,o),
(156,412,o),
(156,469,cs),
(156,540,o),
(193,586,o),
(277,586,cs),
(383,586,o),
(429,517,o),
(429,388,cs),
(429,204,o),
(326,129,o),
(161,129,cs),
(46,129,l),
(46,0,l),
(173,0,ls),
(277,0,o),
(363,27,o),
(428,76,c),
(517,-14,l)
);
}
);
width = 617;
}
);
metricLeft = "yeCarrier-canadian";
metricRight = "=|jjuCarrier-canadian";
note = uni161D;
unicode = 5661;
},
{
color = 9;
glyphname = "jjeCarrier-canadian";
lastChange = "2023-01-13 15:56:33 +0000";
layers = (
{
layerId = "86DE26EB-3058-4E6D-9480-BC9D8886A6AA";
shapes = (
{
closed = 1;
nodes = (
(554,-14,o),
(629,81,o),
(629,307,cs),
(629,564,o),
(529,703,o),
(346,703,cs),
(274,703,o),
(211,680,o),
(162,635,c),
(87,703,l),
(1,607,l),
(90,526,l),
(71,479,o),
(60,422,o),
(60,355,cs),
(60,0,l),
(202,0,l),
(202,359,ls),
(202,503,o),
(251,573,o),
(343,573,cs),
(436,573,o),
(495,505,o),
(495,302,cs),
(495,139,o),
(471,99,o),
(435,99,cs),
(405,99,o),
(387,128,o),
(387,191,cs),
(387,257,o),
(409,284,o),
(440,284,cs),
(448,284,o),
(453,283,o),
(458,282,c),
(458,391,l),
(448,395,o),
(436,397,o),
(423,397,cs),
(333,397,o),
(268,324,o),
(268,198,cs),
(268,67,o),
(333,-14,o),
(438,-14,cs)
);
}
);
width = 677;
}
);
metricRight = "jeCarrier-canadian";
note = uni161E;
unicode = 5662;
},
{
color = 9;
glyphname = "jjeeCarrier-canadian";
lastChange = "2023-01-13 15:56:33 +0000";
layers = (
{
layerId = "86DE26EB-3058-4E6D-9480-BC9D8886A6AA";
shapes = (
{
closed = 1;
nodes = (
(552,-14,o),
(629,82,o),
(629,307,cs),
(629,564,o),
(529,703,o),
(346,703,cs),
(274,703,o),
(211,680,o),
(162,635,c),
(87,703,l),
(1,607,l),
(90,526,l),
(71,479,o),
(60,422,o),
(60,355,cs),
(60,0,l),
(202,0,l),
(202,359,ls),
(202,503,o),
(251,573,o),
(342,573,cs),
(436,573,o),
(495,505,o),
(495,302,cs),
(495,149,o),
(466,99,o),
(410,99,cs),
(362,99,o),
(333,138,o),
(333,204,cs),
(333,254,o),
(346,286,o),
(368,302,c),
(368,230,l),
(435,230,l),
(435,448,l),
(368,448,l),
(368,375,l),
(312,355,o),
(268,290,o),
(268,191,cs),
(268,65,o),
(332,-14,o),
(437,-14,cs)
);
}
);
width = 677;
}
);
metricLeft = "jjeCarrier-canadian";
metricRight = "jeCarrier-canadian";
note = uni161F;
unicode = 5663;
},
{
color = 9;
glyphname = "jjiCarrier-canadian";
lastChange = "2023-01-13 15:56:33 +0000";
layers = (
{
layerId = "86DE26EB-3058-4E6D-9480-BC9D8886A6AA";
shapes = (
{
closed = 1;
nodes = (
(552,-14,o),
(629,82,o),
(629,307,cs),
(629,564,o),
(529,703,o),
(346,703,cs),
(274,703,o),
(211,680,o),
(162,635,c),
(87,703,l),
(1,607,l),
(90,526,l),
(71,479,o),
(60,422,o),
(60,355,cs),
(60,0,l),
(202,0,l),
(202,359,ls),
(202,503,o),
(251,573,o),
(342,573,cs),
(436,573,o),
(495,505,o),
(495,302,cs),
(495,149,o),
(466,99,o),
(410,99,cs),
(362,99,o),
(333,138,o),
(333,204,cs),
(333,234,o),
(339,253,o),
(349,266,c),
(357,259,o),
(369,255,o),
(381,255,cs),
(427,255,o),
(460,293,o),
(460,340,cs),
(460,387,o),
(427,424,o),
(381,424,cs),
(323,424,o),
(292,365,o),
(305,317,c),
(283,289,o),
(268,247,o),
(268,191,cs),
(268,65,o),
(332,-14,o),
(437,-14,cs)
);
}
);
width = 677;
}
);
metricLeft = "jjeCarrier-canadian";
metricRight = "jeCarrier-canadian";
note = uni1620;
unicode = 5664;
},
{
color = 9;
glyphname = "jjaCarrier-canadian";
lastChange = "2023-01-13 15:56:33 +0000";
layers = (
{
layerId = "86DE26EB-3058-4E6D-9480-BC9D8886A6AA";
shapes = (
{
closed = 1;
nodes = (
(404,-14,o),
(467,10,o),
(515,55,c),
(591,-14,l),
(677,83,l),
(588,163,l),
(608,211,o),
(618,268,o),
(618,335,cs),
(618,690,l),
(476,690,l),
(476,330,ls),
(476,186,o),
(427,117,o),
(335,117,cs),
(242,117,o),
(184,185,o),
(184,387,cs),
(184,551,o),
(207,590,o),
(243,590,cs),
(273,590,o),
(291,562,o),
(291,498,cs),
(291,433,o),
(270,406,o),
(238,406,cs),
(230,406,o),
(225,407,o),
(220,408,c),
(220,298,l),
(230,295,o),
(242,293,o),
(254,293,cs),
(345,293,o),
(410,366,o),
(410,492,cs),
(410,623,o),
(344,703,o),
(241,703,cs),
(125,703,o),
(48,609,o),
(48,383,cs),
(48,126,o),
(149,-14,o),
(332,-14,cs)
);
}
);
width = 678;
}
);
metricLeft = "=|jeCarrier-canadian";
metricRight = "=|jjeCarrier-canadian";
note = uni1621;
unicode = 5665;
},
{
color = 9;
glyphname = "luCarrier-canadian";
lastChange = "2023-01-13 15:56:33 +0000";
layers = (
{
layerId = "86DE26EB-3058-4E6D-9480-BC9D8886A6AA";
shapes = (
{
closed = 1;
nodes = (
(478,-14,o),
(572,83,o),
(572,271,cs),
(572,690,l),
(430,690,l),
(430,273,ls),
(430,164,o),
(386,117,o),
(319,117,cs),
(233,117,o),
(193,184,o),
(193,319,cs),
(193,464,o),
(233,555,o),
(329,577,c),
(329,690,l),
(43,690,l),
(43,573,l),
(196,573,l),
(294,617,l),
(135,597,o),
(50,499,o),
(50,298,cs),
(50,103,o),
(143,-14,o),
(314,-14,cs)
);
}
);
width = 620;
}
);
metricRight = "te-canadian";
note = uni1622;
unicode = 5666;
},
{
color = 9;
glyphname = "loCarrier-canadian";
lastChange = "2023-01-13 15:56:33 +0000";
layers = (
{
layerId = "86DE26EB-3058-4E6D-9480-BC9D8886A6AA";
shapes = (
{
closed = 1;
nodes = (
(191,0,l),
(191,416,ls),
(191,526,o),
(234,573,o),
(303,573,cs),
(388,573,o),
(428,506,o),
(428,371,cs),
(428,226,o),
(388,134,o),
(292,113,c),
(292,0,l),
(578,0,l),
(578,117,l),
(425,117,l),
(327,72,l),
(485,93,o),
(570,190,o),
(570,392,cs),
(570,586,o),
(478,703,o),
(307,703,cs),
(142,703,o),
(48,607,o),
(48,418,cs),
(48,0,l)
);
}
);
width = 621;
}
);
metricLeft = "te-canadian";
metricRight = "=|luCarrier-canadian";
note = uni1623;
unicode = 5667;
},
{
color = 9;
glyphname = "leCarrier-canadian";
lastChange = "2023-01-13 15:56:36 +0000";
layers = (
{
anchors = (
{
name = middle_center_can;
pos = (298,346);
}
);
layerId = "86DE26EB-3058-4E6D-9480-BC9D8886A6AA";
shapes = (
{
closed = 1;
nodes = (
(240,0,ls),
(451,0,o),
(572,116,o),
(572,356,cs),
(572,598,o),
(455,703,o),
(340,703,cs),
(241,703,o),
(183,638,o),
(163,548,c),
(176,554,l),
(176,690,l),
(48,690,l),
(48,376,l),
(169,376,l),
(172,511,o),
(228,573,o),
(299,573,cs),
(369,573,o),
(429,517,o),
(429,355,cs),
(429,194,o),
(366,129,o),
(241,129,cs),
(48,129,l),
(48,0,l)
);
}
);
width = 616;
}
);
metricRight = "theCarrier-canadian";
note = uni1624;
unicode = 5668;
},
{
color = 9;
glyphname = "laCarrier-canadian";
lastChange = "2023-01-13 15:56:36 +0000";
layers = (
{
layerId = "86DE26EB-3058-4E6D-9480-BC9D8886A6AA";
shapes = (
{
closed = 1;
nodes = (
(568,0,l),
(568,129,l),
(376,129,ls),
(250,129,o),
(187,194,o),
(187,355,cs),
(187,517,o),
(247,573,o),
(317,573,cs),
(388,573,o),
(444,511,o),
(447,376,c),
(568,376,l),
(568,690,l),
(441,690,l),
(441,554,l),
(453,548,l),
(434,638,o),
(376,703,o),
(276,703,cs),
(161,703,o),
(44,598,o),
(44,356,cs),
(44,116,o),
(165,0,o),
(377,0,cs)
);
}
);
width = 616;
}
);
metricLeft = "=|theCarrier-canadian";
metricRight = "=|leCarrier-canadian";
note = uni1627;
unicode = 5671;
},
{
color = 1;
glyphname = "dluCarrier-canadian";
lastChange = "2023-01-13 15:56:33 +0000";
layers = (
{
layerId = "86DE26EB-3058-4E6D-9480-BC9D8886A6AA";
shapes = (
{
closed = 1;
nodes = (
(478,-14,o),
(570,103,o),
(570,298,cs),
(570,467,o),
(512,562,o),
(404,599,c),
(376,582,l),
(556,582,l),
(556,504,l),
(659,504,l),
(659,767,l),
(556,767,l),
(556,690,l),
(292,690,l),
(292,576,l),
(388,555,o),
(428,464,o),
(428,319,cs),
(428,184,o),
(388,117,o),
(305,117,cs),
(234,117,o),
(191,164,o),
(191,273,cs),
(191,690,l),
(48,690,l),
(48,271,ls),
(48,83,o),
(142,-14,o),
(307,-14,cs)
);
}
);
width = 684;
}
);
metricLeft = "te-canadian";
note = uni1628;
unicode = 5672;
},
{
color = 9;
glyphname = "dloCarrier-canadian";
lastChange = "2023-01-13 15:56:33 +0000";
layers = (
{
layerId = "86DE26EB-3058-4E6D-9480-BC9D8886A6AA";
shapes = (
{
closed = 1;
nodes = (
(659,-77,l),
(659,185,l),
(556,185,l),
(556,107,l),
(376,107,l),
(404,91,l),
(512,128,o),
(570,223,o),
(570,392,cs),
(570,586,o),
(478,703,o),
(308,703,cs),
(141,703,o),
(48,607,o),
(48,418,cs),
(48,0,l),
(191,0,l),
(191,416,ls),
(191,526,o),
(234,573,o),
(305,573,cs),
(388,573,o),
(428,506,o),
(428,371,cs),
(428,226,o),
(388,134,o),
(292,114,c),
(292,0,l),
(556,0,l),
(556,-77,l)
);
}
);
width = 684;
}
);
metricLeft = "te-canadian";
metricRight = "dluCarrier-canadian";
note = uni1629;
unicode = 5673;
},
{
color = 9;
glyphname = "dleCarrier-canadian";
lastChange = "2023-01-13 15:56:33 +0000";
layers = (
{
anchors = (
{
name = middle_center_can;
pos = (314,346);
}
);
layerId = "86DE26EB-3058-4E6D-9480-BC9D8886A6AA";
shapes = (
{
closed = 1;
nodes = (
(256,0,ls),
(467,0,o),
(587,116,o),
(587,356,cs),
(587,598,o),
(470,703,o),
(355,703,cs),
(260,703,o),
(179,642,o),
(151,503,c),
(167,496,l),
(167,696,l),
(232,696,l),
(232,796,l),
(-1,796,l),
(-1,696,l),
(65,696,l),
(65,376,l),
(185,376,l),
(188,511,o),
(244,573,o),
(315,573,cs),
(384,573,o),
(445,517,o),
(445,355,cs),
(445,194,o),
(382,129,o),
(256,129,cs),
(65,129,l),
(65,0,l)
);
}
);
width = 631;
}
);
metricRight = "theCarrier-canadian";
note = uni162A;
unicode = 5674;
},
{
color = 9;
glyphname = "dlaCarrier-canadian";
lastChange = "2023-01-13 15:56:36 +0000";
layers = (
{
layerId = "86DE26EB-3058-4E6D-9480-BC9D8886A6AA";
shapes = (
{
closed = 1;
nodes = (
(568,0,l),
(568,129,l),
(376,129,ls),
(250,129,o),
(187,194,o),
(187,355,cs),
(187,517,o),
(248,573,o),
(317,573,cs),
(387,573,o),
(444,511,o),
(447,376,c),
(568,376,l),
(568,696,l),
(633,696,l),
(633,796,l),
(400,796,l),
(400,696,l),
(465,696,l),
(465,496,l),
(481,503,l),
(454,642,o),
(372,703,o),
(276,703,cs),
(161,703,o),
(44,598,o),
(44,356,cs),
(44,116,o),
(165,0,o),
(377,0,cs)
);
}
);
width = 632;
}
);
metricLeft = "=|theCarrier-canadian";
metricRight = "=|dleCarrier-canadian";
note = uni162D;
unicode = 5677;
},
{
color = 9;
glyphname = "lhuCarrier-canadian";
lastChange = "2023-01-13 15:56:36 +0000";
layers = (
{
layerId = "86DE26EB-3058-4E6D-9480-BC9D8886A6AA";
shapes = (
{
closed = 1;
nodes = (
(487,-14,o),
(581,107,o),
(581,295,cs),
(581,493,o),
(496,596,o),
(372,617,c),
(436,572,l),
(588,572,l),
(588,690,l),
(361,690,l),
(361,577,l),
(410,532,o),
(439,446,o),
(439,325,cs),
(439,179,o),
(397,117,o),
(316,117,cs),
(235,117,o),
(193,179,o),
(193,325,cs),
(193,446,o),
(222,532,o),
(270,577,c),
(270,690,l),
(43,690,l),
(43,572,l),
(195,572,l),
(260,617,l),
(136,596,o),
(51,493,o),
(51,295,cs),
(51,107,o),
(145,-14,o),
(316,-14,cs)
);
}
);
width = 631;
}
);
metricLeft = "luCarrier-canadian";
metricRight = "=|";
note = uni162E;
unicode = 5678;
},
{
color = 9;
glyphname = "lhoCarrier-canadian";
lastChange = "2023-01-13 15:56:36 +0000";
layers = (
{
layerId = "86DE26EB-3058-4E6D-9480-BC9D8886A6AA";
shapes = (
{
closed = 1;
nodes = (
(270,0,l),
(270,113,l),
(222,157,o),
(193,243,o),
(193,365,cs),
(193,511,o),
(234,573,o),
(316,573,cs),
(397,573,o),
(438,511,o),
(438,365,cs),
(438,243,o),
(410,157,o),
(361,113,c),
(361,0,l),
(588,0,l),
(588,118,l),
(436,118,l),
(372,72,l),
(496,94,o),
(581,197,o),
(581,395,cs),
(581,582,o),
(487,703,o),
(316,703,cs),
(144,703,o),
(51,582,o),
(51,395,cs),
(51,197,o),
(136,94,o),
(260,72,c),
(196,118,l),
(43,118,l),
(43,0,l)
);
}
);
width = 631;
}
);
metricLeft = "luCarrier-canadian";
metricRight = "=|";
note = uni162F;
unicode = 5679;
},
{
color = 9;
glyphname = "lheCarrier-canadian";
lastChange = "2023-01-13 15:56:33 +0000";
layers = (
{
anchors = (
{
name = middle_center_can;
pos = (309,345);
}
);
layerId = "86DE26EB-3058-4E6D-9480-BC9D8886A6AA";
shapes = (
{
closed = 1;
nodes = (
(469,-14,o),
(588,92,o),
(588,345,cs),
(588,598,o),
(469,703,o),
(352,703,cs),
(251,703,o),
(191,639,o),
(172,553,c),
(179,553,l),
(179,690,l),
(51,690,l),
(51,410,l),
(172,410,l),
(187,501,o),
(229,573,o),
(312,573,cs),
(383,573,o),
(446,518,o),
(446,345,cs),
(446,172,o),
(383,117,o),
(312,117,cs),
(229,117,o),
(187,188,o),
(172,280,c),
(51,280,l),
(51,0,l),
(179,0,l),
(179,137,l),
(172,137,l),
(191,50,o),
(251,-14,o),
(352,-14,cs)
);
}
);
width = 632;
}
);
metricLeft = "nunavuth-canadian";
metricRight = "theCarrier-canadian";
note = uni1630;
unicode = 5680;
},
{
color = 9;
glyphname = "lhaCarrier-canadian";
lastChange = "2023-01-13 15:56:36 +0000";
layers = (
{
layerId = "86DE26EB-3058-4E6D-9480-BC9D8886A6AA";
shapes = (
{
closed = 1;
nodes = (
(383,-14,o),
(441,50,o),
(461,137,c),
(455,137,l),
(455,0,l),
(583,0,l),
(583,280,l),
(462,280,l),
(445,188,o),
(405,117,o),
(322,117,cs),
(251,117,o),
(187,172,o),
(187,345,cs),
(187,518,o),
(250,573,o),
(322,573,cs),
(405,573,o),
(445,501,o),
(462,410,c),
(583,410,l),
(583,690,l),
(455,690,l),
(455,553,l),
(461,553,l),
(441,639,o),
(383,703,o),
(281,703,cs),
(163,703,o),
(44,598,o),
(44,345,cs),
(44,92,o),
(163,-14,o),
(281,-14,cs)
);
}
);
width = 634;
}
);
metricLeft = "=|theCarrier-canadian";
metricRight = "nunavuth-canadian";
note = uni1633;
unicode = 5683;
},
{
color = 9;
glyphname = "tlhuCarrier-canadian";
lastChange = "2023-01-13 15:56:33 +0000";
layers = (
{
layerId = "86DE26EB-3058-4E6D-9480-BC9D8886A6AA";
shapes = (
{
closed = 1;
nodes = (
(487,-14,o),
(581,107,o),
(581,295,cs),
(581,458,o),
(523,557,o),
(435,600,c),
(401,582,l),
(566,582,l),
(566,504,l),
(668,504,l),
(668,767,l),
(566,767,l),
(566,690,l),
(361,690,l),
(361,577,l),
(411,532,o),
(440,446,o),
(440,325,cs),
(440,179,o),
(398,117,o),
(316,117,cs),
(234,117,o),
(192,179,o),
(192,325,cs),
(192,446,o),
(221,532,o),
(270,577,c),
(270,690,l),
(43,690,l),
(43,572,l),
(216,572,l),
(181,591,l),
(101,546,o),
(51,449,o),
(51,295,cs),
(51,107,o),
(145,-14,o),
(316,-14,cs)
);
}
);
width = 690;
}
);
metricLeft = "lhuCarrier-canadian";
note = uni1634;
unicode = 5684;
},
{
color = 9;
glyphname = "tlhoCarrier-canadian";
lastChange = "2023-01-13 15:56:36 +0000";
layers = (
{
layerId = "86DE26EB-3058-4E6D-9480-BC9D8886A6AA";
shapes = (
{
closed = 1;
nodes = (
(125,-77,l),
(125,0,l),
(330,0,l),
(330,113,l),
(280,157,o),
(252,243,o),
(252,365,cs),
(252,511,o),
(293,573,o),
(376,573,cs),
(457,573,o),
(498,511,o),
(498,365,cs),
(498,243,o),
(470,157,o),
(420,113,c),
(420,0,l),
(648,0,l),
(648,118,l),
(474,118,l),
(510,99,l),
(590,144,o),
(640,241,o),
(640,395,cs),
(640,582,o),
(546,703,o),
(376,703,cs),
(204,703,o),
(111,582,o),
(111,395,cs),
(111,232,o),
(168,132,o),
(257,90,c),
(290,107,l),
(125,107,l),
(125,185,l),
(22,185,l),
(22,-77,l)
);
}
);
width = 691;
}
);
metricLeft = "=|tlhuCarrier-canadian";
metricRight = "lhuCarrier-canadian";
note = uni1635;
unicode = 5685;
},
{
color = 9;
glyphname = "tlheCarrier-canadian";
lastChange = "2023-01-13 15:56:36 +0000";
layers = (
{
anchors = (
{
name = middle_center_can;
pos = (323,345);
}
);
layerId = "86DE26EB-3058-4E6D-9480-BC9D8886A6AA";
shapes = (
{
closed = 1;
nodes = (
(483,-14,o),
(602,92,o),
(602,345,cs),
(602,598,o),
(483,703,o),
(365,703,cs),
(262,703,o),
(181,643,o),
(151,506,c),
(167,497,l),
(167,696,l),
(233,696,l),
(233,796,l),
(-1,796,l),
(-1,696,l),
(65,696,l),
(65,410,l),
(185,410,l),
(201,501,o),
(242,573,o),
(325,573,cs),
(396,573,o),
(460,525,o),
(460,345,cs),
(460,172,o),
(396,117,o),
(325,117,cs),
(242,117,o),
(201,188,o),
(185,280,c),
(65,280,l),
(65,0,l),
(192,0,l),
(192,176,l),
(182,156,l),
(196,60,o),
(258,-14,o),
(365,-14,cs)
);
}
);
width = 646;
}
);
metricLeft = "dleCarrier-canadian";
metricRight = "theCarrier-canadian";
note = uni1636;
unicode = 5686;
},
{
color = 9;
glyphname = "tlhaCarrier-canadian";
lastChange = "2023-01-13 15:56:36 +0000";
layers = (
{
layerId = "86DE26EB-3058-4E6D-9480-BC9D8886A6AA";
shapes = (
{
closed = 1;
nodes = (
(389,-14,o),
(450,60,o),
(465,156,c),
(455,177,l),
(455,0,l),
(583,0,l),
(583,280,l),
(462,280,l),
(445,188,o),
(405,117,o),
(322,117,cs),
(251,117,o),
(187,172,o),
(187,345,cs),
(187,525,o),
(250,573,o),
(322,573,cs),
(405,573,o),
(445,501,o),
(462,410,c),
(583,410,l),
(583,696,l),
(647,696,l),
(647,796,l),
(413,796,l),
(413,696,l),
(479,696,l),
(479,497,l),
(496,506,l),
(467,643,o),
(385,703,o),
(281,703,cs),
(163,703,o),
(44,598,o),
(44,345,cs),
(44,92,o),
(163,-14,o),
(281,-14,cs)
);
}
);
width = 646;
}
);
metricLeft = "=|theCarrier-canadian";
metricRight = "=|dleCarrier-canadian";
note = uni1639;
unicode = 5689;
},
{
color = 9;
glyphname = "tluCarrier-canadian";
lastChange = "2023-01-13 15:56:36 +0000";
layers = (
{
layerId = "86DE26EB-3058-4E6D-9480-BC9D8886A6AA";
shapes = (
{
closed = 1;
nodes = (
(315,-14,o),
(367,21,o),
(391,99,c),
(348,99,l),
(372,21,o),
(424,-14,o),
(493,-14,cs),
(619,-14,o),
(687,79,o),
(687,260,cs),
(687,451,o),
(637,556,o),
(535,600,c),
(503,582,l),
(673,582,l),
(673,504,l),
(776,504,l),
(776,767,l),
(673,767,l),
(673,690,l),
(414,690,l),
(414,576,l),
(504,571,o),
(545,474,o),
(545,270,cs),
(545,145,o),
(523,115,o),
(487,115,cs),
(454,115,o),
(437,144,o),
(437,204,cs),
(437,308,l),
(302,308,l),
(302,204,ls),
(302,144,o),
(284,115,o),
(252,115,cs),
(215,115,o),
(194,145,o),
(194,270,cs),
(194,474,o),
(235,571,o),
(324,576,c),
(324,690,l),
(44,690,l),
(44,572,l),
(223,572,l),
(188,592,l),
(98,544,o),
(52,442,o),
(52,260,cs),
(52,79,o),
(120,-14,o),
(245,-14,cs)
);
}
);
width = 798;
}
);
metricRight = "tlhuCarrier-canadian";
note = uni163A;
unicode = 5690;
},
{
color = 1;
glyphname = "tloCarrier-canadian";
lastChange = "2023-01-13 15:56:36 +0000";
layers = (
{
layerId = "86DE26EB-3058-4E6D-9480-BC9D8886A6AA";
shapes = (
{
closed = 1;
nodes = (
(776,-77,l),
(776,185,l),
(673,185,l),
(673,107,l),
(503,107,l),
(535,90,l),
(637,133,o),
(687,239,o),
(687,430,cs),
(687,611,o),
(619,703,o),
(493,703,cs),
(424,703,o),
(372,668,o),
(348,590,c),
(391,590,l),
(367,668,o),
(315,703,o),
(245,703,cs),
(120,703,o),
(52,611,o),
(52,430,cs),
(52,247,o),
(98,146,o),
(188,98,c),
(223,118,l),
(44,118,l),
(44,0,l),
(324,0,l),
(324,114,l),
(235,119,o),
(194,215,o),
(194,420,cs),
(194,545,o),
(215,575,o),
(252,575,cs),
(284,575,o),
(302,546,o),
(302,486,cs),
(302,382,l),
(437,382,l),
(437,486,ls),
(437,546,o),
(454,575,o),
(487,575,cs),
(523,575,o),
(545,545,o),
(545,420,cs),
(545,215,o),
(504,119,o),
(414,114,c),
(414,0,l),
(673,0,l),
(673,-77,l)
);
}
);
width = 798;
}
);
metricLeft = "tluCarrier-canadian";
metricRight = "tlhuCarrier-canadian";
note = uni163B;
unicode = 5691;
},
{
color = 9;
glyphname = "tleCarrier-canadian";
lastChange = "2023-01-13 15:56:36 +0000";
layers = (
{
anchors = (
{
name = middle_center_can;
pos = (270,345);
}
);
layerId = "86DE26EB-3058-4E6D-9480-BC9D8886A6AA";
shapes = (
{
closed = 1;
nodes = (
(508,-14,o),
(585,68,o),
(585,182,cs),
(585,276,o),
(537,343,o),
(463,358,c),
(463,331,l),
(537,346,o),
(585,412,o),
(585,508,cs),
(585,622,o),
(508,703,o),
(379,703,cs),
(273,703,o),
(175,645,o),
(153,522,c),
(167,507,l),
(167,696,l),
(232,696,l),
(232,796,l),
(-1,796,l),
(-1,696,l),
(65,696,l),
(65,410,l),
(182,410,l),
(185,516,o),
(235,577,o),
(335,577,cs),
(408,577,o),
(444,543,o),
(444,484,cs),
(444,432,o),
(419,403,o),
(370,403,cs),
(346,403,l),
(346,288,l),
(370,288,ls),
(420,288,o),
(444,258,o),
(444,207,cs),
(444,148,o),
(408,113,o),
(335,113,cs),
(235,113,o),
(185,174,o),
(182,280,c),
(65,280,l),
(65,0,l),
(192,0,l),
(192,151,l),
(171,132,l),
(202,32,o),
(283,-14,o),
(379,-14,cs)
);
}
);
width = 633;
}
);
metricLeft = "dleCarrier-canadian";
metricRight = "geCarrier-canadian";
note = uni163C;
unicode = 5692;
},
{
color = 9;
glyphname = "tlaCarrier-canadian";
lastChange = "2023-01-13 15:56:33 +0000";
layers = (
{
layerId = "86DE26EB-3058-4E6D-9480-BC9D8886A6AA";
shapes = (
{
closed = 1;
nodes = (
(351,-14,o),
(433,32,o),
(463,132,c),
(442,151,l),
(442,0,l),
(570,0,l),
(570,280,l),
(452,280,l),
(449,174,o),
(399,113,o),
(299,113,cs),
(227,113,o),
(189,148,o),
(189,207,cs),
(189,258,o),
(214,288,o),
(265,288,cs),
(290,288,l),
(290,403,l),
(265,403,ls),
(214,403,o),
(189,432,o),
(189,484,cs),
(189,543,o),
(226,577,o),
(298,577,cs),
(399,577,o),
(449,516,o),
(452,410,c),
(570,410,l),
(570,696,l),
(635,696,l),
(635,796,l),
(402,796,l),
(402,696,l),
(468,696,l),
(468,507,l),
(482,522,l),
(460,645,o),
(361,703,o),
(255,703,cs),
(127,703,o),
(48,622,o),
(48,508,cs),
(48,412,o),
(97,346,o),
(171,331,c),
(171,358,l),
(98,343,o),
(48,276,o),
(48,182,cs),
(48,68,o),
(127,-14,o),
(255,-14,cs)
);
}
);
width = 634;
}
);
metricLeft = "=|geCarrier-canadian";
metricRight = "=|dleCarrier-canadian";
note = uni163F;
unicode = 5695;
},
{
color = 9;
glyphname = "zuCarrier-canadian";
lastChange = "2023-01-13 15:56:33 +0000";
layers = (
{
layerId = "86DE26EB-3058-4E6D-9480-BC9D8886A6AA";
shapes = (
{
closed = 1;
nodes = (
(482,-14,o),
(581,77,o),
(581,222,cs),
(581,327,o),
(519,459,o),
(519,520,cs),
(519,549,o),
(532,568,o),
(565,568,cs),
(589,568,l),
(589,690,l),
(529,690,ls),
(428,690,o),
(381,635,o),
(381,546,cs),
(381,460,o),
(439,335,o),
(439,244,cs),
(439,166,o),
(396,117,o),
(316,117,cs),
(236,117,o),
(193,165,o),
(193,244,cs),
(193,335,o),
(251,460,o),
(251,546,cs),
(251,635,o),
(204,690,o),
(102,690,cs),
(43,690,l),
(43,568,l),
(67,568,ls),
(99,568,o),
(114,549,o),
(114,520,cs),
(114,459,o),
(50,327,o),
(50,222,cs),
(50,77,o),
(150,-14,o),
(316,-14,cs)
);
}
);
width = 632;
}
);
metricRight = "=|";
note = uni1640;
unicode = 5696;
},
{
color = 9;
glyphname = "zoCarrier-canadian";
lastChange = "2023-01-13 15:56:33 +0000";
layers = (
{
layerId = "86DE26EB-3058-4E6D-9480-BC9D8886A6AA";
shapes = (
{
closed = 1;
nodes = (
(102,0,ls),
(205,0,o),
(252,55,o),
(252,144,cs),
(252,230,o),
(193,355,o),
(193,445,cs),
(193,524,o),
(237,573,o),
(317,573,cs),
(397,573,o),
(440,525,o),
(440,445,cs),
(440,355,o),
(381,230,o),
(381,144,cs),
(381,55,o),
(429,0,o),
(529,0,cs),
(589,0,l),
(589,122,l),
(565,122,ls),
(532,122,o),
(519,141,o),
(519,170,cs),
(519,231,o),
(582,363,o),
(582,468,cs),
(582,612,o),
(482,703,o),
(317,703,cs),
(151,703,o),
(51,612,o),
(51,468,cs),
(51,363,o),
(114,231,o),
(114,170,cs),
(114,141,o),
(100,122,o),
(68,122,cs),
(43,122,l),
(43,0,l)
);
}
);
width = 632;
}
);
metricLeft = "zuCarrier-canadian";
metricRight = "zuCarrier-canadian";
note = uni1641;
unicode = 5697;
},
